<?xml version="1.0" encoding="utf-8"?>
<!-- Generator: Adobe Illustrator 21.0.0, SVG Export Plug-In . SVG Version: 6.00 Build 0)  -->
<svg version="1.1" id="Layer_1" xmlns="http://www.w3.org/2000/svg" xmlns:xlink="http://www.w3.org/1999/xlink" x="0px" y="0px"
	 viewBox="0 0 262 218.5" style="enable-background:new 0 0 262 218.5;" xml:space="preserve">
<style type="text/css">
	.st0{fill:#dce3ff;}
</style>
<g>
	<g>
		<path class="st0" d="M248.5,126.5h-235C6.1,126.5,0,120.4,0,113V36c0-7.4,6.1-13.5,13.5-13.5h235c7.4,0,13.5,6.1,13.5,13.5v77
			C262,120.4,255.9,126.5,248.5,126.5z M13.5,34.5c-0.8,0-1.5,0.7-1.5,1.5v77c0,0.8,0.7,1.5,1.5,1.5h235c0.8,0,1.5-0.7,1.5-1.5V36
			c0-0.8-0.7-1.5-1.5-1.5H13.5z"/>
		<path class="st0" d="M242.3,218.5H19.8c-3.6,0-7-1.4-9.5-4c-2.5-2.5-4-5.9-4-9.5v-84.5h12V205c0,0.3,0.1,0.7,0.4,1.1
			c0.4,0.4,0.8,0.4,1.1,0.4h222.5c0.3,0,0.7-0.1,1.1-0.4c0.4-0.4,0.4-0.8,0.4-1.1v-84.5h12V205c0,3.6-1.4,7-4,9.5
			C249.2,217.1,245.9,218.5,242.3,218.5z"/>
		<path class="st0" d="M174.5,34.5h-87v-21c0-3.6,1.4-7,4-9.5c2.5-2.5,5.9-4,9.5-4h60c3.6,0,7,1.4,9.5,4c2.5,2.5,4,5.9,4,9.5V34.5z
			 M99.5,22.5h63v-9c0-0.3-0.1-0.7-0.4-1.1c-0.4-0.4-0.8-0.4-1.1-0.4h-60c-0.3,0-0.7,0.1-1.1,0.4c-0.4,0.4-0.4,0.8-0.4,1.1V22.5z"/>
		<g>
			<g>
				<path class="st0" d="M93.5,140.5c0,2.8-2.3,5-5,5h-15c-2.8,0-5-2.3-5-5v-40c0-2.8,2.3-5,5-5h15c2.8,0,5,2.3,5,5V140.5z"/>
			</g>
			<g>
				<path class="st0" d="M193.5,140.5c0,2.8-2.3,5-5,5h-15c-2.8,0-5-2.3-5-5v-40c0-2.8,2.3-5,5-5h15c2.8,0,5,2.3,5,5V140.5z"/>
			</g>
		</g>
	</g>
</g>
</svg>
