<?xml version="1.0" encoding="utf-8"?>
<!-- Generator: Adobe Illustrator 21.0.0, SVG Export Plug-In . SVG Version: 6.00 Build 0)  -->
<svg version="1.1" id="Layer_1" xmlns="http://www.w3.org/2000/svg" xmlns:xlink="http://www.w3.org/1999/xlink" x="0px" y="0px"
	 viewBox="0 0 259.3 235" style="enable-background:new 0 0 259.3 235;" xml:space="preserve">
<style type="text/css">
	.st0{fill:#dce3ff;}
</style>
<g>
	<path class="st0" d="M229,123.5H117.5c-3.3,0-6-2.7-6-6V6c0-3.3,2.7-6,6-6C182.3,0,235,52.7,235,117.5
		C235,120.8,232.4,123.5,229,123.5z M123.5,111.5h99.4c-3-53.4-45.9-96.3-99.4-99.4V111.5z"/>
	<path class="st0" d="M151.3,131.5h108c-2.5,28.2-13.5,54.6-31.7,76.3L151.3,131.5z"/>
	<path class="st0" d="M117.5,235C52.7,235,0,182.3,0,117.5C0,52.7,52.7,0,117.5,0c3.3,0,6,2.7,6,6v109l77.1,77.1
		c1.1,1.1,1.8,2.7,1.8,4.2c0,1.6-0.6,3.1-1.8,4.2C178.4,222.8,148.9,235,117.5,235z M111.5,12.2C56.1,15.3,12,61.4,12,117.5
		C12,175.7,59.3,223,117.5,223c26.2,0,50.9-9.5,70.3-26.8l-74.5-74.5c-1.1-1.1-1.8-2.7-1.8-4.2V12.2z"/>
</g>
</svg>
