<?xml version="1.0" encoding="utf-8"?>
<!-- Generator: Adobe Illustrator 21.0.0, SVG Export Plug-In . SVG Version: 6.00 Build 0)  -->
<svg version="1.1" id="Layer_1" xmlns="http://www.w3.org/2000/svg" xmlns:xlink="http://www.w3.org/1999/xlink" x="0px" y="0px"
	 viewBox="0 0 259.3 235" style="enable-background:new 0 0 259.3 235;" xml:space="preserve">
<style type="text/css">
	.st0{fill:#FFFFFF;}
</style>
<g>
	<path class="st0" d="M24.3,117.5C24.3,52.7,77,0,141.8,0c3.3,0,6,2.7,6,6v111.5c0,3.3-2.7,6-6,6H30.3
		C26.9,123.5,24.3,120.8,24.3,117.5z M135.8,12.1c-53.5,3.1-96.4,46-99.4,99.4h99.4C135.8,111.5,135.8,12.1,135.8,12.1z"/>
	<path class="st0" d="M31.7,207.8C13.5,186.1,2.5,159.7,0,131.5h108L31.7,207.8z"/>
	<path class="st0" d="M58.7,200.5c-1.2-1.1-1.8-2.6-1.8-4.2c0-1.5,0.7-3.1,1.8-4.2l77.1-77.1V6c0-3.3,2.7-6,6-6
		c64.8,0,117.5,52.7,117.5,117.5S206.6,235,141.8,235C110.4,235,80.9,222.8,58.7,200.5z M147.8,117.5c0,1.5-0.7,3.1-1.8,4.2
		l-74.5,74.5c19.4,17.3,44.1,26.8,70.3,26.8c58.2,0,105.5-47.3,105.5-105.5c0-56.1-44.1-102.2-99.5-105.3V117.5z"/>
</g>
</svg>
