<?xml version="1.0" encoding="utf-8"?>
<!-- Generator: Adobe Illustrator 21.0.0, SVG Export Plug-In . SVG Version: 6.00 Build 0)  -->
<svg version="1.1" id="Layer_1" xmlns="http://www.w3.org/2000/svg" xmlns:xlink="http://www.w3.org/1999/xlink" x="0px" y="0px"
	 viewBox="0 0 259.2 189.3" style="enable-background:new 0 0 259.2 189.3;" xml:space="preserve">
<style type="text/css">
	.st0{fill:#dce3ff;}
</style>
<g>
	<path class="st0" d="M223.2,189.3H21c-11.6,0-21-9.4-21-21V29c0-3.1,1.2-6.1,3.4-8.3c1.5-1.5,3.2-2.5,5.2-3v-5.9
		c0-3.2,1.2-6.1,3.5-8.3C14.2,1.2,17.2,0,20.4,0H75c3.2,0,6.1,1.2,8.3,3.4c2.2,2.3,3.4,5.2,3.4,8.3v5.5H219c3.3,0,6,2.7,6,6
		s-2.7,6-6,6H74.8V12H20.6v17.3H12v139.1c0,5,4,9,9,9h202.2c3.3,0,6,2.7,6,6C229.2,186.6,226.5,189.3,223.2,189.3z"/>
	<path class="st0" d="M238.2,189.3H21v-12c5,0,9-4,9-9V53c0-3.1,1.2-6.1,3.4-8.3c2.2-2.2,5.2-3.5,8.3-3.5h205.7
		c3.1,0,6.1,1.2,8.3,3.5c2.2,2.3,3.4,5.2,3.4,8.3l0,115.8C258.9,180.3,249.7,189.3,238.2,189.3z M40,177.3h198.2
		c4.8,0,8.8-3.9,9-8.7V53.3H42v115.1C42,171.5,41.3,174.6,40,177.3z"/>
	<path class="st0" d="M159.2,89.3H72c-3.3,0-6-2.7-6-6c0-3.3,2.7-6,6-6h87.3c3.3,0,6,2.7,6,6C165.3,86.6,162.6,89.3,159.2,89.3z"/>
	<path class="st0" d="M115.6,113.3H72c-3.3,0-6-2.7-6-6c0-3.3,2.7-6,6-6h43.6c3.3,0,6,2.7,6,6C121.6,110.6,118.9,113.3,115.6,113.3z
		"/>
</g>
</svg>
