<?xml version="1.0" encoding="utf-8"?>
<!-- Generator: Adobe Illustrator 21.0.0, SVG Export Plug-In . SVG Version: 6.00 Build 0)  -->
<svg version="1.1" id="Icon" xmlns="http://www.w3.org/2000/svg" xmlns:xlink="http://www.w3.org/1999/xlink" x="0px" y="0px"
	 viewBox="0 0 548.3 362.1" style="enable-background:new 0 0 548.3 362.1;" xml:space="preserve">
<style type="text/css">
	.st0{fill:#FFFFFF;}
</style>
<g>
	<path class="st0" d="M152.1,129.4c-6.3,0-11,7-11,16.3v16.2l7,33.5l-7,38v53.3c0,9.3,4.7,16.3,11,16.3s11-7,11-16.3V145.6
		C163.1,136.4,158.4,129.4,152.1,129.4z"/>
	<path class="st0" d="M314.6,263.8c3.3,0,6-2.7,6-6V24.2C320.6,13.6,312,5,301.4,5H165.3c-10.6,0-19.2,8.6-19.2,19.2v154.9
		c0,3.3,2.7,6,6,6s6-2.7,6-6V24.2c0-4,3.2-7.2,7.2-7.2h136.1c4,0,7.2,3.2,7.2,7.2v233.6C308.6,261.1,311.3,263.8,314.6,263.8z"/>
	<path class="st0" d="M438.3,357.1c3.3,0,6-2.7,6-6c0-28-21.7-51.8-48.2-54c-7.1-27.1-31.6-46.3-60.1-46.3
		c-21,0-40.3,10.4-51.7,27.7c-8.1-4.9-17.6-7.6-27.1-7.6c-16.5,0-33.2,2.1-43.2,17c-1.9,2.7-1.1,6.5,1.6,8.3
		c2.7,1.9,6.5,1.1,8.3-1.6c6.6-9.7,18-11.7,33.3-11.7c9.3,0,18,3.1,25.2,8.9c1.4,1.1,3.2,1.6,5,1.2s3.3-1.5,4.1-3.1
		c8.7-16.7,25.7-27.1,44.5-27.1c24.3,0,45.1,17.3,49.4,41.2c0.5,2.9,3.1,5,6,4.9h0.4c0.1,0,0.2,0,0.4,0c21.8,0,40.1,19.3,40.1,42.1
		C432.3,354.4,435,357.1,438.3,357.1z"/>
	<path class="st0" d="M92.4,127c-39,0-70.8,31.7-70.8,70.7s31.8,70.7,70.8,70.7s70.8-31.7,70.8-70.7S131.4,127,92.4,127z
		 M92.4,249.4c-28.5,0-51.7-23.2-51.7-51.7s23.2-51.6,51.7-51.6s51.7,23.2,51.7,51.6C144.1,226.2,120.9,249.4,92.4,249.4z"/>
	<path class="st0" d="M92,308.9c3.3,0,6-2.7,6-6V188.4c0-3.3-2.7-6-6-6s-6,2.7-6,6V303C86,306.3,88.6,308.9,92,308.9z"/>
	<path class="st0" d="M87.7,231c3.3,0,6-2.7,6-6s-2.7-6-6-6c-9.8,0-17.7-8-17.7-17.7c0-3.3-2.7-6-6-6c-3.3,0-6,2.7-6,6
		C58,217.7,71.3,231,87.7,231z"/>
	<path class="st0" d="M98.7,231c15.8,0,28.7-13.3,28.7-29.7c0-3.3-2.7-6-6-6s-6,2.7-6,6c0,9.8-7.5,17.7-16.7,17.7c-3.3,0-6,2.7-6,6
		S95.4,231,98.7,231z"/>
	<path class="st0" d="M82.9,357.1c0.7,0,1.5-0.1,2.2-0.4c3.1-1.2,4.6-4.7,3.3-7.8c-3.4-8.4-3.8-17-1.3-25.6
		c6.2-21.2,28.6-33.4,49.8-27.2c8.9,2.6,16.4,8,21.7,15.7c1,1.5,2.7,2.4,4.5,2.6s3.6-0.5,4.8-1.8c13-13.6,32.3-18.7,50.4-13.4
		c23.6,6.9,38.3,28.1,35.8,51.4c-0.4,3.3,2,6.3,5.3,6.6c3.3,0.3,6.3-2,6.6-5.3c3.2-29.3-15.1-55.7-44.3-64.2
		c-20.2-5.9-41.6-1.3-57.4,12c-6.4-7-14.7-12.3-23.9-14.9c-27.6-8.1-56.6,7.8-64.7,35.3c-3.3,11.3-2.7,22.5,1.7,33.5
		C78.2,355.7,80.5,357.1,82.9,357.1z"/>
	<path class="st0" d="M11,357.1h526.3c3.3,0,6-2.7,6-6s-2.7-6-6-6H11c-3.3,0-6,2.7-6,6S7.7,357.1,11,357.1z"/>
	<path class="st0" d="M273.6,82.6c3.3,0,6-2.7,6-6v-30c0-3.3-2.7-6-6-6s-6,2.7-6,6v30.1C267.6,80,270.3,82.6,273.6,82.6z"/>
	<path class="st0" d="M233.4,82.6c3.3,0,6-2.7,6-6v-30c0-3.3-2.7-6-6-6s-6,2.7-6,6v30.1C227.4,80,230.1,82.6,233.4,82.6z"/>
	<path class="st0" d="M193.2,82.6c3.3,0,6-2.7,6-6v-30c0-3.3-2.7-6-6-6s-6,2.7-6,6v30.1C187.2,80,189.9,82.6,193.2,82.6z"/>
	<path class="st0" d="M273.6,133.5c3.3,0,6-2.7,6-6v-11.9c0-3.3-2.7-6-6-6s-6,2.7-6,6v11.9C267.6,130.8,270.3,133.5,273.6,133.5z"/>
	<path class="st0" d="M233.4,133.5c3.3,0,6-2.7,6-6v-11.9c0-3.3-2.7-6-6-6s-6,2.7-6,6v11.9C227.4,130.8,230.1,133.5,233.4,133.5z"/>
	<path class="st0" d="M193.2,133.5c3.3,0,6-2.7,6-6v-11.9c0-3.3-2.7-6-6-6s-6,2.7-6,6v11.9C187.2,130.8,189.9,133.5,193.2,133.5z"/>
	<path class="st0" d="M273.6,185.7c3.3,0,6-2.7,6-6v-11.9c0-3.3-2.7-6-6-6s-6,2.7-6,6v11.9C267.6,183,270.3,185.7,273.6,185.7z"/>
	<path class="st0" d="M233.4,185.7c3.3,0,6-2.7,6-6v-11.9c0-3.3-2.7-6-6-6s-6,2.7-6,6v11.9C227.4,183,230.1,185.7,233.4,185.7z"/>
	<path class="st0" d="M193.2,185.7c3.3,0,6-2.7,6-6v-11.9c0-3.3-2.7-6-6-6s-6,2.7-6,6v11.9C187.2,183,189.9,185.7,193.2,185.7z"/>
	<path class="st0" d="M273.6,236.8c3.3,0,6-2.7,6-6v-11.9c0-3.3-2.7-6-6-6s-6,2.7-6,6v11.9C267.6,234.1,270.3,236.8,273.6,236.8z"/>
	<path class="st0" d="M233.4,236.8c3.3,0,6-2.7,6-6v-11.9c0-3.3-2.7-6-6-6s-6,2.7-6,6v11.9C227.4,234.1,230.1,236.8,233.4,236.8z"/>
	<path class="st0" d="M193.2,236.8c3.3,0,6-2.7,6-6v-11.9c0-3.3-2.7-6-6-6s-6,2.7-6,6v11.9C187.2,234.1,189.9,236.8,193.2,236.8z"/>
</g>
</svg>
