<?xml version="1.0" encoding="utf-8"?>
<!-- Generator: Adobe Illustrator 21.0.0, SVG Export Plug-In . SVG Version: 6.00 Build 0)  -->
<svg version="1.1" id="Layer_1" xmlns="http://www.w3.org/2000/svg" xmlns:xlink="http://www.w3.org/1999/xlink" x="0px" y="0px"
	 viewBox="0 0 262 207" style="enable-background:new 0 0 262 207;" xml:space="preserve">
<style type="text/css">
	.st0{fill:#dce3ff;}
</style>
<g>
	<g>
		<path class="st0" d="M240.1,179.2c-3.3,0-6-2.7-6-6V6c0-3.3,2.7-6,6-6c3.3,0,6,2.7,6,6v167.2C246.1,176.5,243.4,179.2,240.1,179.2
			z"/>
		<path class="st0" d="M21.9,179.2c-3.3,0-6-2.7-6-6V6c0-3.3,2.7-6,6-6s6,2.7,6,6v167.2C27.9,176.5,25.2,179.2,21.9,179.2z"/>
		<path class="st0" d="M256,207H6c-3.3,0-6-2.7-6-6v-27.8c0-3.3,2.7-6,6-6h250c3.3,0,6,2.7,6,6V201C262,204.3,259.3,207,256,207z
			 M12,195h238v-15.8H12V195z"/>
		<path class="st0" d="M256,27.9H6c-3.3,0-6-2.7-6-6c0-3.3,2.7-6,6-6h250c3.3,0,6,2.7,6,6C262,25.2,259.3,27.9,256,27.9z"/>
		<path class="st0" d="M256,80.9H6c-3.3,0-6-2.7-6-6c0-3.3,2.7-6,6-6h250c3.3,0,6,2.7,6,6C262,78.2,259.3,80.9,256,80.9z"/>
		<path class="st0" d="M173.2,96.8c-3.3,0-6-2.7-6-6V59c0-3.3,2.7-6,6-6c3.3,0,6,2.7,6,6v31.9C179.2,94.1,176.5,96.8,173.2,96.8z"/>
		<path class="st0" d="M136.9,96.8c-3.3,0-6-2.7-6-6V59c0-3.3,2.7-6,6-6c3.3,0,6,2.7,6,6v31.9C142.9,94.1,140.2,96.8,136.9,96.8z"/>
		<path class="st0" d="M188.9,96.8c-3.3,0-6-2.7-6-6V59c0-3.3,2.7-6,6-6c3.3,0,6,2.7,6,6v31.9C194.9,94.1,192.2,96.8,188.9,96.8z"/>
		<path class="st0" d="M204.5,96.8c-3.3,0-6-2.7-6-6V59c0-3.3,2.7-6,6-6c3.3,0,6,2.7,6,6v31.9C210.5,94.1,207.8,96.8,204.5,96.8z"/>
		<path class="st0" d="M256,133.9H6c-3.3,0-6-2.7-6-6c0-3.3,2.7-6,6-6h250c3.3,0,6,2.7,6,6C262,131.2,259.3,133.9,256,133.9z"/>
		<path class="st0" d="M50.4,43.9c-3.3,0-6-2.7-6-6V6c0-3.3,2.7-6,6-6c3.3,0,6,2.7,6,6v31.9C56.4,41.2,53.8,43.9,50.4,43.9z"/>
		<path class="st0" d="M66.1,43.9c-3.3,0-6-2.7-6-6V6c0-3.3,2.7-6,6-6s6,2.7,6,6v31.9C72.1,41.2,69.4,43.9,66.1,43.9z"/>
		<path class="st0" d="M81.7,43.9c-3.3,0-6-2.7-6-6V6c0-3.3,2.7-6,6-6c3.3,0,6,2.7,6,6v31.9C87.7,41.2,85.1,43.9,81.7,43.9z"/>
		<path class="st0" d="M71.7,149.8c-3.3,0-6-2.7-6-6v-31.9c0-3.3,2.7-6,6-6c3.3,0,6,2.7,6,6v31.9C77.7,147.1,75.1,149.8,71.7,149.8z
			"/>
		<path class="st0" d="M87.4,149.8c-3.3,0-6-2.7-6-6v-31.9c0-3.3,2.7-6,6-6c3.3,0,6,2.7,6,6v31.9C93.4,147.1,90.7,149.8,87.4,149.8z
			"/>
		<path class="st0" d="M196.4,149.8c-3.3,0-6-2.7-6-6v-31.9c0-3.3,2.7-6,6-6c3.3,0,6,2.7,6,6v31.9
			C202.4,147.1,199.7,149.8,196.4,149.8z"/>
	</g>
</g>
</svg>
