<?xml version="1.0" encoding="utf-8"?>
<!-- Generator: Adobe Illustrator 21.0.0, SVG Export Plug-In . SVG Version: 6.00 Build 0)  -->
<svg version="1.1" id="Слой_1" xmlns="http://www.w3.org/2000/svg" xmlns:xlink="http://www.w3.org/1999/xlink" x="0px" y="0px"
	 viewBox="0 0 512 512" style="enable-background:new 0 0 512 512;" xml:space="preserve">
<style type="text/css">
	.st0{fill:#FFFFFF;}
</style>
<path class="st0" d="M512,256C512,114.5,397.5,0,256,0C114.5,0,0,114.5,0,256c0,140.2,113.5,256,256,256
	C397.9,512,512,396.9,512,256z M256,30c124.6,0,226,101.4,226,226c0,45.6-13.6,89.4-38.7,126.5c-101-108.6-273.4-108.8-374.6,0
	C43.6,345.4,30,301.6,30,256C30,131.4,131.4,30,256,30z M87.4,406.5c89.8-100.7,247.4-100.7,337.2,0
	C334.5,507.3,177.5,507.3,87.4,406.5z"/>
<path class="st0" d="M256,271c49.6,0,90-40.4,90-90v-30c0-49.6-40.4-90-90-90s-90,40.4-90,90v30C166,230.6,206.4,271,256,271z
	 M196,151c0-33.1,26.9-60,60-60s60,26.9,60,60v30c0,33.1-26.9,60-60,60s-60-26.9-60-60V151z"/>
</svg>
