<?xml version="1.0" encoding="utf-8"?>
<!-- Generator: Adobe Illustrator 21.0.0, SVG Export Plug-In . SVG Version: 6.00 Build 0)  -->
<svg version="1.1" id="Layer_1" xmlns="http://www.w3.org/2000/svg" xmlns:xlink="http://www.w3.org/1999/xlink" x="0px" y="0px"
	 viewBox="0 0 314 314.8" style="enable-background:new 0 0 314 314.8;" xml:space="preserve">
<style type="text/css">
	.st0{fill:#B2EAEA;}
</style>
<g>
	<g>
		<path class="st0" d="M177.1,283.7c-1.6,1.6-3.8,2.3-6,1.8c-2.3-0.5-4.1-2.1-5-4.5l-36.5-96.5l-95.9-37.1c-2.4-0.9-4-2.7-4.5-5
			c-0.6-3.1,1.1-6.2,4.2-7.6l242-105c3.3-1.4,6.2-0.3,7.7,1.2c1.5,1.5,2.7,4.4,1.2,7.7L178.7,281.3
			C178.3,282.3,177.7,283.1,177.1,283.7z M49.7,140.8l84.8,32.8c2.6,1,5,3.4,6,6.1l32.2,85.2L268,46L49.7,140.8z"/>
		
			<rect x="104.1" y="101.2" transform="matrix(0.7071 -0.7071 0.7071 0.7071 -15.1686 177.6962)" class="st0" width="205.6" height="12"/>
	</g>
</g>
</svg>
