<?xml version="1.0" encoding="utf-8"?>
<!-- Generator: Adobe Illustrator 21.0.0, SVG Export Plug-In . SVG Version: 6.00 Build 0)  -->
<svg version="1.1" id="Capa_1" xmlns="http://www.w3.org/2000/svg" xmlns:xlink="http://www.w3.org/1999/xlink" x="0px" y="0px"
	 viewBox="0 0 45.1 45.1" style="enable-background:new 0 0 45.1 45.1;" xml:space="preserve">
<style type="text/css">
	.st0{fill:#4349BA;}
</style>
<path class="st0" d="M22.5,0.1C10.1,0.1,0,10.1,0,22.6s10.1,22.5,22.5,22.5S45,35,45,22.6S35,0.1,22.5,0.1z M33.2,24l-0.7,2.8H21.4
	c-0.9,1.2-1.6,2.8-0.8,4.2c1.4,2.4,5.8,2,9.8,0.7L30,36c0,0-11,2.4-14.3-3.1c-1.3-2.1-1-4.2,0-6.2h-3.8l0.7-2.8h5.1
	c0.7-0.8,1.5-1.5,2.3-2c0.3-0.2,0.6-0.5,1-0.8h-9.1l0.7-2.8h11.2c1-1.3,1.5-2.8,0.7-4.2c-1.4-2.4-5.8-2-9.8-0.7l0.4-4.4
	c0,0,11-2.4,14.3,3.1c1.3,2.1,1,4.3,0,6.2h3.8l-0.7,2.8h-5.2c-0.6,0.7-1.3,1.3-2,1.9c-0.4,0.3-0.8,0.6-1.2,1H33.2z"/>
</svg>
