<?xml version="1.0" encoding="utf-8"?>
<!-- Generator: Adobe Illustrator 21.0.0, SVG Export Plug-In . SVG Version: 6.00 Build 0)  -->
<svg version="1.1" id="Capa_1" xmlns="http://www.w3.org/2000/svg" xmlns:xlink="http://www.w3.org/1999/xlink" x="0px" y="0px"
	 viewBox="0 0 45.1 45.1" style="enable-background:new 0 0 45.1 45.1;" xml:space="preserve">
<style type="text/css">
	.st0{fill:#4349BA;}
</style>
<path class="st0" d="M22.6,0C10.1,0,0,10.1,0,22.6s10.1,22.6,22.6,22.6C35,45.1,45.1,35,45.1,22.6S35,0,22.6,0z M31.8,33.5
	c-1.5,1.2-3.1,1.8-4.7,1.8c-1,0-2.1-0.2-3.2-0.6l-1.7-0.6c-0.8-0.3-1.5-0.4-2.2-0.4c-1.6,0-3.2,0.5-4.5,1.4l-0.3,0.2l-2.1-3l0.2-0.2
	c2.9-2.2,4.3-4.3,4.3-6.1c0-0.7-0.2-1.5-0.6-2.3h-4v-2.3h2.6C14.5,19.6,14,18,14,16.6c0.1-2,0.9-3.7,2.5-5.1
	c1.6-1.4,3.7-2.1,6.2-2.1c2.6,0,4.8,0.7,6.3,2.1c1.5,1.3,2.3,3.2,2.3,5.5c0,0.1,0,0.2,0,0.3v0.6h-3.9v-0.6c0-3-1.6-4.5-4.7-4.5
	c-1.3,0.1-2.4,0.5-3.3,1.2c-0.8,0.8-1.2,1.7-1.2,2.8c0.1,0.6,0.3,1.3,0.6,2c0.1,0.3,0.3,0.7,0.5,1.1c0.2,0.2,0.4,0.6,0.7,1.2
	c0.1,0.1,0.2,0.2,0.2,0.3h5.9v2.3h-4.8c0.2,0.7,0.3,1.3,0.3,1.7c0,1.7-0.8,3.5-2.6,5.3c0.8-0.2,1.8-0.3,2.8-0.3
	c0.6,0.1,1.3,0.2,1.9,0.3c0.4,0.1,0.9,0.2,1.6,0.4c1.2,0.4,1.8,0.5,2.1,0.5c0.8,0,1.8-0.3,2.8-1l0.3-0.2l1.5,2.9L31.8,33.5z"/>
</svg>
