<?xml version="1.0" encoding="utf-8"?>
<!-- Generator: Adobe Illustrator 21.0.0, SVG Export Plug-In . SVG Version: 6.00 Build 0)  -->
<svg version="1.1" id="Capa_1" xmlns="http://www.w3.org/2000/svg" xmlns:xlink="http://www.w3.org/1999/xlink" x="0px" y="0px"
	 viewBox="0 0 45.1 45.1" style="enable-background:new 0 0 45.1 45.1;" xml:space="preserve">
<style type="text/css">
	.st0{fill:#4349BA;}
</style>
<g>
	<path class="st0" d="M23.8,23.9v8c2.6-0.4,3.9-1.7,3.9-4.1C27.7,25.9,26.4,24.6,23.8,23.9z"/>
	<path class="st0" d="M17.8,16.1c0,1.9,1.2,3,3.5,3.5v-7.1C19,12.6,17.8,13.8,17.8,16.1z"/>
	<path class="st0" d="M22.6,0C10.1,0,0,10.1,0,22.6s10.1,22.6,22.6,22.6S45.1,35,45.1,22.6S35,0,22.6,0z M31.4,27.4
		c0,4.4-2.6,7-7.8,7.6v3.3h-2.5v-3.2c-5.1-0.5-7.7-3.2-7.7-8.1v-0.7h3.7v0.6c0,3,1.3,4.5,4,4.8v-8.4c-4.8-0.8-7.2-3.2-7.2-7
		c0.1-2.1,0.8-3.8,2.1-5.1c1.3-1.2,3-1.9,5.2-2.1V6.7h2.5v2.5c4.7,0.5,7.1,2.8,7.1,6.9v0.3h-3.7v-0.3c-0.3-2.1-1.4-3.3-3.4-3.5V20
		c2.8,0.6,4.7,1.5,5.9,2.5C30.9,23.7,31.5,25.3,31.4,27.4z"/>
</g>
</svg>
