<svg id="Layer_1" data-name="Layer 1" xmlns="http://www.w3.org/2000/svg" viewBox="0 0 163.11 170.74"><defs><style>.cls-1{fill:#d8f4f4;}</style></defs><title>letter</title><path class="cls-1" d="M7.82,163.73H0V74.29a7,7,0,0,1,4.15-6.4l18.75-8.41,3.2,7.13L7.82,74.81Z"/><path class="cls-1" d="M163.11,163.73h-7.82V74.81L137,66.61l3.2-7.13L159,67.89a7,7,0,0,1,4.14,6.4Z"/><path class="cls-1" d="M142.52,86.64H134.7V7.82H28.41V86.64H20.59V7a7,7,0,0,1,7-7H135.51a7,7,0,0,1,7,7Z"/><rect class="cls-1" x="31.86" y="55.66" width="7.82" height="77.69" transform="translate(-62.21 69.79) rotate(-55.11)"/><rect class="cls-1" x="88.49" y="90.59" width="77.69" height="7.82" transform="translate(-31.17 89.82) rotate(-34.89)"/><path class="cls-1" d="M156.09,170.74H7a7,7,0,0,1-7-7H7.82a.81.81,0,0,0-.8-.8H156.09a.8.8,0,0,0-.8.8h7.82a7,7,0,0,1-7,7Z"/><path class="cls-1" d="M6.33,169.91l-4.83-6.15,75.73-59.55a7,7,0,0,1,8.67,0l75.72,59.55-4.83,6.15L81.56,110.75Z"/><path class="cls-1" d="M110.88,29.55H52.23a3.91,3.91,0,1,1,0-7.82h58.65a3.91,3.91,0,1,1,0,7.82Z"/><path class="cls-1" d="M110.88,45.19H52.23a3.91,3.91,0,1,1,0-7.82h58.65a3.91,3.91,0,1,1,0,7.82Z"/><path class="cls-1" d="M81.55,60.83H52.23a3.91,3.91,0,1,1,0-7.82H81.55a3.91,3.91,0,0,1,0,7.82Z"/></svg>