<svg id="Слой_1" data-name="Слой 1" xmlns="http://www.w3.org/2000/svg" xmlns:xlink="http://www.w3.org/1999/xlink" viewBox="0 0 595.28 841.89"><defs><style>.cls-1{fill:none;}.cls-2{clip-path:url(#clip-path);}.cls-3{clip-path:url(#clip-path-2);}.cls-4{fill:url(#Безымянный_градиент_295);}.cls-40,.cls-5{opacity:0.3;}.cls-6{fill:#fff;}.cls-7{fill:#33adff;}.cls-47,.cls-7{opacity:0.2;}.cls-8{opacity:0.13;fill:url(#Безымянный_градиент_18);}.cls-12,.cls-9{fill:#242993;}.cls-9{opacity:0.5;}.cls-10{fill:url(#Безымянный_градиент_19);}.cls-11{fill:url(#Безымянный_градиент_28);}.cls-13{fill:#4553c7;}.cls-14{fill:#42ffff;}.cls-15{fill:url(#Безымянный_градиент_19-2);}.cls-16{fill:url(#Безымянный_градиент_28-2);}.cls-17{fill:url(#Безымянный_градиент_19-3);}.cls-18{fill:url(#Безымянный_градиент_28-3);}.cls-19{fill:url(#Безымянный_градиент_19-4);}.cls-20{fill:url(#Безымянный_градиент_28-4);}.cls-21{fill:url(#Безымянный_градиент_30);}.cls-22{fill:url(#Безымянный_градиент_28-5);}.cls-23{fill:url(#Безымянный_градиент_29);}.cls-24{fill:url(#Безымянный_градиент_30-2);}.cls-25{fill:url(#Безымянный_градиент_28-6);}.cls-26{fill:url(#Безымянный_градиент_29-2);}.cls-27{fill:url(#Безымянный_градиент_30-3);}.cls-28{fill:url(#Безымянный_градиент_28-7);}.cls-29{fill:url(#Безымянный_градиент_29-3);}.cls-30{fill:url(#Безымянный_градиент_30-4);}.cls-31{fill:url(#Безымянный_градиент_28-8);}.cls-32{fill:url(#Безымянный_градиент_29-4);}.cls-33{fill:url(#Безымянный_градиент_30-5);}.cls-34{fill:url(#Безымянный_градиент_28-9);}.cls-35{fill:url(#Безымянный_градиент_29-5);}.cls-36{fill:url(#Безымянный_градиент_30-6);}.cls-37{fill:url(#Безымянный_градиент_28-10);}.cls-38{fill:url(#Безымянный_градиент_29-6);}.cls-39{fill:url(#Безымянный_градиент_30-7);}.cls-40{fill:url(#Безымянный_градиент_29-7);}.cls-41{fill:url(#Безымянный_градиент_28-11);}.cls-42{fill:url(#Безымянный_градиент_29-8);}.cls-43{fill:url(#Безымянный_градиент_30-8);}.cls-44{fill:url(#Безымянный_градиент_28-12);}.cls-45{fill:url(#Безымянный_градиент_29-9);}.cls-46{fill:url(#Безымянный_градиент_30-9);}.cls-47{fill:#3045bc;}.cls-48{fill:url(#Безымянный_градиент_28-13);}.cls-49{fill:url(#Безымянный_градиент_29-10);}.cls-50{fill:url(#Безымянный_градиент_30-10);}.cls-51{fill:url(#Безымянный_градиент_28-14);}.cls-52{fill:url(#Безымянный_градиент_29-11);}.cls-53{fill:url(#Безымянный_градиент_30-11);}.cls-54{fill:url(#Безымянный_градиент_28-15);}.cls-55{fill:url(#Безымянный_градиент_29-12);}.cls-56{fill:#dd821f;}.cls-57{fill:#ffd85a;}.cls-58{fill:#f9bf30;}.cls-59{fill:#f2b42a;}.cls-60{fill:#162184;}.cls-61{fill:url(#Безымянный_градиент_21);}.cls-62{fill:url(#Безымянный_градиент_21-2);}.cls-63{fill:azure;}.cls-64{fill:#fce8ee;}.cls-65{fill:#485dce;}.cls-66{fill:#aa9aac;}.cls-67{fill:#c4e3ff;}.cls-68{fill:#e2c8cf;}.cls-69{fill:url(#Безымянный_градиент_21-3);}.cls-70{fill:#938496;}</style><clipPath id="clip-path"><rect class="cls-1" width="595.28" height="841.89"/></clipPath><clipPath id="clip-path-2"><rect class="cls-1" x="-631.28" y="-203.35" width="1487.73" height="1089.26"/></clipPath><linearGradient id="Безымянный_градиент_295" x1="903.26" y1="-46.2" x2="-989.06" y2="1471.23" gradientUnits="userSpaceOnUse"><stop offset="0" stop-color="#4482cc"/><stop offset="0.04" stop-color="#447ecc"/><stop offset="0.47" stop-color="#4553c7"/><stop offset="0.6" stop-color="#3b44bc"/><stop offset="0.84" stop-color="#2b2dab"/><stop offset="1" stop-color="#2525a5"/></linearGradient><linearGradient id="Безымянный_градиент_18" x1="-746.37" y1="589.2" x2="915.81" y2="589.2" gradientUnits="userSpaceOnUse"><stop offset="0" stop-color="#2525a5"/><stop offset="1" stop-color="#2525a5"/></linearGradient><linearGradient id="Безымянный_градиент_19" x1="612.7" y1="394.44" x2="529.04" y2="461.53" gradientUnits="userSpaceOnUse"><stop offset="0" stop-color="#bcd5ff"/><stop offset="0.15" stop-color="#a3beff"/><stop offset="0.39" stop-color="#82a0ff"/><stop offset="0.61" stop-color="#6a8aff"/><stop offset="0.82" stop-color="#5c7dff"/><stop offset="1" stop-color="#5778ff"/></linearGradient><linearGradient id="Безымянный_градиент_28" x1="-228.46" y1="44.89" x2="-304.51" y2="105.87" gradientTransform="matrix(0.87, 0.5, -1, 0.58, 871.25, 503.22)" gradientUnits="userSpaceOnUse"><stop offset="0" stop-color="#c0d6ff"/><stop offset="0.3" stop-color="#c5dbff"/><stop offset="0.65" stop-color="#d3e9ff"/><stop offset="1" stop-color="#e9ffff"/></linearGradient><linearGradient id="Безымянный_градиент_19-2" x1="42.98" y1="685.04" x2="-40.68" y2="752.12" xlink:href="#Безымянный_градиент_19"/><linearGradient id="Безымянный_градиент_28-2" x1="-266.83" y1="581.39" x2="-342.88" y2="642.37" xlink:href="#Безымянный_градиент_28"/><linearGradient id="Безымянный_градиент_19-3" x1="624.79" y1="571.78" x2="541.13" y2="638.87" xlink:href="#Безымянный_градиент_19"/><linearGradient id="Безымянный_градиент_28-3" x1="-44.14" y1="192.42" x2="-120.2" y2="253.4" xlink:href="#Безымянный_градиент_28"/><linearGradient id="Безымянный_градиент_19-4" x1="310.82" y1="576.97" x2="227.16" y2="644.06" xlink:href="#Безымянный_градиент_19"/><linearGradient id="Безымянный_градиент_28-4" x1="-220.24" y1="353.89" x2="-296.29" y2="414.87" xlink:href="#Безымянный_градиент_28"/><linearGradient id="Безымянный_градиент_30" x1="-49.84" y1="23.05" x2="-8.54" y2="23.05" gradientTransform="matrix(0.87, 0.5, -1, 0.58, 505.92, 533.05)" gradientUnits="userSpaceOnUse"><stop offset="0" stop-color="#c0d6ff"/><stop offset="0.5" stop-color="#d2e8ff"/><stop offset="1" stop-color="#e9ffff"/></linearGradient><linearGradient id="Безымянный_градиент_28-5" x1="1021.51" y1="1211.18" x2="1062.81" y2="1211.18" gradientTransform="matrix(0.87, -0.5, 0, 1.15, -426.94, -255.91)" xlink:href="#Безымянный_градиент_28"/><linearGradient id="Безымянный_градиент_29" x1="945" y1="160.03" x2="1007.04" y2="160.03" gradientTransform="matrix(0.87, 0.5, 0, 1.15, -420.24, -59.79)" gradientUnits="userSpaceOnUse"><stop offset="0" stop-color="#5778ff"/><stop offset="0.18" stop-color="#5c7dff"/><stop offset="0.39" stop-color="#6a8aff"/><stop offset="0.61" stop-color="#82a0ff"/><stop offset="0.85" stop-color="#a3beff"/><stop offset="1" stop-color="#bcd5ff"/></linearGradient><linearGradient id="Безымянный_градиент_30-2" x1="-14.72" y1="100.42" x2="26.58" y2="100.42" xlink:href="#Безымянный_градиент_30"/><linearGradient id="Безымянный_градиент_28-6" x1="967.29" y1="1226.41" x2="1008.59" y2="1226.41" gradientTransform="matrix(0.87, -0.5, 0, 1.15, -426.94, -255.91)" xlink:href="#Безымянный_градиент_28"/><linearGradient id="Безымянный_градиент_29-2" x1="890.78" y1="222.22" x2="952.82" y2="222.22" xlink:href="#Безымянный_градиент_29"/><linearGradient id="Безымянный_градиент_30-3" x1="-4.29" y1="156.41" x2="37.01" y2="156.41" xlink:href="#Безымянный_градиент_30"/><linearGradient id="Безымянный_градиент_28-7" x1="913.07" y1="1230.96" x2="954.37" y2="1230.96" gradientTransform="matrix(0.87, -0.5, 0, 1.15, -426.94, -255.91)" xlink:href="#Безымянный_градиент_28"/><linearGradient id="Безымянный_градиент_29-3" x1="836.56" y1="273.72" x2="898.6" y2="273.72" xlink:href="#Безымянный_градиент_29"/><linearGradient id="Безымянный_градиент_30-4" x1="29.34" y1="232.49" x2="70.64" y2="232.49" xlink:href="#Безымянный_градиент_30"/><linearGradient id="Безымянный_градиент_28-8" x1="858.85" y1="1245.54" x2="900.15" y2="1245.54" gradientTransform="matrix(0.87, -0.5, 0, 1.15, -426.94, -255.91)" xlink:href="#Безымянный_градиент_28"/><linearGradient id="Безымянный_градиент_29-4" x1="782.33" y1="335.26" x2="844.38" y2="335.26" xlink:href="#Безымянный_градиент_29"/><linearGradient id="Безымянный_градиент_30-5" x1="21.33" y1="272.51" x2="62.63" y2="272.51" xlink:href="#Безымянный_градиент_30"/><linearGradient id="Безымянный_градиент_28-9" x1="804.63" y1="1242.1" x2="845.93" y2="1242.1" gradientTransform="matrix(0.87, -0.5, 0, 1.15, -426.94, -255.91)" xlink:href="#Безымянный_градиент_28"/><linearGradient id="Безымянный_градиент_29-5" x1="728.11" y1="378.78" x2="790.15" y2="378.78" xlink:href="#Безымянный_градиент_29"/><linearGradient id="Безымянный_градиент_30-6" x1="-80.97" y1="-3.91" x2="-39.67" y2="-3.91" xlink:href="#Безымянный_градиент_30"/><linearGradient id="Безымянный_градиент_28-10" x1="1021.51" y1="1167.75" x2="1062.81" y2="1167.75" gradientTransform="matrix(0.87, -0.5, 0, 1.15, -426.94, -255.91)" xlink:href="#Безымянный_градиент_28"/><linearGradient id="Безымянный_градиент_29-6" x1="945" y1="116.6" x2="1007.04" y2="116.6" xlink:href="#Безымянный_градиент_29"/><linearGradient id="Безымянный_градиент_30-7" x1="-45.86" y1="73.45" x2="-4.56" y2="73.45" xlink:href="#Безымянный_градиент_30"/><linearGradient id="Безымянный_градиент_29-7" x1="-38.31" y1="73.45" x2="-12.02" y2="73.45" gradientTransform="matrix(0.87, 0.5, -1, 0.58, 505.92, 533.05)" xlink:href="#Безымянный_градиент_29"/><linearGradient id="Безымянный_градиент_28-11" x1="967.29" y1="1182.98" x2="1008.59" y2="1182.98" gradientTransform="matrix(0.87, -0.5, 0, 1.15, -426.94, -255.91)" xlink:href="#Безымянный_градиент_28"/><linearGradient id="Безымянный_градиент_29-8" x1="890.78" y1="178.78" x2="952.82" y2="178.78" xlink:href="#Безымянный_градиент_29"/><linearGradient id="Безымянный_градиент_30-8" x1="-76.95" y1="46.53" x2="-35.65" y2="46.53" xlink:href="#Безымянный_градиент_30"/><linearGradient id="Безымянный_градиент_28-12" x1="967.29" y1="1125.4" x2="1008.59" y2="1125.4" gradientTransform="matrix(0.87, -0.5, 0, 1.15, -426.94, -255.91)" xlink:href="#Безымянный_градиент_28"/><linearGradient id="Безымянный_градиент_29-9" x1="890.78" y1="121.2" x2="952.82" y2="121.2" xlink:href="#Безымянный_градиент_29"/><linearGradient id="Безымянный_градиент_30-9" x1="-35.42" y1="129.45" x2="5.88" y2="129.45" xlink:href="#Безымянный_градиент_30"/><linearGradient id="Безымянный_градиент_28-13" x1="913.07" y1="1187.52" x2="954.37" y2="1187.52" gradientTransform="matrix(0.87, -0.5, 0, 1.15, -426.94, -255.91)" xlink:href="#Безымянный_градиент_28"/><linearGradient id="Безымянный_градиент_29-10" x1="836.56" y1="230.28" x2="898.6" y2="230.28" xlink:href="#Безымянный_градиент_29"/><linearGradient id="Безымянный_градиент_30-10" x1="-1.8" y1="205.52" x2="39.5" y2="205.52" xlink:href="#Безымянный_градиент_30"/><linearGradient id="Безымянный_градиент_28-14" x1="858.85" y1="1202.11" x2="900.15" y2="1202.11" gradientTransform="matrix(0.87, -0.5, 0, 1.15, -426.94, -255.91)" xlink:href="#Безымянный_градиент_28"/><linearGradient id="Безымянный_градиент_29-11" x1="782.33" y1="291.83" x2="844.38" y2="291.83" xlink:href="#Безымянный_градиент_29"/><linearGradient id="Безымянный_градиент_30-11" x1="-9.81" y1="245.54" x2="31.49" y2="245.54" xlink:href="#Безымянный_градиент_30"/><linearGradient id="Безымянный_градиент_28-15" x1="804.63" y1="1198.67" x2="845.93" y2="1198.67" gradientTransform="matrix(0.87, -0.5, 0, 1.15, -426.94, -255.91)" xlink:href="#Безымянный_градиент_28"/><linearGradient id="Безымянный_градиент_29-12" x1="728.11" y1="335.34" x2="790.15" y2="335.34" xlink:href="#Безымянный_градиент_29"/><linearGradient id="Безымянный_градиент_21" x1="-527.63" y1="554.66" x2="-516.55" y2="554.66" gradientTransform="matrix(-1, 0.06, 0.06, 1, -172.24, 16.43)" gradientUnits="userSpaceOnUse"><stop offset="0" stop-color="#5778ff"/><stop offset="0.07" stop-color="#5489ff"/><stop offset="0.28" stop-color="#4eb3ff"/><stop offset="0.48" stop-color="#49d4ff"/><stop offset="0.67" stop-color="#45ecff"/><stop offset="0.85" stop-color="#43faff"/><stop offset="1" stop-color="#42ffff"/></linearGradient><linearGradient id="Безымянный_градиент_21-2" x1="-511.97" y1="558.25" x2="-488.78" y2="558.25" xlink:href="#Безымянный_градиент_21"/><linearGradient id="Безымянный_градиент_21-3" x1="-522.62" y1="528.86" x2="-484.91" y2="528.86" xlink:href="#Безымянный_градиент_21"/></defs><title>main-banner360-02</title><g class="cls-2"><g class="cls-3"><rect class="cls-4" x="-660.99" y="-35" width="1739.52" height="1091.4"/><g class="cls-5"><path class="cls-6" d="M517.42,676.5a.75.75,0,0,1-.37-.1L371.32,592.26c-2.68-1.54-4.15-3.65-4.15-5.93s1.47-4.39,4.15-5.93l94.91-54.8c2.19-1.27,3.4-2.91,3.4-4.64s-1.21-3.37-3.4-4.64l-160.7-92.78c-4.84-2.8-12.72-2.8-17.56,0l-53.9,31.12c-2.19,1.27-3.4,2.92-3.4,4.64s1.21,3.37,3.4,4.64l80.12,46.26c2.68,1.54,4.15,3.65,4.15,5.93s-1.47,4.39-4.15,5.93L194.39,591.23c-5.25,3-13.8,3-19.05,0L95.79,545.3a.75.75,0,0,1,.75-1.29l79.55,45.93c4.84,2.8,12.72,2.8,17.56,0l119.8-69.16c2.19-1.27,3.4-2.91,3.4-4.64s-1.21-3.37-3.4-4.64l-80.12-46.26c-2.68-1.54-4.15-3.65-4.15-5.93s1.47-4.39,4.15-5.93l53.9-31.12c5.25-3,13.8-3,19.05,0L467,515c2.68,1.54,4.15,3.65,4.15,5.93s-1.47,4.39-4.15,5.93l-94.91,54.8c-2.2,1.27-3.4,2.92-3.4,4.64s1.21,3.37,3.4,4.64L517.8,675.11a.75.75,0,0,1-.37,1.39Z"/><path class="cls-6" d="M482.7,613.41a.75.75,0,0,1-.37-1.39l141.46-81.67c3-1.75,4.69-4,4.69-6.44s-1.67-4.69-4.69-6.44L488.11,439.14c-6.56-3.79-17.23-3.79-23.8,0L434,456.65a.75.75,0,1,1-.75-1.29l30.33-17.51c7-4,18.32-4,25.29,0l135.67,78.33c3.5,2,5.43,4.77,5.43,7.73s-1.93,5.71-5.43,7.73L483.07,613.31A.75.75,0,0,1,482.7,613.41Z"/><path class="cls-6" d="M145.85,839.4a22,22,0,0,1-10.73-2.56L-58.7,724.94c-3-1.73-4.65-4.08-4.65-6.63s1.65-4.9,4.65-6.63L7.41,673.52c5.92-3.42,15.54-3.42,21.46,0l122.27,70.59c5.5,3.18,14.46,3.18,20,0l165-95.24c2.51-1.45,3.9-3.35,3.9-5.33s-1.39-3.88-3.9-5.33l-48.74-28.14c-5.51-3.17-14.46-3.18-20,0l-95.5,55.14c-5.92,3.42-15.54,3.42-21.46,0L15,587a16.58,16.58,0,0,0-16.2-.16l-144.29,79.49a.74.74,0,0,1-1-.29.74.74,0,0,1,.29-1L-1.9,585.58a18.07,18.07,0,0,1,17.66.18l135.38,78.16c5.5,3.18,14.46,3.18,20,0l95.5-55.14c5.92-3.42,15.54-3.42,21.46,0l48.74,28.14c3,1.73,4.65,4.08,4.65,6.63s-1.65,4.9-4.65,6.63l-165,95.24c-5.92,3.42-15.54,3.42-21.46,0L28.12,674.81c-5.5-3.18-14.46-3.18-20,0L-58,713c-2.51,1.45-3.9,3.35-3.9,5.33s1.39,3.88,3.9,5.33l193.81,111.9c5.5,3.18,14.46,3.18,20,0l250.79-144.8a.75.75,0,0,1,.75,1.29l-250.8,144.8A21.93,21.93,0,0,1,145.85,839.4Z"/><path class="cls-6" d="M331.29,784a.75.75,0,0,1-.37-.1l-41.67-24.06a.75.75,0,1,1,.75-1.29l41.67,24.06a.75.75,0,0,1-.37,1.39Z"/><path class="cls-6" d="M217.34,519.28a.75.75,0,0,1-.37-1.39l54.89-31.69a.75.75,0,0,1,.75,1.29l-54.89,31.69A.75.75,0,0,1,217.34,519.28Z"/><path class="cls-6" d="M627.86,612.74a.75.75,0,0,1-.37-.1l-72-41.57a.75.75,0,1,1,.75-1.29l72,41.57a.75.75,0,0,1-.37,1.39Z"/><path class="cls-6" d="M217.89,533.24H193.17a.75.75,0,0,1-.75-.75V518.22a.75.75,0,0,1,.75-.75h24.72a.75.75,0,0,1,.75.75v14.27a.75.75,0,0,1-.75.75Zm-24-1.49h23.23V519H193.92Z"/><path class="cls-6" d="M513.4,502H488.68a.75.75,0,0,1-.75-.75V487a.75.75,0,0,1,.75-.75H513.4a.75.75,0,0,1,.75.75v14.27A.75.75,0,0,1,513.4,502Zm-24-1.49h23.23V487.71H489.43Z"/><path class="cls-6" d="M151.75,806.43a28.59,28.59,0,0,1-8.16-1.19c-6.73-2-10.76-5.81-10.76-10.18s4-8.18,10.76-10.18a28.53,28.53,0,0,1,16.33,0c6.73,2,10.76,5.81,10.76,10.18s-4,8.18-10.75,10.18A28.59,28.59,0,0,1,151.75,806.43Zm0-21.26A27.15,27.15,0,0,0,144,786.3c-6.07,1.8-9.69,5.08-9.69,8.75s3.62,6.95,9.69,8.75a27.1,27.1,0,0,0,15.47,0c6.07-1.81,9.69-5.08,9.69-8.75s-3.62-6.95-9.69-8.75h0A27.15,27.15,0,0,0,151.75,785.17Z"/><path class="cls-6" d="M105.56,779.76a28.59,28.59,0,0,1-8.16-1.19c-6.73-2-10.76-5.81-10.76-10.18s4-8.18,10.76-10.18a28.53,28.53,0,0,1,16.33,0h0c6.73,2,10.76,5.81,10.76,10.18s-4,8.18-10.75,10.18A28.59,28.59,0,0,1,105.56,779.76Zm0-21.26a27.13,27.13,0,0,0-7.74,1.13c-6.07,1.81-9.69,5.08-9.69,8.75s3.62,6.95,9.69,8.75a27.1,27.1,0,0,0,15.47,0c6.07-1.8,9.69-5.08,9.69-8.75s-3.62-6.95-9.69-8.75h0A27.16,27.16,0,0,0,105.56,758.5Z"/><path class="cls-6" d="M59.37,753.09a28.59,28.59,0,0,1-8.16-1.19c-6.73-2-10.76-5.81-10.76-10.18s4-8.18,10.76-10.18a28.53,28.53,0,0,1,16.33,0c6.73,2,10.75,5.81,10.75,10.18s-4,8.18-10.75,10.18A28.59,28.59,0,0,1,59.37,753.09Zm0-21.26A27.15,27.15,0,0,0,51.63,733c-6.07,1.8-9.69,5.08-9.69,8.75s3.62,6.95,9.69,8.75a27.1,27.1,0,0,0,15.47,0c6.07-1.8,9.69-5.08,9.69-8.75s-3.62-6.95-9.69-8.75h0A27.15,27.15,0,0,0,59.37,731.83Z"/><path class="cls-6" d="M13.18,726.42A28.63,28.63,0,0,1,5,725.23c-6.74-2-10.76-5.81-10.76-10.18s4-8.18,10.75-10.18a28.53,28.53,0,0,1,16.33,0c6.73,2,10.76,5.81,10.76,10.18s-4,8.18-10.75,10.18A28.63,28.63,0,0,1,13.18,726.42Zm0-21.26a27.15,27.15,0,0,0-7.74,1.13c-6.07,1.8-9.69,5.08-9.69,8.75S-.62,722,5.44,723.8a27.09,27.09,0,0,0,15.47,0C27,722,30.61,718.73,30.61,715s-3.62-6.95-9.69-8.75h0A27.15,27.15,0,0,0,13.18,705.17Z"/><path class="cls-6" d="M26,708.38a.75.75,0,0,1-.37-1.39l30.21-17.44a.75.75,0,1,1,.75,1.29L26.4,708.28A.75.75,0,0,1,26,708.38Z"/><path class="cls-6" d="M191.64,816.48a.74.74,0,0,1-.38-.1l-25-14.64a.75.75,0,0,1,.75-1.29l25,14.64a.75.75,0,0,1-.38,1.39Z"/><path class="cls-6" d="M356,798.24H331.29a.75.75,0,0,1-.75-.75V783.22a.75.75,0,0,1,.75-.75H356a.75.75,0,0,1,.75.75v14.27A.75.75,0,0,1,356,798.24Zm-24-1.49h23.23V784H332Z"/></g><polygon class="cls-7" points="-734.83 1011.16 815.73 178.19 721.17 -41.63 -734.83 -38.87 -734.83 1011.16"/><polygon class="cls-8" points="-746.37 1035.51 915.81 142.89 886 142.89 -746.37 1019.8 -746.37 1035.51"/><path class="cls-9" d="M564.77,463,514.91,434.2c-1.08-.62-.95-1.71.3-2.44l14.65-8.46,53.77,31L569,462.81A4.69,4.69,0,0,1,564.77,463Z"/><path class="cls-10" d="M635.64,423.81v-9.93H619.46l-35.9-20.73a3.82,3.82,0,0,0-3.44.14l-35.74,20.64h-16.1v10h0a1,1,0,0,0,.58.82l51.5,29.73a3.82,3.82,0,0,0,3.44-.14l51-29.45A1.45,1.45,0,0,0,635.64,423.81Z"/><path class="cls-11" d="M580.37,444.53l-51.5-29.73c-.88-.51-.77-1.4.25-2l51-29.45a3.82,3.82,0,0,1,3.44-.14L635.05,413c.88.51.77,1.4-.25,2l-51,29.45A3.82,3.82,0,0,1,580.37,444.53Z"/><path class="cls-12" d="M580.55,441,534.9,414.69c-.78-.45-.68-1.24.22-1.76l45.21-26.1a3.39,3.39,0,0,1,3-.13L629,413.06c.78.45.68,1.24-.22,1.76l-45.21,26.1A3.39,3.39,0,0,1,580.55,441Z"/><path class="cls-13" d="M580.66,438.84l-41.94-24.21c-.72-.41-.63-1.14.2-1.62l41.53-24a3.11,3.11,0,0,1,2.8-.12l41.94,24.21c.72.41.63,1.14-.2,1.62l-41.53,24A3.11,3.11,0,0,1,580.66,438.84Z"/><polygon class="cls-14" points="581 412.3 576.09 409.47 578.77 407.92 583.68 410.75 581 412.3"/><polygon class="cls-14" points="590.11 411.9 585.21 414.73 582.53 413.19 587.43 410.36 590.11 411.9"/><polygon class="cls-14" points="579.88 412.94 577.21 414.49 574.53 412.94 577.21 411.4 579.88 412.94"/><polygon class="cls-14" points="589.14 418.29 586.46 419.83 578.74 415.37 581.42 413.83 589.14 418.29"/><path class="cls-9" d="M-5,753.58l-49.86-28.78c-1.08-.62-.95-1.71.3-2.44l14.65-8.46,53.77,31L-.74,753.4A4.69,4.69,0,0,1-5,753.58Z"/><path class="cls-15" d="M65.91,714.4v-9.93H49.73l-35.9-20.73a3.82,3.82,0,0,0-3.44.14l-35.74,20.64h-16.1v10h0a1,1,0,0,0,.58.82l51.5,29.73a3.82,3.82,0,0,0,3.44-.14l51-29.45A1.45,1.45,0,0,0,65.91,714.4Z"/><path class="cls-16" d="M10.64,735.12l-51.5-29.73c-.88-.51-.77-1.4.25-2l51-29.45a3.82,3.82,0,0,1,3.44-.14l51.5,29.73c.88.51.77,1.4-.25,2L14.08,735A3.82,3.82,0,0,1,10.64,735.12Z"/><path class="cls-12" d="M10.82,731.64l-45.65-26.35c-.78-.45-.68-1.24.22-1.76l45.21-26.1a3.39,3.39,0,0,1,3-.13L59.3,703.65c.78.45.68,1.24-.22,1.76l-45.21,26.1A3.39,3.39,0,0,1,10.82,731.64Z"/><path class="cls-13" d="M10.94,729.43-31,705.22c-.72-.41-.63-1.14.2-1.62l41.53-24a3.11,3.11,0,0,1,2.8-.12l41.94,24.21c.72.41.63,1.14-.2,1.62l-41.53,24A3.11,3.11,0,0,1,10.94,729.43Z"/><polygon class="cls-14" points="11.27 702.89 6.37 700.06 9.05 698.51 13.95 701.35 11.27 702.89"/><polygon class="cls-14" points="20.39 702.49 15.48 705.32 12.81 703.78 17.71 700.95 20.39 702.49"/><polygon class="cls-14" points="10.16 703.53 7.48 705.08 4.8 703.53 7.48 701.99 10.16 703.53"/><polygon class="cls-14" points="19.41 708.88 16.74 710.42 9.02 705.97 11.69 704.42 19.41 708.88"/><path class="cls-9" d="M576.85,640.33,527,611.54c-1.08-.62-.95-1.71.3-2.44l14.65-8.46,53.77,31-14.65,8.46A4.69,4.69,0,0,1,576.85,640.33Z"/><path class="cls-17" d="M647.72,601.15v-9.93H631.54l-35.9-20.73a3.82,3.82,0,0,0-3.44.14l-35.74,20.64h-16.1v10h0a1,1,0,0,0,.58.82l51.5,29.73a3.82,3.82,0,0,0,3.44-.14l51-29.45A1.45,1.45,0,0,0,647.72,601.15Z"/><path class="cls-18" d="M592.45,621.87,541,592.14c-.88-.51-.77-1.4.25-2l51-29.45a3.82,3.82,0,0,1,3.44-.14l51.5,29.73c.88.51.77,1.4-.25,2l-51,29.45A3.82,3.82,0,0,1,592.45,621.87Z"/><path class="cls-12" d="M592.64,618.39,547,592c-.78-.45-.68-1.24.22-1.76l45.21-26.1a3.39,3.39,0,0,1,3-.13l45.65,26.35c.78.45.68,1.24-.22,1.76l-45.21,26.1A3.39,3.39,0,0,1,592.64,618.39Z"/><path class="cls-13" d="M592.75,616.18,550.81,592c-.72-.41-.63-1.14.2-1.62l41.53-24a3.11,3.11,0,0,1,2.8-.12l41.94,24.21c.72.41.63,1.14-.2,1.62l-41.53,24A3.11,3.11,0,0,1,592.75,616.18Z"/><polygon class="cls-14" points="593.08 589.64 588.18 586.81 590.86 585.26 595.76 588.1 593.08 589.64"/><polygon class="cls-14" points="602.2 589.24 597.29 592.07 594.62 590.53 599.52 587.7 602.2 589.24"/><polygon class="cls-14" points="591.97 590.28 589.29 591.83 586.62 590.28 589.29 588.74 591.97 590.28"/><polygon class="cls-14" points="601.23 595.63 598.55 597.17 590.83 592.72 593.5 591.17 601.23 595.63"/><path class="cls-9" d="M262.89,645.51,213,616.73c-1.08-.62-.95-1.72.3-2.44L228,605.84l53.77,31-14.65,8.46A4.69,4.69,0,0,1,262.89,645.51Z"/><path class="cls-19" d="M333.76,606.34V596.4H317.58l-35.9-20.73a3.82,3.82,0,0,0-3.44.14L242.5,596.47H226.4v10h0a1,1,0,0,0,.58.82L278.49,637a3.82,3.82,0,0,0,3.44-.14l51-29.45A1.45,1.45,0,0,0,333.76,606.34Z"/><path class="cls-20" d="M278.49,627.06,227,597.32c-.88-.51-.77-1.4.25-2l51-29.45a3.82,3.82,0,0,1,3.44-.14l51.5,29.73c.88.51.77,1.4-.25,2l-51,29.45A3.82,3.82,0,0,1,278.49,627.06Z"/><path class="cls-12" d="M278.67,623.57,233,597.22c-.78-.45-.68-1.24.22-1.76l45.21-26.1a3.39,3.39,0,0,1,3-.13l45.65,26.35c.78.45.68,1.24-.22,1.76l-45.21,26.1A3.39,3.39,0,0,1,278.67,623.57Z"/><path class="cls-13" d="M278.78,621.37l-41.94-24.21c-.72-.41-.63-1.14.2-1.62l41.53-24a3.11,3.11,0,0,1,2.8-.12l41.94,24.21c.72.41.63,1.14-.2,1.62l-41.53,24A3.11,3.11,0,0,1,278.78,621.37Z"/><polygon class="cls-14" points="279.12 594.83 274.21 592 276.89 590.45 281.8 593.28 279.12 594.83"/><polygon class="cls-14" points="288.23 594.43 283.33 597.26 280.65 595.71 285.55 592.88 288.23 594.43"/><polygon class="cls-14" points="278 595.47 275.33 597.02 272.65 595.47 275.33 593.92 278 595.47"/><polygon class="cls-14" points="287.26 600.81 284.58 602.36 276.86 597.9 279.54 596.35 287.26 600.81"/><g class="cls-5"><polygon class="cls-21" points="457.69 552.6 421.73 531.83 457.69 511.06 493.67 531.83 457.69 552.6"/><polygon class="cls-6" points="457.69 551.74 422.47 531.4 421.73 531.83 457.69 552.6 493.67 531.83 492.92 531.4 457.69 551.74"/><polygon class="cls-22" points="493.67 690.4 457.69 711.16 457.69 552.6 493.67 531.83 493.67 690.4"/><polygon class="cls-23" points="457.69 711.16 421.73 690.4 421.73 531.83 457.69 552.6 457.69 711.16"/><polygon class="cls-24" points="410.74 614.82 374.77 594.05 410.74 573.29 446.71 594.05 410.74 614.82"/><polygon class="cls-6" points="410.74 613.96 375.51 593.63 374.77 594.05 410.74 614.82 446.71 594.05 445.96 593.63 410.74 613.96"/><polygon class="cls-25" points="446.71 717.57 410.74 738.33 410.74 614.82 446.71 594.05 446.71 717.57"/><polygon class="cls-26" points="410.74 738.33 374.77 717.57 374.77 594.05 410.74 614.82 410.74 738.33"/><polygon class="cls-27" points="363.78 652.37 327.81 631.6 363.78 610.83 399.75 631.6 363.78 652.37"/><polygon class="cls-6" points="363.78 651.51 328.56 631.17 327.81 631.6 363.78 652.37 399.75 631.6 399.01 631.17 363.78 651.51"/><polygon class="cls-28" points="399.75 744.73 363.78 765.5 363.78 652.37 399.75 631.6 399.75 744.73"/><polygon class="cls-29" points="363.78 765.5 327.81 744.73 327.81 631.6 363.78 652.37 363.78 765.5"/><polygon class="cls-30" points="316.83 713.11 280.86 692.34 316.83 671.57 352.8 692.34 316.83 713.11"/><polygon class="cls-6" points="316.83 712.25 281.6 691.91 280.86 692.34 316.83 713.11 352.8 692.34 352.05 691.91 316.83 712.25"/><polygon class="cls-31" points="352.8 771.9 316.83 792.67 316.83 713.11 352.8 692.34 352.8 771.9"/><polygon class="cls-32" points="316.83 792.67 280.86 771.9 280.86 692.34 316.83 713.11 316.83 792.67"/><polygon class="cls-33" points="269.87 732.21 233.9 711.44 269.87 690.67 305.84 711.44 269.87 732.21"/><polygon class="cls-6" points="269.87 731.35 234.64 711.01 233.9 711.44 269.87 732.21 305.84 711.44 305.1 711.01 269.87 731.35"/><polygon class="cls-34" points="305.84 799.07 269.87 819.84 269.87 732.21 305.84 711.44 305.84 799.07"/><polygon class="cls-35" points="269.87 819.84 233.9 799.07 233.9 711.44 269.87 732.21 269.87 819.84"/></g><polygon class="cls-9" points="305.84 729.9 457.69 642 446.71 621.23 298.84 713.64 305.84 729.9"/><polygon class="cls-36" points="457.69 521.46 421.73 500.69 457.69 479.92 493.67 500.69 457.69 521.46"/><polygon class="cls-6" points="457.69 520.6 422.47 500.26 421.73 500.69 457.69 521.46 493.67 500.69 492.92 500.26 457.69 520.6"/><polygon class="cls-37" points="493.67 621.23 457.69 642 457.69 521.46 493.67 500.69 493.67 621.23"/><polygon class="cls-38" points="457.69 642 421.73 621.23 421.73 500.69 457.69 521.46 457.69 642"/><polygon class="cls-39" points="410.74 583.68 374.77 562.92 410.74 542.15 446.71 562.92 410.74 583.68"/><polygon class="cls-40" points="410.74 576.14 387.84 562.92 410.74 549.7 433.64 562.92 410.74 576.14"/><polygon class="cls-6" points="410.74 582.83 375.51 562.49 374.77 562.92 410.74 583.68 446.71 562.92 445.96 562.49 410.74 582.83"/><polygon class="cls-41" points="446.71 648.4 410.74 669.17 410.74 583.68 446.71 562.92 446.71 648.4"/><polygon class="cls-42" points="410.74 669.17 374.77 648.4 374.77 562.92 410.74 583.68 410.74 669.17"/><polygon class="cls-43" points="410.74 552.6 374.77 531.83 410.74 511.06 446.71 531.83 410.74 552.6"/><polygon class="cls-6" points="410.74 551.74 375.51 531.4 374.77 531.83 410.74 552.6 446.71 531.83 445.96 531.4 410.74 551.74"/><polygon class="cls-44" points="446.71 546.51 410.74 567.27 410.74 552.6 446.71 531.83 446.71 546.51"/><polygon class="cls-45" points="410.74 567.27 374.77 546.51 374.77 531.83 410.74 552.6 410.74 567.27"/><polygon class="cls-46" points="363.78 621.23 327.81 600.46 363.78 579.7 399.75 600.47 363.78 621.23"/><path class="cls-47" d="M363.77,608.78h0c-14.88,0-24.16-8.21-16.71-14.72h0c3.46-3,9.84-4.87,16.75-4.86h0c14.88,0,24.16,8.21,16.71,14.72h0C377.06,606.95,370.67,608.8,363.77,608.78Z"/><polygon class="cls-6" points="363.78 620.37 328.56 600.03 327.81 600.46 363.78 621.23 399.75 600.47 399.01 600.03 363.78 620.37"/><polygon class="cls-48" points="399.75 675.57 363.78 696.34 363.78 621.23 399.75 600.46 399.75 675.57"/><polygon class="cls-49" points="363.78 696.34 327.81 675.57 327.81 600.46 363.78 621.23 363.78 696.34"/><polygon class="cls-50" points="316.83 681.97 280.86 661.2 316.83 640.43 352.8 661.2 316.83 681.97"/><polygon class="cls-6" points="316.83 681.11 281.6 660.77 280.86 661.2 316.83 681.97 352.8 661.2 352.05 660.77 316.83 681.11"/><polygon class="cls-51" points="352.8 702.74 316.83 723.5 316.83 681.97 352.8 661.2 352.8 702.74"/><polygon class="cls-52" points="316.83 723.5 280.86 702.74 280.86 661.2 316.83 681.97 316.83 723.5"/><polygon class="cls-53" points="269.87 701.07 233.9 680.3 269.87 659.54 305.84 680.3 269.87 701.07"/><polygon class="cls-6" points="269.87 700.21 234.64 679.88 233.9 680.3 269.87 701.07 305.84 680.3 305.1 679.88 269.87 700.21"/><polygon class="cls-54" points="305.84 729.9 269.87 750.67 269.87 701.07 305.84 680.3 305.84 729.9"/><polygon class="cls-55" points="269.87 750.67 233.9 729.9 233.9 680.3 269.87 701.07 269.87 750.67"/><path class="cls-9" d="M379.91,534.8l17.19,9.92c13.65-4.78,23.53-12.05,22.06-16.24s-13.74-3.71-27.41,1.07A76.29,76.29,0,0,0,379.91,534.8Z"/><polygon class="cls-56" points="384.55 513.22 384.72 508.9 385.72 506.38 386.36 508.47 384.55 513.22"/><path class="cls-57" d="M429.83,514l.17-4.23s-3.58,3.57-3.58,3.66S429.83,514,429.83,514Z"/><path class="cls-57" d="M406.88,526.59c-12.5-.3-22.42-6.66-22.16-17.69s10.61-19.74,23.11-19.44S430.25,499,430,510,419.38,526.89,406.88,526.59Z"/><ellipse class="cls-57" cx="407.18" cy="513.76" rx="19.99" ry="22.64" transform="translate(-116.18 908.53) rotate(-88.63)"/><path class="cls-56" d="M391.39,499.36a18.81,18.81,0,0,0-6.84,13.86c-.26,11,9.66,20.23,22.16,20.53a24.18,24.18,0,0,0,16-5.36Z"/><ellipse class="cls-58" cx="407.18" cy="513.76" rx="19.1" ry="21.63" transform="translate(-116.18 908.53) rotate(-88.63)"/><ellipse class="cls-59" cx="407.18" cy="513.76" rx="15.33" ry="17.37" transform="matrix(0.02, -1, 1, 0.02, -116.17, 908.53)"/><path class="cls-57" d="M424.54,514.17c0-.35,0-.7,0-1-.8,8-8.47,14.09-17.66,13.87s-16.56-6.71-17-14.7c0,.34-.06.69-.07,1-.2,8.46,7.41,15.51,17,15.74S424.34,522.64,424.54,514.17Z"/><path class="cls-57" d="M410.51,515.05l-3.56-3.3c-3.43.78-9.82,2.23-14.93,3.43a14.55,14.55,0,0,0,8.41,8.64Z"/><path class="cls-57" d="M404.91,525c.57.07,1.14.11,1.73.13a16.65,16.65,0,0,0,10.88-3.59l-5.81-5.38Z"/><path class="cls-57" d="M403.13,508.21,396.43,502c-2.26,2-4.27,4.14-4.82,7Z"/><path class="cls-56" d="M406.64,500.26c9.59.23,17.2,7.28,17,15.74a13.69,13.69,0,0,1-1,4.88,13.82,13.82,0,0,0,1.94-6.71c.2-8.46-7.41-15.51-17-15.74-7.65-.18-14.24,4-16.7,10C393.8,503.45,399.8,500.1,406.64,500.26Z"/><path class="cls-56" d="M384.72,508.9a14.89,14.89,0,0,0,.19,4.37c.5-1.62,1.58-6.46,1.58-6.46l1.72-3.85,1.44-1.18,2.43-1.77.2-5.55A18.94,18.94,0,0,0,384.72,508.9Z"/><path class="cls-56" d="M428.53,508.34l.1-1.14a.29.29,0,0,1,.28-.29H429a.29.29,0,0,1,.27.3l-.1,1.14a.29.29,0,0,1-.28.29h-.09A.29.29,0,0,1,428.53,508.34Z"/><path class="cls-56" d="M426.54,504l.12-2a.33.33,0,0,1,.32-.33h.2a.33.33,0,0,1,.31.34l-.12,2a.33.33,0,0,1-.32.33h-.2A.33.33,0,0,1,426.54,504Z"/><path class="cls-56" d="M423.78,500.18l.12-2a.37.37,0,0,1,.37-.37h.35a.37.37,0,0,1,.35.39l-.12,2a.37.37,0,0,1-.37.37h-.35A.37.37,0,0,1,423.78,500.18Z"/><path class="cls-56" d="M419.66,497.11l.13-2.4a.37.37,0,0,1,.37-.37h.35a.37.37,0,0,1,.35.39l-.13,2.4a.37.37,0,0,1-.37.37H420A.37.37,0,0,1,419.66,497.11Z"/><path class="cls-56" d="M415.5,495.09l.13-2.77A.37.37,0,0,1,416,492h.35a.37.37,0,0,1,.35.39l-.13,2.77a.37.37,0,0,1-.37.37h-.35A.37.37,0,0,1,415.5,495.09Z"/><path class="cls-56" d="M411.33,493.86l.13-2.66a.37.37,0,0,1,.37-.37h.35a.37.37,0,0,1,.35.39l-.13,2.66a.37.37,0,0,1-.37.37h-.35A.37.37,0,0,1,411.33,493.86Z"/><path class="cls-56" d="M407.14,493.44l.13-2.7a.37.37,0,0,1,.37-.37H408a.37.37,0,0,1,.35.39l-.13,2.7a.37.37,0,0,1-.37.37h-.35A.37.37,0,0,1,407.14,493.44Z"/><path class="cls-56" d="M402.94,493.53l.13-2.53a.37.37,0,0,1,.37-.37h.35a.37.37,0,0,1,.35.39l-.13,2.53a.37.37,0,0,1-.37.37h-.35A.37.37,0,0,1,402.94,493.53Z"/><path class="cls-56" d="M398.71,494.45l.13-2.45a.37.37,0,0,1,.37-.37h.35a.37.37,0,0,1,.35.39l-.13,2.45a.37.37,0,0,1-.37.37h-.35A.37.37,0,0,1,398.71,494.45Z"/><path class="cls-56" d="M394.46,496.52l.13-2.65a.37.37,0,0,1,.37-.37h.35a.37.37,0,0,1,.35.39l-.13,2.65a.37.37,0,0,1-.37.37h-.35A.37.37,0,0,1,394.46,496.52Z"/><path class="cls-60" d="M373.31,585.64s.64.67,1.31,1.46a17.77,17.77,0,0,0,3.32,2.37c.79.49,4.39,3.22,5.14,5.91s-1.82,3-4.46,2.58-5.09-2.9-5.81-3.77a24.61,24.61,0,0,0-6.44-4.54c-3.23-1.67-1.28-3.92-1.28-3.92Z"/><path class="cls-60" d="M349.31,593.63a10,10,0,0,0-.68,2.77c-.15,1.56-.37,4.93-.45,5.91A8.34,8.34,0,0,0,349.8,608c1.74,2.31,2.63,3.22,4.94,2.31s2.26-4.78,1.85-6.77a55.22,55.22,0,0,1-.75-6.92,1.38,1.38,0,0,0-.13-.77Z"/><path class="cls-12" d="M381.27,539.94s-.49,17.76-4.63,27.19a68.55,68.55,0,0,0-3.36,18.18,3.53,3.53,0,0,1-.29,3.08c-1,1.38-7,2.65-8.05-1.89s-.62-13,.49-16.58-.39-13.31-.39-13.31-1.66,1.06-3.84,8.08a91.57,91.57,0,0,1-4.53,11.63c-.75,1.94-1.44,13.83-1,19.64,0,0-4.92.7-6.34-1.65s-1.9-14.52-1.54-18.4,2-16.31,1.76-20.15-1-7-.14-10.81,26.85-12.37,26.85-12.37Z"/><path class="cls-60" d="M349.59,555.74c-.22-3.85-1-7-.14-10.81.33-1.44,4.21-3.55,8.92-5.62,7.95-.73,18-1.57,18.72-1.46a26.11,26.11,0,0,1,3.63,1.27l.55.82s0,1.08-.14,2.84c-1.85.55-5.42,0-5.42,0a19.2,19.2,0,0,1-7.45,7.59c-3.85,1.91-15.12,1.26-15.77,2s-.77,10.45-.7,11.69-1.06,9-2.11,15.9.54,15,.59,15.26a2.78,2.78,0,0,1-.9-.89c-1.42-2.35-1.9-14.52-1.54-18.4S349.81,559.59,349.59,555.74Z"/><path class="cls-13" d="M372.58,481.85l7.7,1.77a1,1,0,0,1,.7.61,23.54,23.54,0,0,1,.91,12.24,60.91,60.91,0,0,0-.89,13.21l2.66,13.87s3.35,13.21,3.06,13.57-7.71,6-10,5.22-1.56-2.11-1.56-2.11-1.88,9.57-10.2,9.48-15.12-.07-16.53-3.43.39-17.5,1.85-23.1,5-16.76,5-16.76L343,492.94l10.41-8s2.49-4.62,3.51-5.21,1.56-.09,1.56-.09Z"/><path class="cls-61" d="M376.54,539.29c0,.48.27,1.2,1.77,1.71s5.57-1.85,8.17-3.66c-1.3,1.08-7.67,5.73-9.8,5a3.79,3.79,0,0,1-1-.52A17,17,0,0,0,376.54,539.29Z"/><path class="cls-62" d="M348.46,545.16c1.49,3.55,8.66,3.52,17.44,3.62a9.39,9.39,0,0,0,5.46-1.57,8.87,8.87,0,0,1-6.43,2.51c-8.32-.09-15.12-.07-16.53-3.43a17.57,17.57,0,0,1-.48-6.12A14.71,14.71,0,0,0,348.46,545.16Z"/><path class="cls-63" d="M357.17,479.66s-2.13,2.57.93,6A82.92,82.92,0,0,1,366,497.25c1.73,3,3.32,4.59,4.22,7.16,0,0,.13-3.05.25-7.77.11-4.45.17-9.07,0-10.24C370,484,359.52,478.49,357.17,479.66Z"/><path class="cls-64" d="M365.13,487.4s1.09.68,1.47.62,1.58-1.23,1.58-1.23,3-.05,3.35-1.35a28.07,28.07,0,0,1,.85-3.27A21,21,0,0,0,374,477c0-1.31,0-3.65.53-4.89s1.33-13.63-10.64-13.29-8.25,12.78-8.25,12.78-.87.37-.35,2,.65,1.77.92,2.56a3.54,3.54,0,0,0,1.16,1.95l.2,1.47a5.92,5.92,0,0,0,.92,4.44C360,486.15,365.13,487.4,365.13,487.4Z"/><path class="cls-12" d="M380.61,483.76s1.28.19,5.42,10.61c2.31,5.81,5.88,11.83,6.63,16.15s.33,8.94-.52,9.26-15.7,5.88-20.36,7.64a.44.44,0,0,1-.59-.33l-1.28-7.19,9.23-3.57a13.22,13.22,0,0,1,3.41-3S380.7,510,380.82,509s-.16-10.57.92-14.49S380.61,483.76,380.61,483.76Z"/><path class="cls-64" d="M375.2,511.3a18.5,18.5,0,0,1,1.59-1c.31-.12,2-.7,2.34-.85a6.41,6.41,0,0,1,1.73,0,.54.54,0,0,1,.42.28c.39.73,1.49,2.85,1.36,3.66,0,0-3.07,1.94-3.42,2.81l-.49.11S376.67,511.93,375.2,511.3Z"/><path class="cls-12" d="M350.25,523.18c.35-1.35.82-3,1.33-4.77l18.7,8a19.72,19.72,0,0,1-15.41,6.44,12.89,12.89,0,0,1-6.08-1.92A74.57,74.57,0,0,1,350.25,523.18Z"/><path class="cls-12" d="M343,492.94s4.93.68,8.92,7a95.59,95.59,0,0,1,6.89,13.62l.14.82a3.33,3.33,0,0,0,4.64,2.49c4.21-1.88,10.44-4.72,11.6-5.57a10.72,10.72,0,0,1,4.74,6.93c.81,3.88.6,3.89.6,3.89s-16.61,7.75-23,7.67S343,508.63,342.08,504.27,340.2,494.17,343,492.94Z"/><path class="cls-65" d="M343,492.94s4.93.68,8.92,7a95.59,95.59,0,0,1,6.89,13.62l.14.82a3.33,3.33,0,0,0,4.64,2.49c4.21-1.88,10.44-4.72,11.6-5.57a10.72,10.72,0,0,1,4.74,6.93c.81,3.88.6,3.89.6,3.89s-16.61,7.75-23,7.67S343,508.63,342.08,504.27,340.2,494.17,343,492.94Z"/><path class="cls-13" d="M361.21,517.85s-2.09,2-3,.89-.64-1.19-.64-1.19-1.88,0-2.11-1.2-1.16-.56-1.21-1.87,1.53-1,1.53-1Z"/><path class="cls-64" d="M363.74,516.8s-.58-.54-1.32-1.16-1.94-3.23-2.15-3.46-2.71-2.15-3.92-2.18-.31,1.32,0,1.51,1.46.78,1.46.78,1.21,1,1.35,1.17-3.37-.24-3.93.1a1,1,0,0,0,0,1.48,1.37,1.37,0,0,0,.69.24,1.22,1.22,0,0,0,.66,1.55c1.05.49,1.3.22,1.3.22s.09,1.83,1.83,1.46Z"/><path class="cls-66" d="M374.8,465.74s1.56,5-2.55,3.56-7.83-3.78-9.13-2.88c-1,.69-.94,2.79-.86,3.76a1.43,1.43,0,0,1-.25.93l-1.22,1.77a1.36,1.36,0,0,0-.24.68l-.09,1.23a.62.62,0,0,1-.58.57l-.28,0a.62.62,0,0,1-.64-.51l-.32-1.81s-1-2.44-3-1.48c0,0-1.37-1.84-.91-5.77s2.22-8,9.93-8.67S374.8,465.74,374.8,465.74Z"/><path class="cls-67" d="M363,491.78l1.15-.9a6.23,6.23,0,0,1,1.48,1.83c.42.94,0,3.93,0,3.93l.35.61.43-.79.37-3.54s-.39-2.61-.43-2.68-2.23.23-2.23.23A4.53,4.53,0,0,0,363,491.78Z"/><path class="cls-67" d="M368.56,488.26a3.92,3.92,0,0,1,1.79.54s-1.29.06-1.5.09S368.56,488.26,368.56,488.26Z"/><path class="cls-12" d="M366.21,488.54l-2.07,1.93a4.7,4.7,0,0,1,2.32,2.46s2.25.42,2.46-.4,0-2.87.26-3.78S366.21,488.54,366.21,488.54Z"/><path class="cls-12" d="M368.84,492.49a11.47,11.47,0,0,0,.8,2.39c.42.7.85,1.48.85,1.48l-.05,9.93s-3.65-7.53-4.45-9.05a23,23,0,0,1,.47-4.31C366.81,492.25,368.84,492.49,368.84,492.49Z"/><path class="cls-68" d="M359,477.81a15.14,15.14,0,0,0,9.15,9S367,488,366.6,488s-1.47-.62-1.47-.62-5.15-1.25-6.64-3.44a5.92,5.92,0,0,1-.92-4.44l-.2-1.47A1.63,1.63,0,0,0,359,477.81Z"/><path class="cls-12" d="M353.54,485.92s.95,3.27,1.07,3.39a14.59,14.59,0,0,0,2.38-.14l-1.1,2.08s11.36,12.19,13.72,18.74a139,139,0,0,0-14.84-18.23l1.34-2-2.32.45Z"/><path class="cls-12" d="M372.2,483l.6.69-.71.66,2.1,1.9s.64,13.33-1.92,22.16c0,0,3.48-8.1,2.69-22.53l-2.27-1.54.74-.73Z"/><path class="cls-60" d="M365,556.61l-.08.06,2.94-3.13c-1.36,1.92.21,10.69.37,12.7s-1.57,6.16-2.22,11,.68,11.78.68,11.8a3.75,3.75,0,0,1-1.79-2.56c-1-4.54-.62-13,.49-16.58S365,556.61,365,556.61Z"/><path class="cls-69" d="M357.53,529.79c-6.41-.08-14.55-21.16-15.44-25.52-.15-.73-.3-1.49-.44-2.27,0,.06,1.68,4.62,3.29,8.65S355.12,527,359.5,527.84c3.95.72,18.16-5.91,20.91-7.22.25,1.48.14,1.49.14,1.49S363.94,529.86,357.53,529.79Z"/><path class="cls-70" d="M359.61,475.37a.62.62,0,0,1-.64-.51l-.32-1.81s-1-2.44-3-1.48c0,0-1.29-1.75-.94-5.46,2.27,3.41,7.32,5,7.32,5l-1.22,1.77a1.36,1.36,0,0,0-.24.68l-.09,1.23a.62.62,0,0,1-.58.57Z"/><ellipse class="cls-9" cx="90.82" cy="774.74" rx="26.23" ry="8.04" transform="translate(-250.81 73.48) rotate(-19.29)"/><polygon class="cls-56" points="80.96 750.82 81.13 746.5 82.13 743.98 82.77 746.07 80.96 750.82"/><path class="cls-57" d="M126.24,751.64l.17-4.23s-3.58,3.57-3.58,3.66S126.24,751.64,126.24,751.64Z"/><path class="cls-57" d="M103.29,764.2c-12.5-.3-22.42-6.66-22.16-17.69s10.61-19.74,23.11-19.44,22.42,9.49,22.16,20.53S115.79,764.5,103.29,764.2Z"/><ellipse class="cls-57" cx="103.59" cy="751.36" rx="19.99" ry="22.64" transform="translate(-650.03 836.94) rotate(-88.63)"/><path class="cls-56" d="M87.79,737A18.81,18.81,0,0,0,81,750.82c-.26,11,9.66,20.23,22.16,20.53a24.18,24.18,0,0,0,16-5.36Z"/><ellipse class="cls-58" cx="103.59" cy="751.36" rx="19.1" ry="21.63" transform="translate(-650.03 836.94) rotate(-88.63)"/><ellipse class="cls-59" cx="103.59" cy="751.36" rx="15.33" ry="17.37" transform="translate(-650.03 836.93) rotate(-88.63)"/><path class="cls-57" d="M121,751.78c0-.35,0-.7,0-1-.8,8-8.47,14.09-17.66,13.87s-16.56-6.71-17-14.7c0,.34-.06.69-.07,1-.2,8.46,7.41,15.51,17,15.74S120.75,760.24,121,751.78Z"/><path class="cls-57" d="M106.92,752.65l-3.56-3.3c-3.43.78-9.82,2.23-14.93,3.43a14.55,14.55,0,0,0,8.41,8.64Z"/><path class="cls-57" d="M101.32,762.6c.57.07,1.14.11,1.73.13a16.65,16.65,0,0,0,10.88-3.59l-5.81-5.38Z"/><path class="cls-57" d="M99.54,745.82l-6.71-6.21c-2.26,2-4.27,4.14-4.82,7Z"/><path class="cls-56" d="M103.05,737.87c9.59.23,17.2,7.28,17,15.74a13.68,13.68,0,0,1-1,4.88,13.82,13.82,0,0,0,1.94-6.71c.2-8.46-7.41-15.51-17-15.74-7.65-.18-14.24,4-16.7,10C90.21,741.06,96.21,737.7,103.05,737.87Z"/><path class="cls-56" d="M81.13,746.5a14.89,14.89,0,0,0,.19,4.37c.5-1.62,1.58-6.46,1.58-6.46l1.72-3.85,1.44-1.18,2.43-1.77.2-5.55A18.94,18.94,0,0,0,81.13,746.5Z"/><path class="cls-56" d="M124.94,745.94l.1-1.14a.29.29,0,0,1,.28-.29h.09a.29.29,0,0,1,.27.3l-.1,1.14a.29.29,0,0,1-.28.29h-.09A.29.29,0,0,1,124.94,745.94Z"/><path class="cls-56" d="M122.95,741.58l.12-2a.33.33,0,0,1,.32-.33h.2a.33.33,0,0,1,.31.34l-.12,2a.33.33,0,0,1-.32.33h-.2A.33.33,0,0,1,122.95,741.58Z"/><path class="cls-56" d="M120.19,737.78l.12-2a.37.37,0,0,1,.37-.37H121a.37.37,0,0,1,.35.39l-.12,2a.37.37,0,0,1-.37.37h-.35A.37.37,0,0,1,120.19,737.78Z"/><path class="cls-56" d="M116.06,734.71l.13-2.4a.37.37,0,0,1,.37-.37h.35a.37.37,0,0,1,.35.39l-.13,2.4a.37.37,0,0,1-.37.37h-.35A.37.37,0,0,1,116.06,734.71Z"/><path class="cls-56" d="M111.91,732.69l.13-2.77a.37.37,0,0,1,.37-.37h.35a.37.37,0,0,1,.35.39l-.13,2.77a.37.37,0,0,1-.37.37h-.35A.37.37,0,0,1,111.91,732.69Z"/><path class="cls-56" d="M107.74,731.47l.13-2.66a.37.37,0,0,1,.37-.37h.35a.37.37,0,0,1,.35.39l-.13,2.66a.37.37,0,0,1-.37.37h-.35A.37.37,0,0,1,107.74,731.47Z"/><path class="cls-56" d="M103.55,731l.13-2.7A.37.37,0,0,1,104,728h.35a.37.37,0,0,1,.35.39l-.13,2.7a.37.37,0,0,1-.37.37h-.35A.37.37,0,0,1,103.55,731Z"/><path class="cls-56" d="M99.35,731.14l.13-2.53a.37.37,0,0,1,.37-.37h.35a.37.37,0,0,1,.35.39l-.13,2.53a.37.37,0,0,1-.37.37h-.35A.37.37,0,0,1,99.35,731.14Z"/><path class="cls-56" d="M95.12,732.06l.13-2.45a.37.37,0,0,1,.37-.37H96a.37.37,0,0,1,.35.39l-.13,2.45a.37.37,0,0,1-.37.37h-.35A.37.37,0,0,1,95.12,732.06Z"/><path class="cls-56" d="M90.87,734.12l.13-2.65a.37.37,0,0,1,.37-.37h.35a.37.37,0,0,1,.35.39l-.13,2.65a.37.37,0,0,1-.37.37h-.35A.37.37,0,0,1,90.87,734.12Z"/><ellipse class="cls-9" cx="434.37" cy="743.87" rx="26.23" ry="8.05" transform="translate(-221.33 185.23) rotate(-19.29)"/><polygon class="cls-56" points="424.5 719.95 424.68 715.64 425.68 713.11 426.32 715.2 424.5 719.95"/><path class="cls-57" d="M469.78,720.77l.17-4.23s-3.58,3.57-3.58,3.66S469.78,720.77,469.78,720.77Z"/><path class="cls-57" d="M446.83,733.33c-12.5-.3-22.42-6.66-22.16-17.69s10.61-19.74,23.11-19.44,22.42,9.49,22.16,20.53S459.34,733.63,446.83,733.33Z"/><ellipse class="cls-57" cx="447.14" cy="720.49" rx="19.99" ry="22.64" transform="translate(-283.85 1150.26) rotate(-88.63)"/><path class="cls-56" d="M431.34,706.09a18.81,18.81,0,0,0-6.84,13.86c-.26,11,9.66,20.23,22.16,20.53a24.18,24.18,0,0,0,16-5.36Z"/><ellipse class="cls-58" cx="447.14" cy="720.49" rx="19.1" ry="21.63" transform="translate(-283.85 1150.26) rotate(-88.63)"/><ellipse class="cls-59" cx="447.14" cy="720.49" rx="15.33" ry="17.37" transform="translate(-283.85 1150.26) rotate(-88.63)"/><path class="cls-57" d="M464.5,720.91c0-.35,0-.7,0-1-.8,8-8.47,14.09-17.66,13.87s-16.56-6.71-17-14.7c0,.34-.06.69-.07,1-.2,8.46,7.41,15.51,17,15.74S464.3,729.37,464.5,720.91Z"/><path class="cls-57" d="M450.47,721.78l-3.56-3.3c-3.43.78-9.82,2.23-14.93,3.43a14.55,14.55,0,0,0,8.41,8.64Z"/><path class="cls-57" d="M444.87,731.73c.57.07,1.14.11,1.73.13a16.65,16.65,0,0,0,10.88-3.59l-5.81-5.38Z"/><path class="cls-57" d="M443.09,714.95l-6.71-6.21c-2.26,2-4.27,4.14-4.82,7Z"/><path class="cls-56" d="M446.6,707c9.59.23,17.2,7.28,17,15.74a13.69,13.69,0,0,1-1,4.88,13.82,13.82,0,0,0,1.94-6.71c.2-8.46-7.41-15.51-17-15.74-7.65-.18-14.24,4-16.7,10C433.76,710.19,439.76,706.83,446.6,707Z"/><path class="cls-56" d="M424.68,715.64a14.89,14.89,0,0,0,.19,4.37c.5-1.62,1.58-6.46,1.58-6.46l1.72-3.85,1.44-1.18,2.43-1.77.2-5.55A18.94,18.94,0,0,0,424.68,715.64Z"/><path class="cls-56" d="M468.49,715.07l.1-1.14a.29.29,0,0,1,.28-.29H469a.29.29,0,0,1,.27.3l-.1,1.14a.29.29,0,0,1-.28.29h-.09A.29.29,0,0,1,468.49,715.07Z"/><path class="cls-56" d="M466.5,710.71l.12-2a.33.33,0,0,1,.32-.33h.2a.33.33,0,0,1,.31.34l-.12,2a.33.33,0,0,1-.32.33h-.2A.33.33,0,0,1,466.5,710.71Z"/><path class="cls-56" d="M463.74,706.91l.12-2a.37.37,0,0,1,.37-.37h.35a.37.37,0,0,1,.35.39l-.12,2a.37.37,0,0,1-.37.37h-.35A.37.37,0,0,1,463.74,706.91Z"/><path class="cls-56" d="M459.61,703.84l.13-2.4a.37.37,0,0,1,.37-.37h.35a.37.37,0,0,1,.35.39l-.13,2.4a.37.37,0,0,1-.37.37H460A.37.37,0,0,1,459.61,703.84Z"/><path class="cls-56" d="M455.46,701.83l.13-2.77a.37.37,0,0,1,.37-.37h.35a.37.37,0,0,1,.35.39l-.13,2.77a.37.37,0,0,1-.37.37h-.35A.37.37,0,0,1,455.46,701.83Z"/><path class="cls-56" d="M451.29,700.6l.13-2.66a.37.37,0,0,1,.37-.37h.35a.37.37,0,0,1,.35.39l-.13,2.66a.37.37,0,0,1-.37.37h-.35A.37.37,0,0,1,451.29,700.6Z"/><path class="cls-56" d="M447.1,700.18l.13-2.7a.37.37,0,0,1,.37-.37h.35a.37.37,0,0,1,.35.39l-.13,2.7a.37.37,0,0,1-.37.37h-.35A.37.37,0,0,1,447.1,700.18Z"/><path class="cls-56" d="M442.89,700.27l.13-2.53a.37.37,0,0,1,.37-.37h.35a.37.37,0,0,1,.35.39l-.13,2.53a.37.37,0,0,1-.37.37h-.35A.37.37,0,0,1,442.89,700.27Z"/><path class="cls-56" d="M438.67,701.19l.13-2.45a.37.37,0,0,1,.37-.37h.35a.37.37,0,0,1,.35.39l-.13,2.45a.37.37,0,0,1-.37.37H439A.37.37,0,0,1,438.67,701.19Z"/><path class="cls-56" d="M434.42,703.25l.13-2.65a.37.37,0,0,1,.37-.37h.35a.37.37,0,0,1,.35.39l-.13,2.65a.37.37,0,0,1-.37.37h-.35A.37.37,0,0,1,434.42,703.25Z"/><polygon class="cls-9" points="269.87 750.67 222.83 777.81 187.62 756.56 233.9 729.9 269.87 750.67"/></g></g></svg>