<?xml version="1.0" encoding="utf-8"?>
<!-- Generator: Adobe Illustrator 21.0.0, SVG Export Plug-In . SVG Version: 6.00 Build 0)  -->
<svg version="1.1" id="Слой_1" xmlns="http://www.w3.org/2000/svg" xmlns:xlink="http://www.w3.org/1999/xlink" x="0px" y="0px"
	 viewBox="0 0 1920 750" style="enable-background:new 0 0 1920 750;" xml:space="preserve">
<style type="text/css">
	.st0{clip-path:url(#SVGID_2_);}
	.st1{fill:url(#SVGID_3_);}
	.st2{opacity:0.3;}
	.st3{fill:#FFFFFF;}
	.st4{opacity:0.2;fill:#33ADFF;}
	.st5{opacity:0.13;fill:url(#SVGID_4_);}
	.st6{opacity:0.5;fill:#242993;}
	.st7{fill:url(#SVGID_5_);}
	.st8{fill:url(#SVGID_6_);}
	.st9{fill:#242993;}
	.st10{fill:#4553C7;}
	.st11{fill:#42FFFF;}
	.st12{fill:url(#SVGID_7_);}
	.st13{fill:url(#SVGID_8_);}
	.st14{fill:url(#SVGID_9_);}
	.st15{fill:url(#SVGID_10_);}
	.st16{fill:url(#SVGID_11_);}
	.st17{fill:url(#SVGID_12_);}
	.st18{fill:url(#SVGID_13_);}
	.st19{fill:url(#SVGID_14_);}
	.st20{fill:url(#SVGID_15_);}
	.st21{fill:url(#SVGID_16_);}
	.st22{fill:url(#SVGID_17_);}
	.st23{fill:url(#SVGID_18_);}
	.st24{fill:url(#SVGID_19_);}
	.st25{fill:url(#SVGID_20_);}
	.st26{fill:url(#SVGID_21_);}
	.st27{fill:url(#SVGID_22_);}
	.st28{fill:url(#SVGID_23_);}
	.st29{fill:url(#SVGID_24_);}
	.st30{fill:url(#SVGID_25_);}
	.st31{fill:url(#SVGID_26_);}
	.st32{fill:url(#SVGID_27_);}
	.st33{fill:url(#SVGID_28_);}
	.st34{fill:url(#SVGID_29_);}
	.st35{fill:url(#SVGID_30_);}
	.st36{fill:url(#SVGID_31_);}
	.st37{opacity:0.3;fill:url(#SVGID_32_);}
	.st38{fill:url(#SVGID_33_);}
	.st39{fill:url(#SVGID_34_);}
	.st40{fill:url(#SVGID_35_);}
	.st41{fill:url(#SVGID_36_);}
	.st42{fill:url(#SVGID_37_);}
	.st43{fill:url(#SVGID_38_);}
	.st44{opacity:0.2;fill:#3045BC;}
	.st45{fill:url(#SVGID_39_);}
	.st46{fill:url(#SVGID_40_);}
	.st47{fill:url(#SVGID_41_);}
	.st48{fill:url(#SVGID_42_);}
	.st49{fill:url(#SVGID_43_);}
	.st50{fill:url(#SVGID_44_);}
	.st51{fill:url(#SVGID_45_);}
	.st52{fill:url(#SVGID_46_);}
	.st53{fill:#DD821F;}
	.st54{fill:#FFD85A;}
	.st55{fill:#F9BF30;}
	.st56{fill:#F2B42A;}
	.st57{fill:#162184;}
	.st58{fill:url(#SVGID_47_);}
	.st59{fill:url(#SVGID_48_);}
	.st60{fill:#F0FFFF;}
	.st61{fill:#FCE8EE;}
	.st62{fill:#485DCE;}
	.st63{fill:#AA9AAC;}
	.st64{fill:#C4E3FF;}
	.st65{fill:#E2C8CF;}
	.st66{fill:url(#SVGID_49_);}
	.st67{fill:#938496;}
</style>
<g>
	<defs>
		<rect id="SVGID_1_" x="-15.5" y="-18.5" width="1952" height="790.5"/>
	</defs>
	<clipPath id="SVGID_2_">
		<use xlink:href="#SVGID_1_"  style="overflow:visible;"/>
	</clipPath>
	<g class="st0">
		<linearGradient id="SVGID_3_" gradientUnits="userSpaceOnUse" x1="1941.6704" y1="-273.9229" x2="-387.9596" y2="1594.179">
			<stop  offset="0" style="stop-color:#4482CC"/>
			<stop  offset="3.720858e-02" style="stop-color:#447ECC"/>
			<stop  offset="0.4677" style="stop-color:#4553C7"/>
			<stop  offset="0.5964" style="stop-color:#3B44BC"/>
			<stop  offset="0.8439" style="stop-color:#2B2DAB"/>
			<stop  offset="1" style="stop-color:#2525A5"/>
		</linearGradient>
		<rect x="-54.5" y="-172.3" class="st1" width="2282.4" height="1168"/>
		<g class="st2">
			<path class="st3" d="M1491.7,497.2c-0.2,0-0.3,0-0.5-0.1L1300,386.7c-3.5-2-5.4-4.8-5.4-7.8c0-3,1.9-5.8,5.4-7.8l124.5-71.9
				c2.9-1.7,4.5-3.8,4.5-6.1c0-2.3-1.6-4.4-4.5-6.1l-210.9-121.7c-6.4-3.7-16.7-3.7-23,0l-70.7,40.8c-2.9,1.7-4.5,3.8-4.5,6.1
				c0,2.3,1.6,4.4,4.5,6.1L1225,279c3.5,2,5.4,4.8,5.4,7.8c0,3-1.9,5.8-5.4,7.8l-157.2,90.7c-6.9,4-18.1,4-25,0l-104.4-60.3
				c-0.5-0.3-0.6-0.9-0.4-1.3c0.3-0.5,0.9-0.6,1.3-0.4l104.4,60.3c6.4,3.7,16.7,3.7,23,0l157.2-90.7c2.9-1.7,4.5-3.8,4.5-6.1
				c0-2.3-1.6-4.4-4.5-6.1L1118.9,220c-3.5-2-5.4-4.8-5.4-7.8c0-3,1.9-5.8,5.4-7.8l70.7-40.8c6.9-4,18.1-4,25,0l210.9,121.7
				c3.5,2,5.4,4.8,5.4,7.8c0,3-1.9,5.8-5.4,7.8l-124.5,71.9c-2.9,1.7-4.5,3.8-4.5,6.1c0,2.3,1.6,4.4,4.5,6.1l191.2,110.4
				c0.5,0.3,0.6,0.9,0.4,1.3C1492.3,497,1492,497.2,1491.7,497.2z"/>
			<path class="st3" d="M1446.1,414.4c-0.3,0-0.7-0.2-0.8-0.5c-0.3-0.5-0.1-1.1,0.4-1.3l185.6-107.2c4-2.3,6.2-5.3,6.2-8.4
				c0-3.2-2.2-6.2-6.2-8.4l-178-102.8c-8.6-5-22.6-5-31.2,0l-39.8,23c-0.5,0.3-1.1,0.1-1.3-0.4c-0.3-0.5-0.1-1.1,0.4-1.3l39.8-23
				c9.1-5.3,24-5.3,33.2,0l178,102.8c4.6,2.7,7.1,6.3,7.1,10.1c0,3.9-2.5,7.5-7.1,10.1l-185.6,107.2
				C1446.4,414.4,1446.3,414.4,1446.1,414.4z"/>
			<path class="st3" d="M1004.1,710.9c-5.1,0-10.2-1.1-14.1-3.4L735.8,560.8c-3.9-2.3-6.1-5.4-6.1-8.7s2.2-6.4,6.1-8.7l86.7-50.1
				c7.8-4.5,20.4-4.5,28.2,0l160.4,92.6c7.2,4.2,19,4.2,26.2,0l216.4-125c3.3-1.9,5.1-4.4,5.1-7s-1.8-5.1-5.1-7l-64-36.9
				c-7.2-4.2-19-4.2-26.2,0l-125.3,72.3c-7.8,4.5-20.4,4.5-28.2,0L832.5,379.8c-6.5-3.8-14.7-3.8-21.3-0.2L621.9,483.9
				c-0.5,0.3-1.1,0.1-1.3-0.4c-0.3-0.5-0.1-1.1,0.4-1.3l189.3-104.3c7.2-4,16.1-3.9,23.2,0.2l177.6,102.5c7.2,4.2,19,4.2,26.2,0
				l125.3-72.3c7.8-4.5,20.4-4.5,28.2,0l64,36.9c3.9,2.3,6.1,5.4,6.1,8.7s-2.2,6.4-6.1,8.7l-216.4,125c-7.8,4.5-20.4,4.5-28.2,0
				L849.7,495c-7.2-4.2-19-4.2-26.2,0l-86.7,50.1c-3.3,1.9-5.1,4.4-5.1,7s1.8,5.1,5.1,7L991,705.9c7.2,4.2,19,4.2,26.2,0l329.1-190
				c0.5-0.3,1.1-0.1,1.3,0.4c0.3,0.5,0.1,1.1-0.4,1.3l-329.1,190C1014.3,709.8,1009.2,710.9,1004.1,710.9z"/>
			<path class="st3" d="M1247.4,638.2c-0.2,0-0.3,0-0.5-0.1l-54.7-31.6c-0.5-0.3-0.6-0.9-0.4-1.3c0.3-0.5,0.9-0.6,1.3-0.4l54.7,31.6
				c0.5,0.3,0.6,0.9,0.4,1.3C1248.1,638,1247.8,638.2,1247.4,638.2z"/>
			<path class="st3" d="M1097.9,290.9c-0.3,0-0.7-0.2-0.8-0.5c-0.3-0.5-0.1-1.1,0.4-1.3l72-41.6c0.5-0.3,1.1-0.1,1.3,0.4
				c0.3,0.5,0.1,1.1-0.4,1.3l-72,41.6C1098.3,290.9,1098.1,290.9,1097.9,290.9z"/>
			<path class="st3" d="M1636.6,413.6c-0.2,0-0.3,0-0.5-0.1l-94.5-54.5c-0.5-0.3-0.6-0.9-0.4-1.3c0.3-0.5,0.9-0.6,1.3-0.4l94.5,54.5
				c0.5,0.3,0.6,0.9,0.4,1.3C1637.2,413.4,1636.9,413.6,1636.6,413.6z"/>
			<path class="st3" d="M1098.7,309.2h-32.4c-0.5,0-1-0.4-1-1v-18.7c0-0.5,0.4-1,1-1h32.4c0.5,0,1,0.4,1,1l0,18.7
				c0,0.3-0.1,0.5-0.3,0.7C1099.2,309.1,1098.9,309.2,1098.7,309.2z M1067.2,307.3h30.5l0-16.8h-30.5V307.3z"/>
			<path class="st3" d="M1486.4,268.2h-32.4c-0.5,0-1-0.4-1-1v-18.7c0-0.5,0.4-1,1-1h32.4c0.5,0,1,0.4,1,1v18.7
				C1487.4,267.8,1486.9,268.2,1486.4,268.2z M1454.9,266.3h30.5v-16.8h-30.5V266.3z"/>
			<path class="st3" d="M1011.9,667.7c-3.6,0-7.2-0.5-10.7-1.6c-8.8-2.6-14.1-7.6-14.1-13.4c0-5.7,5.3-10.7,14.1-13.4
				c7-2.1,14.4-2.1,21.4,0c8.8,2.6,14.1,7.6,14.1,13.4c0,5.7-5.3,10.7-14.1,13.4C1019.1,667.2,1015.5,667.7,1011.9,667.7z
				 M1011.9,639.8c-3.4,0-6.8,0.5-10.2,1.5c-8,2.4-12.7,6.7-12.7,11.5c0,4.8,4.8,9.1,12.7,11.5c6.6,2,13.7,2,20.3,0
				c8-2.4,12.7-6.7,12.7-11.5c0-4.8-4.8-9.1-12.7-11.5l0,0C1018.7,640.3,1015.3,639.8,1011.9,639.8z"/>
			<path class="st3" d="M951.3,632.7c-3.6,0-7.2-0.5-10.7-1.6c-8.8-2.6-14.1-7.6-14.1-13.4c0-5.7,5.3-10.7,14.1-13.4
				c7-2.1,14.4-2.1,21.4,0l0,0c8.8,2.6,14.1,7.6,14.1,13.4c0,5.7-5.3,10.7-14.1,13.4C958.5,632.2,954.9,632.7,951.3,632.7z
				 M951.3,604.8c-3.4,0-6.8,0.5-10.1,1.5c-8,2.4-12.7,6.7-12.7,11.5s4.8,9.1,12.7,11.5c6.6,2,13.7,2,20.3,0
				c8-2.4,12.7-6.7,12.7-11.5s-4.8-9.1-12.7-11.5l0,0C958.1,605.3,954.7,604.8,951.3,604.8z"/>
			<path class="st3" d="M890.7,597.7c-3.6,0-7.2-0.5-10.7-1.6c-8.8-2.6-14.1-7.6-14.1-13.4c0-5.7,5.3-10.7,14.1-13.4
				c7-2.1,14.4-2.1,21.4,0c8.8,2.6,14.1,7.6,14.1,13.4c0,5.7-5.3,10.7-14.1,13.4C897.9,597.2,894.3,597.7,890.7,597.7z M890.7,569.8
				c-3.4,0-6.8,0.5-10.2,1.5c-8,2.4-12.7,6.7-12.7,11.5s4.8,9.1,12.7,11.5c6.6,2,13.7,2,20.3,0c8-2.4,12.7-6.7,12.7-11.5
				s-4.8-9.1-12.7-11.5l0,0C897.5,570.3,894.1,569.8,890.7,569.8z"/>
			<path class="st3" d="M830.1,562.7c-3.6,0-7.2-0.5-10.7-1.6c-8.8-2.6-14.1-7.6-14.1-13.4c0-5.7,5.3-10.7,14.1-13.4
				c7-2.1,14.4-2.1,21.4,0c8.8,2.6,14.1,7.6,14.1,13.4c0,5.7-5.3,10.7-14.1,13.4C837.3,562.2,833.7,562.7,830.1,562.7z M830.1,534.8
				c-3.4,0-6.8,0.5-10.2,1.5c-8,2.4-12.7,6.7-12.7,11.5c0,4.8,4.8,9.1,12.7,11.5c6.6,2,13.7,2,20.3,0c8-2.4,12.7-6.7,12.7-11.5
				c0-4.8-4.8-9.1-12.7-11.5l0,0C836.9,535.3,833.5,534.8,830.1,534.8z"/>
			<path class="st3" d="M846.9,539c-0.3,0-0.7-0.2-0.8-0.5c-0.3-0.5-0.1-1.1,0.4-1.3l39.6-22.9c0.5-0.3,1.1-0.1,1.3,0.4
				c0.3,0.5,0.1,1.1-0.4,1.3l-39.6,22.9C847.3,539,847.1,539,846.9,539z"/>
			<path class="st3" d="M1064.2,680.9c-0.2,0-0.3,0-0.5-0.1l-32.9-19.2c-0.5-0.3-0.6-0.9-0.3-1.3c0.3-0.5,0.9-0.6,1.3-0.3l32.9,19.2
				c0.5,0.3,0.6,0.9,0.3,1.3C1064.9,680.7,1064.5,680.9,1064.2,680.9z"/>
			<path class="st3" d="M1279.9,656.9h-32.4c-0.5,0-1-0.4-1-1l0-18.7c0-0.3,0.1-0.5,0.3-0.7c0.2-0.2,0.4-0.3,0.7-0.3h32.4
				c0.5,0,1,0.4,1,1V656C1280.9,656.5,1280.4,656.9,1279.9,656.9z M1248.4,655h30.5v-16.8h-30.5L1248.4,655z"/>
		</g>
		<polygon class="st4" points="-98,916.6 1936.5,-176.3 -98,-172.4 		"/>
		<linearGradient id="SVGID_4_" gradientUnits="userSpaceOnUse" x1="-166.5127" y1="382.6666" x2="2014.3655" y2="382.6666">
			<stop  offset="0" style="stop-color:#2525A5"/>
			<stop  offset="1" style="stop-color:#2525A5"/>
		</linearGradient>
		<polygon class="st5" points="-166.5,968.3 2014.4,-202.9 1975.2,-202.9 -166.5,947.6 		"/>
		<g>
			<path class="st6" d="M1553.8,217.1l-65.4-37.8c-1.4-0.8-1.2-2.3,0.4-3.2L1508,165l70.6,40.7l-19.2,11.1
				C1557.7,217.8,1555.2,217.9,1553.8,217.1z"/>
			<g>
				<linearGradient id="SVGID_5_" gradientUnits="userSpaceOnUse" x1="1616.6719" y1="127.1325" x2="1506.9012" y2="215.1562">
					<stop  offset="0" style="stop-color:#BCD5FF"/>
					<stop  offset="0.151" style="stop-color:#A3BEFF"/>
					<stop  offset="0.3866" style="stop-color:#82A0FF"/>
					<stop  offset="0.6124" style="stop-color:#6A8AFF"/>
					<stop  offset="0.8221" style="stop-color:#5C7DFF"/>
					<stop  offset="1" style="stop-color:#5778FF"/>
				</linearGradient>
				<path class="st7" d="M1646.8,165.7v-13l-21.2,0l-47.1-27.2c-1.2-0.7-3.2-0.6-4.5,0.2l-46.9,27.1l-21.1,0l0,13.1h0
					c0,0.4,0.3,0.8,0.8,1.1l67.6,39c1.2,0.7,3.2,0.6,4.5-0.2l66.9-38.6C1646.4,166.7,1646.7,166.2,1646.8,165.7z"/>
				
					<linearGradient id="SVGID_6_" gradientUnits="userSpaceOnUse" x1="927.6898" y1="241.3801" x2="827.9058" y2="321.3957" gradientTransform="matrix(0.866 0.5 -1 0.5774 1075.4185 -449.232)">
					<stop  offset="0" style="stop-color:#C0D6FF"/>
					<stop  offset="0.2978" style="stop-color:#C5DBFF"/>
					<stop  offset="0.6488" style="stop-color:#D3E9FF"/>
					<stop  offset="1" style="stop-color:#E9FFFF"/>
				</linearGradient>
				<path class="st8" d="M1574.2,192.8l-67.6-39c-1.2-0.7-1-1.8,0.3-2.6l66.9-38.6c1.3-0.8,3.4-0.9,4.5-0.2l67.6,39
					c1.2,0.7,1,1.8-0.3,2.6l-66.9,38.6C1577.4,193.4,1575.4,193.5,1574.2,192.8z"/>
				<path class="st9" d="M1574.5,188.3l-59.9-34.6c-1-0.6-0.9-1.6,0.3-2.3l59.3-34.2c1.2-0.7,3-0.8,4-0.2l59.9,34.6
					c1,0.6,0.9,1.6-0.3,2.3l-59.3,34.2C1577.3,188.8,1575.5,188.9,1574.5,188.3z"/>
				<path class="st10" d="M1574.6,185.4l-55-31.8c-0.9-0.5-0.8-1.5,0.3-2.1l54.5-31.5c1.1-0.6,2.7-0.7,3.7-0.2l55,31.8
					c0.9,0.5,0.8,1.5-0.3,2.1l-54.5,31.5C1577.2,185.9,1575.6,185.9,1574.6,185.4z"/>
			</g>
			<g>
				<polygon class="st11" points="1575.1,150.6 1568.6,146.8 1572.2,144.8 1578.6,148.5 				"/>
				<polygon class="st11" points="1587,150 1580.6,153.8 1577.1,151.7 1583.5,148 				"/>
				<polygon class="st11" points="1573.6,151.4 1570.1,153.4 1566.6,151.4 1570.1,149.4 				"/>
				<polygon class="st11" points="1585.8,158.4 1582.2,160.4 1572.1,154.6 1575.6,152.6 				"/>
			</g>
		</g>
		<g>
			<path class="st6" d="M806.3,598.3l-65.4-37.8c-1.4-0.8-1.2-2.3,0.4-3.2l19.2-11.1L831,587l-19.2,11.1
				C810.2,599.1,807.7,599.2,806.3,598.3z"/>
			<g>
				<linearGradient id="SVGID_7_" gradientUnits="userSpaceOnUse" x1="869.1578" y1="508.4063" x2="759.3873" y2="596.4299">
					<stop  offset="0" style="stop-color:#BCD5FF"/>
					<stop  offset="0.151" style="stop-color:#A3BEFF"/>
					<stop  offset="0.3866" style="stop-color:#82A0FF"/>
					<stop  offset="0.6124" style="stop-color:#6A8AFF"/>
					<stop  offset="0.8221" style="stop-color:#5C7DFF"/>
					<stop  offset="1" style="stop-color:#5778FF"/>
				</linearGradient>
				<path class="st12" d="M899.3,546.9v-13l-21.2,0l-47.1-27.2c-1.2-0.7-3.2-0.6-4.5,0.2L779.5,534l-21.1,0l0,13.1h0
					c0,0.4,0.3,0.8,0.8,1.1l67.6,39c1.2,0.7,3.2,0.6,4.5-0.2l66.9-38.6C898.9,547.9,899.2,547.4,899.3,546.9z"/>
				
					<linearGradient id="SVGID_8_" gradientUnits="userSpaceOnUse" x1="877.3503" y1="945.3002" x2="777.5663" y2="1025.3157" gradientTransform="matrix(0.866 0.5 -1 0.5774 1075.4185 -449.232)">
					<stop  offset="0" style="stop-color:#C0D6FF"/>
					<stop  offset="0.2978" style="stop-color:#C5DBFF"/>
					<stop  offset="0.6488" style="stop-color:#D3E9FF"/>
					<stop  offset="1" style="stop-color:#E9FFFF"/>
				</linearGradient>
				<path class="st13" d="M826.7,574.1l-67.6-39c-1.2-0.7-1-1.8,0.3-2.6l66.9-38.6c1.3-0.8,3.4-0.9,4.5-0.2l67.6,39
					c1.2,0.7,1,1.8-0.3,2.6l-66.9,38.6C829.9,574.7,827.9,574.8,826.7,574.1z"/>
				<path class="st9" d="M827,569.6L767.1,535c-1-0.6-0.9-1.6,0.3-2.3l59.3-34.2c1.2-0.7,3-0.8,4-0.2l59.9,34.6
					c1,0.6,0.9,1.6-0.3,2.3L831,569.4C829.8,570.1,828,570.1,827,569.6z"/>
				<path class="st10" d="M827.1,566.7l-55-31.8c-0.9-0.5-0.8-1.5,0.3-2.1l54.5-31.5c1.1-0.6,2.7-0.7,3.7-0.2l55,31.8
					c0.9,0.5,0.8,1.5-0.3,2.1l-54.5,31.5C829.7,567.1,828.1,567.2,827.1,566.7z"/>
				<g>
					<polygon class="st11" points="827.6,531.8 821.1,528.1 824.6,526.1 831.1,529.8 					"/>
					<polygon class="st11" points="839.5,531.3 833.1,535 829.6,533 836,529.3 					"/>
					<polygon class="st11" points="826.1,532.7 822.6,534.7 819.1,532.7 822.6,530.7 					"/>
					<polygon class="st11" points="838.2,539.7 834.7,541.7 824.6,535.9 828.1,533.8 					"/>
				</g>
			</g>
		</g>
		<g>
			<path class="st6" d="M1569.6,449.7l-65.4-37.8c-1.4-0.8-1.2-2.3,0.4-3.2l19.2-11.1l70.6,40.7l-19.2,11.1
				C1573.5,450.5,1571.1,450.6,1569.6,449.7z"/>
			<g>
				<linearGradient id="SVGID_9_" gradientUnits="userSpaceOnUse" x1="1632.5299" y1="359.8145" x2="1522.7594" y2="447.8382">
					<stop  offset="0" style="stop-color:#BCD5FF"/>
					<stop  offset="0.151" style="stop-color:#A3BEFF"/>
					<stop  offset="0.3866" style="stop-color:#82A0FF"/>
					<stop  offset="0.6124" style="stop-color:#6A8AFF"/>
					<stop  offset="0.8221" style="stop-color:#5C7DFF"/>
					<stop  offset="1" style="stop-color:#5778FF"/>
				</linearGradient>
				<path class="st14" d="M1662.6,398.3v-13l-21.2,0l-47.1-27.2c-1.2-0.7-3.2-0.6-4.5,0.2l-46.9,27.1l-21.1,0l0,13.1h0
					c0,0.4,0.3,0.8,0.8,1.1l67.6,39c1.2,0.7,3.2,0.6,4.5-0.2l66.9-38.6C1662.2,399.3,1662.6,398.8,1662.6,398.3z"/>
				
					<linearGradient id="SVGID_10_" gradientUnits="userSpaceOnUse" x1="1169.5214" y1="434.9482" x2="1069.7374" y2="514.9637" gradientTransform="matrix(0.866 0.5 -1 0.5774 1075.4185 -449.232)">
					<stop  offset="0" style="stop-color:#C0D6FF"/>
					<stop  offset="0.2978" style="stop-color:#C5DBFF"/>
					<stop  offset="0.6488" style="stop-color:#D3E9FF"/>
					<stop  offset="1" style="stop-color:#E9FFFF"/>
				</linearGradient>
				<path class="st15" d="M1590.1,425.5l-67.6-39c-1.2-0.7-1-1.8,0.3-2.6l66.9-38.6c1.3-0.8,3.4-0.9,4.5-0.2l67.6,39
					c1.2,0.7,1,1.8-0.3,2.6l-66.9,38.6C1593.3,426.1,1591.3,426.2,1590.1,425.5z"/>
				<path class="st9" d="M1590.3,421l-59.9-34.6c-1-0.6-0.9-1.6,0.3-2.3l59.3-34.2c1.2-0.7,3-0.8,4-0.2l59.9,34.6
					c1,0.6,0.9,1.6-0.3,2.3l-59.3,34.2C1593.2,421.5,1591.4,421.6,1590.3,421z"/>
				<path class="st10" d="M1590.5,418.1l-55-31.8c-0.9-0.5-0.8-1.5,0.3-2.1l54.5-31.5c1.1-0.6,2.7-0.7,3.7-0.2l55,31.8
					c0.9,0.5,0.8,1.5-0.3,2.1l-54.5,31.5C1593.1,418.5,1591.4,418.6,1590.5,418.1z"/>
			</g>
			<g>
				<polygon class="st11" points="1590.9,383.2 1584.5,379.5 1588,377.5 1594.4,381.2 				"/>
				<polygon class="st11" points="1602.9,382.7 1596.5,386.4 1592.9,384.4 1599.4,380.7 				"/>
				<polygon class="st11" points="1589.5,384.1 1586,386.1 1582.4,384.1 1586,382.1 				"/>
				<polygon class="st11" points="1601.6,391.1 1598.1,393.1 1588,387.3 1591.5,385.2 				"/>
			</g>
		</g>
		<g>
			<path class="st6" d="M1157.7,456.6l-65.4-37.8c-1.4-0.8-1.2-2.3,0.4-3.2l19.2-11.1l70.6,40.7l-19.2,11.1
				C1161.6,457.3,1159.1,457.4,1157.7,456.6z"/>
			<g>
				<linearGradient id="SVGID_11_" gradientUnits="userSpaceOnUse" x1="1220.5865" y1="366.6181" x2="1110.816" y2="454.6417">
					<stop  offset="0" style="stop-color:#BCD5FF"/>
					<stop  offset="0.151" style="stop-color:#A3BEFF"/>
					<stop  offset="0.3866" style="stop-color:#82A0FF"/>
					<stop  offset="0.6124" style="stop-color:#6A8AFF"/>
					<stop  offset="0.8221" style="stop-color:#5C7DFF"/>
					<stop  offset="1" style="stop-color:#5778FF"/>
				</linearGradient>
				<path class="st16" d="M1250.7,405.2v-13l-21.2,0l-47.1-27.2c-1.2-0.7-3.2-0.6-4.5,0.2l-46.9,27.1l-21.1,0l0,13.1h0
					c0,0.4,0.3,0.8,0.8,1.1l67.6,39c1.2,0.7,3.2,0.6,4.5-0.2l66.9-38.6C1250.3,406.1,1250.6,405.6,1250.7,405.2z"/>
				
					<linearGradient id="SVGID_12_" gradientUnits="userSpaceOnUse" x1="938.4753" y1="646.8057" x2="838.6913" y2="726.8213" gradientTransform="matrix(0.866 0.5 -1 0.5774 1075.4185 -449.232)">
					<stop  offset="0" style="stop-color:#C0D6FF"/>
					<stop  offset="0.2978" style="stop-color:#C5DBFF"/>
					<stop  offset="0.6488" style="stop-color:#D3E9FF"/>
					<stop  offset="1" style="stop-color:#E9FFFF"/>
				</linearGradient>
				<path class="st17" d="M1178.2,432.3l-67.6-39c-1.2-0.7-1-1.8,0.3-2.6l66.9-38.6c1.3-0.8,3.4-0.9,4.5-0.2l67.6,39
					c1.2,0.7,1,1.8-0.3,2.6l-66.9,38.6C1181.3,432.9,1179.3,433,1178.2,432.3z"/>
				<path class="st9" d="M1178.4,427.8l-59.9-34.6c-1-0.6-0.9-1.6,0.3-2.3l59.3-34.2c1.2-0.7,3-0.8,4-0.2L1242,391
					c1,0.6,0.9,1.6-0.3,2.3l-59.3,34.2C1181.2,428.3,1179.4,428.4,1178.4,427.8z"/>
				<path class="st10" d="M1178.5,424.9l-55-31.8c-0.9-0.5-0.8-1.5,0.3-2.1l54.5-31.5c1.1-0.6,2.7-0.7,3.7-0.2l55,31.8
					c0.9,0.5,0.8,1.5-0.3,2.1l-54.5,31.5C1181.1,425.3,1179.5,425.4,1178.5,424.9z"/>
			</g>
			<g>
				<polygon class="st11" points="1179,390 1172.6,386.3 1176.1,384.3 1182.5,388 				"/>
				<polygon class="st11" points="1190.9,389.5 1184.5,393.2 1181,391.2 1187.4,387.5 				"/>
				<polygon class="st11" points="1177.5,390.9 1174,392.9 1170.5,390.9 1174,388.9 				"/>
				<polygon class="st11" points="1189.7,397.9 1186.2,399.9 1176,394.1 1179.5,392.1 				"/>
			</g>
		</g>
		<g>
			<g>
				<g class="st2">
					<g>
						<g>
							
								<linearGradient id="SVGID_13_" gradientUnits="userSpaceOnUse" x1="1105.5375" y1="277.7939" x2="1159.7262" y2="277.7939" gradientTransform="matrix(0.866 0.5 -1 0.5774 710.0915 -419.4033)">
								<stop  offset="0" style="stop-color:#C0D6FF"/>
								<stop  offset="0.4983" style="stop-color:#D2E8FF"/>
								<stop  offset="1" style="stop-color:#E9FFFF"/>
							</linearGradient>
							<polygon class="st18" points="1413.3,334.6 1366.1,307.4 1413.3,280.1 1460.5,307.4 							"/>
							<polygon class="st3" points="1413.3,333.5 1367.1,306.8 1366.1,307.4 1413.3,334.6 1460.5,307.4 1459.5,306.8 							"/>
							
								<linearGradient id="SVGID_14_" gradientUnits="userSpaceOnUse" x1="1836.2224" y1="582.428" x2="1890.4097" y2="582.428" gradientTransform="matrix(0.866 -0.5 0 1.1547 -176.8764 684.2451)">
								<stop  offset="0" style="stop-color:#C0D6FF"/>
								<stop  offset="0.2978" style="stop-color:#C5DBFF"/>
								<stop  offset="0.6488" style="stop-color:#D3E9FF"/>
								<stop  offset="1" style="stop-color:#E9FFFF"/>
							</linearGradient>
							<polygon class="st19" points="1460.5,515.4 1413.3,542.7 1413.3,334.6 1460.5,307.4 							"/>
							
								<linearGradient id="SVGID_15_" gradientUnits="userSpaceOnUse" x1="1738.2439" y1="441.8246" x2="1819.6466" y2="441.8246" gradientTransform="matrix(0.866 0.5 0 1.1547 -170.1777 -985.7549)">
								<stop  offset="0" style="stop-color:#5778FF"/>
								<stop  offset="0.1779" style="stop-color:#5C7DFF"/>
								<stop  offset="0.3876" style="stop-color:#6A8AFF"/>
								<stop  offset="0.6134" style="stop-color:#82A0FF"/>
								<stop  offset="0.849" style="stop-color:#A3BEFF"/>
								<stop  offset="1" style="stop-color:#BCD5FF"/>
							</linearGradient>
							<polygon class="st20" points="1413.3,542.7 1366.1,515.4 1366.1,307.4 1413.3,334.6 							"/>
						</g>
					</g>
					<g>
						<g>
							
								<linearGradient id="SVGID_16_" gradientUnits="userSpaceOnUse" x1="1151.6079" y1="379.3003" x2="1205.7966" y2="379.3003" gradientTransform="matrix(0.866 0.5 -1 0.5774 710.0915 -419.4033)">
								<stop  offset="0" style="stop-color:#C0D6FF"/>
								<stop  offset="0.4983" style="stop-color:#D2E8FF"/>
								<stop  offset="1" style="stop-color:#E9FFFF"/>
							</linearGradient>
							<polygon class="st21" points="1351.7,416.3 1304.5,389 1351.7,361.8 1398.9,389 							"/>
							<polygon class="st3" points="1351.7,415.2 1305.5,388.5 1304.5,389 1351.7,416.3 1398.9,389 1397.9,388.5 							"/>
							
								<linearGradient id="SVGID_17_" gradientUnits="userSpaceOnUse" x1="1765.08" y1="602.411" x2="1819.2671" y2="602.411" gradientTransform="matrix(0.866 -0.5 0 1.1547 -176.8764 684.2451)">
								<stop  offset="0" style="stop-color:#C0D6FF"/>
								<stop  offset="0.2978" style="stop-color:#C5DBFF"/>
								<stop  offset="0.6488" style="stop-color:#D3E9FF"/>
								<stop  offset="1" style="stop-color:#E9FFFF"/>
							</linearGradient>
							<polygon class="st22" points="1398.9,551.1 1351.7,578.3 1351.7,416.3 1398.9,389 							"/>
							
								<linearGradient id="SVGID_18_" gradientUnits="userSpaceOnUse" x1="1667.1017" y1="523.4188" x2="1748.5042" y2="523.4188" gradientTransform="matrix(0.866 0.5 0 1.1547 -170.1777 -985.7549)">
								<stop  offset="0" style="stop-color:#5778FF"/>
								<stop  offset="0.1779" style="stop-color:#5C7DFF"/>
								<stop  offset="0.3876" style="stop-color:#6A8AFF"/>
								<stop  offset="0.6134" style="stop-color:#82A0FF"/>
								<stop  offset="0.849" style="stop-color:#A3BEFF"/>
								<stop  offset="1" style="stop-color:#BCD5FF"/>
							</linearGradient>
							<polygon class="st23" points="1351.7,578.3 1304.5,551.1 1304.5,389 1351.7,416.3 							"/>
						</g>
					</g>
					<g>
						<g>
							
								<linearGradient id="SVGID_19_" gradientUnits="userSpaceOnUse" x1="1165.2985" y1="452.7656" x2="1219.4872" y2="452.7656" gradientTransform="matrix(0.866 0.5 -1 0.5774 710.0915 -419.4033)">
								<stop  offset="0" style="stop-color:#C0D6FF"/>
								<stop  offset="0.4983" style="stop-color:#D2E8FF"/>
								<stop  offset="1" style="stop-color:#E9FFFF"/>
							</linearGradient>
							<polygon class="st24" points="1290.1,465.5 1242.9,438.3 1290.1,411 1337.3,438.3 							"/>
							<polygon class="st3" points="1290.1,464.4 1243.9,437.7 1242.9,438.3 1290.1,465.5 1337.3,438.3 1336.3,437.7 							"/>
							
								<linearGradient id="SVGID_20_" gradientUnits="userSpaceOnUse" x1="1693.9374" y1="608.3729" x2="1748.1248" y2="608.3729" gradientTransform="matrix(0.866 -0.5 0 1.1547 -176.8764 684.2451)">
								<stop  offset="0" style="stop-color:#C0D6FF"/>
								<stop  offset="0.2978" style="stop-color:#C5DBFF"/>
								<stop  offset="0.6488" style="stop-color:#D3E9FF"/>
								<stop  offset="1" style="stop-color:#E9FFFF"/>
							</linearGradient>
							<polygon class="st25" points="1337.3,586.7 1290.1,614 1290.1,465.5 1337.3,438.3 							"/>
							
								<linearGradient id="SVGID_21_" gradientUnits="userSpaceOnUse" x1="1595.9592" y1="590.9918" x2="1677.3617" y2="590.9918" gradientTransform="matrix(0.866 0.5 0 1.1547 -170.1777 -985.7549)">
								<stop  offset="0" style="stop-color:#5778FF"/>
								<stop  offset="0.1779" style="stop-color:#5C7DFF"/>
								<stop  offset="0.3876" style="stop-color:#6A8AFF"/>
								<stop  offset="0.6134" style="stop-color:#82A0FF"/>
								<stop  offset="0.849" style="stop-color:#A3BEFF"/>
								<stop  offset="1" style="stop-color:#BCD5FF"/>
							</linearGradient>
							<polygon class="st26" points="1290.1,614 1242.9,586.7 1242.9,438.3 1290.1,465.5 							"/>
						</g>
					</g>
					<g>
						<g>
							
								<linearGradient id="SVGID_22_" gradientUnits="userSpaceOnUse" x1="1209.4156" y1="552.5806" x2="1263.6045" y2="552.5806" gradientTransform="matrix(0.866 0.5 -1 0.5774 710.0915 -419.4033)">
								<stop  offset="0" style="stop-color:#C0D6FF"/>
								<stop  offset="0.4983" style="stop-color:#D2E8FF"/>
								<stop  offset="1" style="stop-color:#E9FFFF"/>
							</linearGradient>
							<polygon class="st27" points="1228.5,545.2 1181.3,518 1228.5,490.7 1275.7,518 							"/>
							<polygon class="st3" points="1228.5,544.1 1182.2,517.4 1181.3,518 1228.5,545.2 1275.7,518 1274.7,517.4 							"/>
							
								<linearGradient id="SVGID_23_" gradientUnits="userSpaceOnUse" x1="1622.795" y1="627.5104" x2="1676.9823" y2="627.5104" gradientTransform="matrix(0.866 -0.5 0 1.1547 -176.8764 684.2451)">
								<stop  offset="0" style="stop-color:#C0D6FF"/>
								<stop  offset="0.2978" style="stop-color:#C5DBFF"/>
								<stop  offset="0.6488" style="stop-color:#D3E9FF"/>
								<stop  offset="1" style="stop-color:#E9FFFF"/>
							</linearGradient>
							<polygon class="st28" points="1275.7,622.4 1228.5,649.6 1228.5,545.2 1275.7,518 							"/>
							
								<linearGradient id="SVGID_24_" gradientUnits="userSpaceOnUse" x1="1524.8167" y1="671.7405" x2="1606.2194" y2="671.7405" gradientTransform="matrix(0.866 0.5 0 1.1547 -170.1777 -985.7549)">
								<stop  offset="0" style="stop-color:#5778FF"/>
								<stop  offset="0.1779" style="stop-color:#5C7DFF"/>
								<stop  offset="0.3876" style="stop-color:#6A8AFF"/>
								<stop  offset="0.6134" style="stop-color:#82A0FF"/>
								<stop  offset="0.849" style="stop-color:#A3BEFF"/>
								<stop  offset="1" style="stop-color:#BCD5FF"/>
							</linearGradient>
							<polygon class="st29" points="1228.5,649.6 1181.3,622.4 1181.3,518 1228.5,545.2 							"/>
						</g>
					</g>
					<g>
						<g>
							
								<linearGradient id="SVGID_25_" gradientUnits="userSpaceOnUse" x1="1198.9067" y1="605.0891" x2="1253.0956" y2="605.0891" gradientTransform="matrix(0.866 0.5 -1 0.5774 710.0915 -419.4033)">
								<stop  offset="0" style="stop-color:#C0D6FF"/>
								<stop  offset="0.4983" style="stop-color:#D2E8FF"/>
								<stop  offset="1" style="stop-color:#E9FFFF"/>
							</linearGradient>
							<polygon class="st30" points="1166.9,570.3 1119.7,543.1 1166.9,515.8 1214,543.1 							"/>
							<polygon class="st3" points="1166.9,569.2 1120.6,542.5 1119.7,543.1 1166.9,570.3 1214,543.1 1213.1,542.5 							"/>
							
								<linearGradient id="SVGID_26_" gradientUnits="userSpaceOnUse" x1="1551.6526" y1="622.9931" x2="1605.8398" y2="622.9931" gradientTransform="matrix(0.866 -0.5 0 1.1547 -176.8764 684.2451)">
								<stop  offset="0" style="stop-color:#C0D6FF"/>
								<stop  offset="0.2978" style="stop-color:#C5DBFF"/>
								<stop  offset="0.6488" style="stop-color:#D3E9FF"/>
								<stop  offset="1" style="stop-color:#E9FFFF"/>
							</linearGradient>
							<polygon class="st31" points="1214.1,658 1166.9,685.3 1166.9,570.3 1214.1,543.1 							"/>
							
								<linearGradient id="SVGID_27_" gradientUnits="userSpaceOnUse" x1="1453.6744" y1="728.8345" x2="1535.0768" y2="728.8345" gradientTransform="matrix(0.866 0.5 0 1.1547 -170.1777 -985.7549)">
								<stop  offset="0" style="stop-color:#5778FF"/>
								<stop  offset="0.1779" style="stop-color:#5C7DFF"/>
								<stop  offset="0.3876" style="stop-color:#6A8AFF"/>
								<stop  offset="0.6134" style="stop-color:#82A0FF"/>
								<stop  offset="0.849" style="stop-color:#A3BEFF"/>
								<stop  offset="1" style="stop-color:#BCD5FF"/>
							</linearGradient>
							<polygon class="st32" points="1166.9,685.3 1119.7,658 1119.7,543.1 1166.9,570.3 							"/>
						</g>
					</g>
				</g>
				<polygon class="st6" points="1214.1,567.3 1413.3,451.9 1398.9,424.7 1204.9,545.9 				"/>
				<g>
					<g>
						<g>
							
								<linearGradient id="SVGID_28_" gradientUnits="userSpaceOnUse" x1="1064.6851" y1="242.4158" x2="1118.8739" y2="242.4158" gradientTransform="matrix(0.866 0.5 -1 0.5774 710.0915 -419.4033)">
								<stop  offset="0" style="stop-color:#C0D6FF"/>
								<stop  offset="0.4983" style="stop-color:#D2E8FF"/>
								<stop  offset="1" style="stop-color:#E9FFFF"/>
							</linearGradient>
							<polygon class="st33" points="1413.3,293.8 1366.1,266.5 1413.3,239.3 1460.5,266.5 							"/>
							<polygon class="st3" points="1413.3,292.7 1367.1,266 1366.1,266.5 1413.3,293.8 1460.5,266.5 1459.5,266 							"/>
							
								<linearGradient id="SVGID_29_" gradientUnits="userSpaceOnUse" x1="1836.2224" y1="525.4418" x2="1890.4097" y2="525.4418" gradientTransform="matrix(0.866 -0.5 0 1.1547 -176.8764 684.2451)">
								<stop  offset="0" style="stop-color:#C0D6FF"/>
								<stop  offset="0.2978" style="stop-color:#C5DBFF"/>
								<stop  offset="0.6488" style="stop-color:#D3E9FF"/>
								<stop  offset="1" style="stop-color:#E9FFFF"/>
							</linearGradient>
							<polygon class="st34" points="1460.5,424.7 1413.3,451.9 1413.3,293.8 1460.5,266.5 							"/>
							
								<linearGradient id="SVGID_30_" gradientUnits="userSpaceOnUse" x1="1738.2439" y1="384.8383" x2="1819.6466" y2="384.8383" gradientTransform="matrix(0.866 0.5 0 1.1547 -170.1777 -985.7549)">
								<stop  offset="0" style="stop-color:#5778FF"/>
								<stop  offset="0.1779" style="stop-color:#5C7DFF"/>
								<stop  offset="0.3876" style="stop-color:#6A8AFF"/>
								<stop  offset="0.6134" style="stop-color:#82A0FF"/>
								<stop  offset="0.849" style="stop-color:#A3BEFF"/>
								<stop  offset="1" style="stop-color:#BCD5FF"/>
							</linearGradient>
							<polygon class="st35" points="1413.3,451.9 1366.1,424.7 1366.1,266.5 1413.3,293.8 							"/>
						</g>
					</g>
					<g>
						<g>
							
								<linearGradient id="SVGID_31_" gradientUnits="userSpaceOnUse" x1="1110.7551" y1="343.9225" x2="1164.944" y2="343.9225" gradientTransform="matrix(0.866 0.5 -1 0.5774 710.0915 -419.4033)">
								<stop  offset="0" style="stop-color:#C0D6FF"/>
								<stop  offset="0.4983" style="stop-color:#D2E8FF"/>
								<stop  offset="1" style="stop-color:#E9FFFF"/>
							</linearGradient>
							<polygon class="st36" points="1351.7,375.4 1304.5,348.2 1351.7,320.9 1398.9,348.2 							"/>
							
								<linearGradient id="SVGID_32_" gradientUnits="userSpaceOnUse" x1="1120.6578" y1="343.9224" x2="1155.1541" y2="343.9224" gradientTransform="matrix(0.866 0.5 -1 0.5774 710.0915 -419.4033)">
								<stop  offset="0" style="stop-color:#5778FF"/>
								<stop  offset="0.1779" style="stop-color:#5C7DFF"/>
								<stop  offset="0.3876" style="stop-color:#6A8AFF"/>
								<stop  offset="0.6134" style="stop-color:#82A0FF"/>
								<stop  offset="0.849" style="stop-color:#A3BEFF"/>
								<stop  offset="1" style="stop-color:#BCD5FF"/>
							</linearGradient>
							<polygon class="st37" points="1351.7,365.5 1321.6,348.2 1351.7,330.8 1381.7,348.2 							"/>
							<polygon class="st3" points="1351.7,374.3 1305.5,347.6 1304.5,348.2 1351.7,375.4 1398.9,348.2 1397.9,347.6 							"/>
							
								<linearGradient id="SVGID_33_" gradientUnits="userSpaceOnUse" x1="1765.0792" y1="545.4247" x2="1819.2664" y2="545.4247" gradientTransform="matrix(0.866 -0.5 0 1.1547 -176.8764 684.2451)">
								<stop  offset="0" style="stop-color:#C0D6FF"/>
								<stop  offset="0.2978" style="stop-color:#C5DBFF"/>
								<stop  offset="0.6488" style="stop-color:#D3E9FF"/>
								<stop  offset="1" style="stop-color:#E9FFFF"/>
							</linearGradient>
							<polygon class="st38" points="1398.9,460.3 1351.7,487.6 1351.7,375.4 1398.9,348.2 							"/>
							
								<linearGradient id="SVGID_34_" gradientUnits="userSpaceOnUse" x1="1667.1007" y1="466.4331" x2="1748.5034" y2="466.4331" gradientTransform="matrix(0.866 0.5 0 1.1547 -170.1777 -985.7549)">
								<stop  offset="0" style="stop-color:#5778FF"/>
								<stop  offset="0.1779" style="stop-color:#5C7DFF"/>
								<stop  offset="0.3876" style="stop-color:#6A8AFF"/>
								<stop  offset="0.6134" style="stop-color:#82A0FF"/>
								<stop  offset="0.849" style="stop-color:#A3BEFF"/>
								<stop  offset="1" style="stop-color:#BCD5FF"/>
							</linearGradient>
							<polygon class="st39" points="1351.7,487.6 1304.5,460.3 1304.5,348.2 1351.7,375.4 							"/>
						</g>
					</g>
					<g>
						<g>
							
								<linearGradient id="SVGID_35_" gradientUnits="userSpaceOnUse" x1="1069.9653" y1="308.5977" x2="1124.1539" y2="308.5977" gradientTransform="matrix(0.866 0.5 -1 0.5774 710.0915 -419.4033)">
								<stop  offset="0" style="stop-color:#C0D6FF"/>
								<stop  offset="0.4983" style="stop-color:#D2E8FF"/>
								<stop  offset="1" style="stop-color:#E9FFFF"/>
							</linearGradient>
							<polygon class="st40" points="1351.7,334.6 1304.5,307.4 1351.7,280.1 1398.9,307.4 							"/>
							<polygon class="st3" points="1351.7,333.5 1305.5,306.8 1304.5,307.4 1351.7,334.6 1398.9,307.4 1397.9,306.8 							"/>
							
								<linearGradient id="SVGID_36_" gradientUnits="userSpaceOnUse" x1="1765.08" y1="469.8721" x2="1819.2671" y2="469.8721" gradientTransform="matrix(0.866 -0.5 0 1.1547 -176.8764 684.2451)">
								<stop  offset="0" style="stop-color:#C0D6FF"/>
								<stop  offset="0.2978" style="stop-color:#C5DBFF"/>
								<stop  offset="0.6488" style="stop-color:#D3E9FF"/>
								<stop  offset="1" style="stop-color:#E9FFFF"/>
							</linearGradient>
							<polygon class="st41" points="1398.9,326.6 1351.7,353.9 1351.7,334.6 1398.9,307.4 							"/>
							
								<linearGradient id="SVGID_37_" gradientUnits="userSpaceOnUse" x1="1667.1017" y1="390.8799" x2="1748.5042" y2="390.8799" gradientTransform="matrix(0.866 0.5 0 1.1547 -170.1777 -985.7549)">
								<stop  offset="0" style="stop-color:#5778FF"/>
								<stop  offset="0.1779" style="stop-color:#5C7DFF"/>
								<stop  offset="0.3876" style="stop-color:#6A8AFF"/>
								<stop  offset="0.6134" style="stop-color:#82A0FF"/>
								<stop  offset="0.849" style="stop-color:#A3BEFF"/>
								<stop  offset="1" style="stop-color:#BCD5FF"/>
							</linearGradient>
							<polygon class="st42" points="1351.7,353.9 1304.5,326.6 1304.5,307.4 1351.7,334.6 							"/>
						</g>
					</g>
					<g>
						<g>
							
								<linearGradient id="SVGID_38_" gradientUnits="userSpaceOnUse" x1="1124.446" y1="417.3875" x2="1178.6349" y2="417.3875" gradientTransform="matrix(0.866 0.5 -1 0.5774 710.0915 -419.4033)">
								<stop  offset="0" style="stop-color:#C0D6FF"/>
								<stop  offset="0.4983" style="stop-color:#D2E8FF"/>
								<stop  offset="1" style="stop-color:#E9FFFF"/>
							</linearGradient>
							<polygon class="st43" points="1290.1,424.7 1242.9,397.4 1290.1,370.2 1337.3,397.4 							"/>
							<path class="st44" d="M1290.1,408.4L1290.1,408.4c-19.5,0-31.7-10.8-21.9-19.3l0,0c4.5-4,12.9-6.4,22-6.4h0
								c19.5,0,31.7,10.8,21.9,19.3v0C1307.5,405.9,1299.1,408.4,1290.1,408.4z"/>
							<polygon class="st3" points="1290.1,423.6 1243.9,396.9 1242.9,397.4 1290.1,424.7 1337.3,397.4 1336.3,396.9 							"/>
							
								<linearGradient id="SVGID_39_" gradientUnits="userSpaceOnUse" x1="1693.9374" y1="551.3868" x2="1748.1248" y2="551.3868" gradientTransform="matrix(0.866 -0.5 0 1.1547 -176.8764 684.2451)">
								<stop  offset="0" style="stop-color:#C0D6FF"/>
								<stop  offset="0.2978" style="stop-color:#C5DBFF"/>
								<stop  offset="0.6488" style="stop-color:#D3E9FF"/>
								<stop  offset="1" style="stop-color:#E9FFFF"/>
							</linearGradient>
							<polygon class="st45" points="1337.3,496 1290.1,523.2 1290.1,424.7 1337.3,397.4 							"/>
							
								<linearGradient id="SVGID_40_" gradientUnits="userSpaceOnUse" x1="1595.9592" y1="534.0058" x2="1677.3617" y2="534.0058" gradientTransform="matrix(0.866 0.5 0 1.1547 -170.1777 -985.7549)">
								<stop  offset="0" style="stop-color:#5778FF"/>
								<stop  offset="0.1779" style="stop-color:#5C7DFF"/>
								<stop  offset="0.3876" style="stop-color:#6A8AFF"/>
								<stop  offset="0.6134" style="stop-color:#82A0FF"/>
								<stop  offset="0.849" style="stop-color:#A3BEFF"/>
								<stop  offset="1" style="stop-color:#BCD5FF"/>
							</linearGradient>
							<polygon class="st46" points="1290.1,523.2 1242.9,496 1242.9,397.4 1290.1,424.7 							"/>
						</g>
					</g>
					<g>
						<g>
							
								<linearGradient id="SVGID_41_" gradientUnits="userSpaceOnUse" x1="1168.5634" y1="517.2024" x2="1222.7521" y2="517.2024" gradientTransform="matrix(0.866 0.5 -1 0.5774 710.0915 -419.4033)">
								<stop  offset="0" style="stop-color:#C0D6FF"/>
								<stop  offset="0.4983" style="stop-color:#D2E8FF"/>
								<stop  offset="1" style="stop-color:#E9FFFF"/>
							</linearGradient>
							<polygon class="st47" points="1228.5,504.4 1181.3,477.1 1228.5,449.9 1275.7,477.1 							"/>
							<polygon class="st3" points="1228.5,503.3 1182.2,476.6 1181.3,477.1 1228.5,504.4 1275.7,477.1 1274.7,476.6 							"/>
							
								<linearGradient id="SVGID_42_" gradientUnits="userSpaceOnUse" x1="1622.795" y1="570.5242" x2="1676.9823" y2="570.5242" gradientTransform="matrix(0.866 -0.5 0 1.1547 -176.8764 684.2451)">
								<stop  offset="0" style="stop-color:#C0D6FF"/>
								<stop  offset="0.2978" style="stop-color:#C5DBFF"/>
								<stop  offset="0.6488" style="stop-color:#D3E9FF"/>
								<stop  offset="1" style="stop-color:#E9FFFF"/>
							</linearGradient>
							<polygon class="st48" points="1275.7,531.6 1228.5,558.9 1228.5,504.4 1275.7,477.1 							"/>
							
								<linearGradient id="SVGID_43_" gradientUnits="userSpaceOnUse" x1="1524.8167" y1="614.7543" x2="1606.2194" y2="614.7543" gradientTransform="matrix(0.866 0.5 0 1.1547 -170.1777 -985.7549)">
								<stop  offset="0" style="stop-color:#5778FF"/>
								<stop  offset="0.1779" style="stop-color:#5C7DFF"/>
								<stop  offset="0.3876" style="stop-color:#6A8AFF"/>
								<stop  offset="0.6134" style="stop-color:#82A0FF"/>
								<stop  offset="0.849" style="stop-color:#A3BEFF"/>
								<stop  offset="1" style="stop-color:#BCD5FF"/>
							</linearGradient>
							<polygon class="st49" points="1228.5,558.9 1181.3,531.6 1181.3,477.1 1228.5,504.4 							"/>
						</g>
					</g>
					<g>
						<g>
							
								<linearGradient id="SVGID_44_" gradientUnits="userSpaceOnUse" x1="1158.0542" y1="569.7108" x2="1212.243" y2="569.7108" gradientTransform="matrix(0.866 0.5 -1 0.5774 710.0915 -419.4033)">
								<stop  offset="0" style="stop-color:#C0D6FF"/>
								<stop  offset="0.4983" style="stop-color:#D2E8FF"/>
								<stop  offset="1" style="stop-color:#E9FFFF"/>
							</linearGradient>
							<polygon class="st50" points="1166.9,529.4 1119.7,502.2 1166.9,475 1214,502.2 							"/>
							<polygon class="st3" points="1166.9,528.3 1120.6,501.6 1119.7,502.2 1166.9,529.4 1214,502.2 1213.1,501.6 							"/>
							
								<linearGradient id="SVGID_45_" gradientUnits="userSpaceOnUse" x1="1551.6526" y1="566.0071" x2="1605.8398" y2="566.0071" gradientTransform="matrix(0.866 -0.5 0 1.1547 -176.8764 684.2451)">
								<stop  offset="0" style="stop-color:#C0D6FF"/>
								<stop  offset="0.2978" style="stop-color:#C5DBFF"/>
								<stop  offset="0.6488" style="stop-color:#D3E9FF"/>
								<stop  offset="1" style="stop-color:#E9FFFF"/>
							</linearGradient>
							<polygon class="st51" points="1214.1,567.3 1166.9,594.5 1166.9,529.4 1214.1,502.2 							"/>
							
								<linearGradient id="SVGID_46_" gradientUnits="userSpaceOnUse" x1="1453.6744" y1="671.8484" x2="1535.0768" y2="671.8484" gradientTransform="matrix(0.866 0.5 0 1.1547 -170.1777 -985.7549)">
								<stop  offset="0" style="stop-color:#5778FF"/>
								<stop  offset="0.1779" style="stop-color:#5C7DFF"/>
								<stop  offset="0.3876" style="stop-color:#6A8AFF"/>
								<stop  offset="0.6134" style="stop-color:#82A0FF"/>
								<stop  offset="0.849" style="stop-color:#A3BEFF"/>
								<stop  offset="1" style="stop-color:#BCD5FF"/>
							</linearGradient>
							<polygon class="st52" points="1166.9,594.5 1119.7,567.3 1119.7,502.2 1166.9,529.4 							"/>
						</g>
					</g>
				</g>
			</g>
			<g>
				<path class="st6" d="M1311.2,311.3l22.5,13c17.9-6.3,30.9-15.8,28.9-21.3c-1.9-5.5-18-4.9-36,1.4
					C1321,306.4,1315.7,308.8,1311.2,311.3z"/>
				<g>
					<g>
						<g>
							<polygon class="st53" points="1317.3,283 1317.5,277.3 1318.9,274 1319.7,276.7 							"/>
						</g>
						<g>
							<path class="st54" d="M1376.7,284l0.2-5.6c0,0-4.7,4.7-4.7,4.8C1372.2,283.4,1376.7,284,1376.7,284z"/>
						</g>
						<g>
							<g>
								<path class="st54" d="M1346.6,300.5c-16.4-0.4-29.4-8.7-29.1-23.2c0.3-14.5,13.9-25.9,30.3-25.5
									c16.4,0.4,29.4,12.5,29.1,26.9C1376.6,293.2,1363,300.9,1346.6,300.5z"/>
							</g>
							<g>
								
									<ellipse transform="matrix(2.393973e-02 -0.9997 0.9997 2.393973e-02 1031.1721 1623.5204)" class="st54" cx="1347" cy="283.7" rx="26.2" ry="29.7"/>
							</g>
							<g>
								<path class="st53" d="M1326.3,264.8c-5.4,4.6-8.8,11-9,18.2c-0.3,14.5,12.7,26.5,29.1,26.9c8.1,0.2,15.5-2.5,21-7
									L1326.3,264.8z"/>
							</g>
							<g>
								
									<ellipse transform="matrix(2.394011e-02 -0.9997 0.9997 2.394011e-02 1031.1716 1623.5201)" class="st55" cx="1347" cy="283.7" rx="25.1" ry="28.4"/>
							</g>
							<g>
								
									<ellipse transform="matrix(2.393888e-02 -0.9997 0.9997 2.393888e-02 1031.1733 1623.5206)" class="st56" cx="1347" cy="283.7" rx="20.1" ry="22.8"/>
							</g>
							<g>
								<path class="st54" d="M1369.8,284.2c0-0.5,0-0.9,0-1.4c-1,10.4-11.1,18.5-23.2,18.2c-12.1-0.3-21.7-8.8-22.3-19.3
									c0,0.5-0.1,0.9-0.1,1.4c-0.3,11.1,9.7,20.4,22.3,20.7C1359.1,304.1,1369.5,295.3,1369.8,284.2z"/>
							</g>
							<g>
								<g>
									<path class="st54" d="M1351.4,285.4l-4.7-4.3c-4.5,1-12.9,2.9-19.6,4.5c1.7,5,5.7,9.1,11,11.3L1351.4,285.4z"/>
								</g>
								<g>
									<path class="st54" d="M1344,298.4c0.7,0.1,1.5,0.1,2.3,0.2c5.5,0.1,10.5-1.7,14.3-4.7l-7.6-7.1L1344,298.4z"/>
								</g>
								<g>
									<path class="st54" d="M1341.7,276.4l-8.8-8.2c-3,2.6-5.6,5.4-6.3,9.2L1341.7,276.4z"/>
								</g>
							</g>
							<g>
								<path class="st53" d="M1346.3,266c12.6,0.3,22.6,9.5,22.3,20.7c-0.1,2.3-0.5,4.4-1.4,6.4c1.6-2.6,2.5-5.6,2.5-8.8
									c0.3-11.1-9.7-20.4-22.3-20.7c-10-0.2-18.7,5.3-21.9,13.2C1329.5,270.2,1337.3,265.8,1346.3,266z"/>
							</g>
						</g>
						<g>
							<path class="st53" d="M1317.5,277.3c-0.1,2.2-0.3,3.7,0.3,5.7c0.7-2.1,2.1-8.5,2.1-8.5l2.3-5.1l1.9-1.6l3.2-2.3l0.3-7.3
								C1321.5,263,1317.7,269.7,1317.5,277.3z"/>
						</g>
					</g>
					<g>
						<g>
							<path class="st53" d="M1375,276.6l0.1-1.5c0-0.2,0.2-0.4,0.4-0.4l0.1,0c0.2,0,0.4,0.2,0.4,0.4l-0.1,1.5
								c0,0.2-0.2,0.4-0.4,0.4l-0.1,0C1375.2,277,1375,276.8,1375,276.6z"/>
						</g>
						<g>
							<path class="st53" d="M1372.4,270.8l0.2-2.7c0-0.2,0.2-0.4,0.4-0.4l0.3,0c0.2,0,0.4,0.2,0.4,0.5l-0.2,2.7
								c0,0.2-0.2,0.4-0.4,0.4l-0.3,0C1372.6,271.3,1372.4,271.1,1372.4,270.8z"/>
						</g>
						<g>
							<path class="st53" d="M1368.8,265.9l0.2-2.6c0-0.3,0.2-0.5,0.5-0.5l0.5,0c0.3,0,0.5,0.2,0.5,0.5l-0.2,2.6
								c0,0.3-0.2,0.5-0.5,0.5l-0.5,0C1369,266.4,1368.8,266.1,1368.8,265.9z"/>
						</g>
						<g>
							<path class="st53" d="M1363.4,261.8l0.2-3.2c0-0.3,0.2-0.5,0.5-0.5l0.5,0c0.3,0,0.5,0.2,0.5,0.5l-0.2,3.2
								c0,0.3-0.2,0.5-0.5,0.5l-0.5,0C1363.6,262.3,1363.4,262.1,1363.4,261.8z"/>
						</g>
						<g>
							<path class="st53" d="M1357.9,259.2l0.2-3.6c0-0.3,0.2-0.5,0.5-0.5l0.5,0c0.3,0,0.5,0.2,0.5,0.5l-0.2,3.6
								c0,0.3-0.2,0.5-0.5,0.5l-0.5,0C1358.1,259.7,1357.9,259.5,1357.9,259.2z"/>
						</g>
						<g>
							<path class="st53" d="M1352.5,257.6l0.2-3.5c0-0.3,0.2-0.5,0.5-0.5l0.5,0c0.3,0,0.5,0.2,0.5,0.5l-0.2,3.5
								c0,0.3-0.2,0.5-0.5,0.5l-0.5,0C1352.7,258.1,1352.5,257.9,1352.5,257.6z"/>
						</g>
						<g>
							<path class="st53" d="M1347,257l0.2-3.5c0-0.3,0.2-0.5,0.5-0.5l0.5,0c0.3,0,0.5,0.2,0.5,0.5l-0.2,3.5c0,0.3-0.2,0.5-0.5,0.5
								l-0.5,0C1347.2,257.5,1347,257.3,1347,257z"/>
						</g>
						<g>
							<path class="st53" d="M1341.4,257.1l0.2-3.3c0-0.3,0.2-0.5,0.5-0.5l0.5,0c0.3,0,0.5,0.2,0.5,0.5l-0.2,3.3
								c0,0.3-0.2,0.5-0.5,0.5l-0.5,0C1341.6,257.6,1341.4,257.4,1341.4,257.1z"/>
						</g>
						<g>
							<path class="st53" d="M1335.9,258.3l0.2-3.2c0-0.3,0.2-0.5,0.5-0.5l0.5,0c0.3,0,0.5,0.2,0.5,0.5l-0.2,3.2
								c0,0.3-0.2,0.5-0.5,0.5l-0.5,0C1336.1,258.9,1335.9,258.6,1335.9,258.3z"/>
						</g>
						<g>
							<path class="st53" d="M1330.3,261.1l0.2-3.5c0-0.3,0.2-0.5,0.5-0.5l0.5,0c0.3,0,0.5,0.2,0.5,0.5l-0.2,3.5
								c0,0.3-0.2,0.5-0.5,0.5l-0.5,0C1330.5,261.6,1330.3,261.3,1330.3,261.1z"/>
						</g>
					</g>
				</g>
			</g>
			<g>
				<path class="st57" d="M1302.6,378c0,0,0.8,0.9,1.7,1.9c0.9,1,3.3,2.5,4.4,3.1c1,0.6,5.8,4.2,6.7,7.8c1,3.5-2.4,4-5.8,3.4
					c-3.5-0.6-6.7-3.8-7.6-5c-0.9-1.2-4.2-3.8-8.5-6c-4.2-2.2-1.7-5.1-1.7-5.1L1302.6,378z"/>
				<path class="st57" d="M1271.1,388.5c0,0-0.7,1.6-0.9,3.6c-0.2,2-0.5,6.5-0.6,7.8c-0.1,1.3-0.1,4.5,2.1,7.5c2.3,3,3.5,4.2,6.5,3
					c3-1.2,3-6.3,2.4-8.9c-0.5-2.6-1-8.5-1-9.1c0.1-0.6-0.2-1-0.2-1L1271.1,388.5z"/>
				<path class="st9" d="M1313,318c0,0-0.6,23.3-6.1,35.7c0,0-3.9,10.9-4.4,23.9c0,0,0.9,2.2-0.4,4c-1.3,1.8-9.2,3.5-10.6-2.5
					c-1.3-6-0.8-17.1,0.6-21.8c1.4-4.6-0.5-17.5-0.5-17.5s-2.2,1.4-5,10.6c-2.9,9.2-5,12.7-5.9,15.3c-1,2.5-1.9,18.1-1.3,25.8
					c0,0-6.5,0.9-8.3-2.2c-1.9-3.1-2.5-19.1-2-24.1c0.5-5.1,2.6-21.4,2.3-26.4c-0.3-5-1.3-9.1-0.2-14.2c1.2-5,35.2-16.2,35.2-16.2
					L1313,318z"/>
				<path class="st57" d="M1271.5,338.8c-0.3-5-1.3-9.1-0.2-14.2c0.4-1.9,5.5-4.7,11.7-7.4c10.4-1,23.7-2.1,24.6-1.9
					c0.8,0.1,3,0.9,4.8,1.7l0.7,1.1c0,0,0,1.4-0.2,3.7c-2.4,0.7-7.1,0-7.1,0c-0.7,1.6-4.7,7.4-9.8,10c-5.1,2.5-19.8,1.6-20.7,2.6
					c-0.8,1-1,13.7-0.9,15.3c0.1,1.6-1.4,11.8-2.8,20.9c-1.4,8.9,0.7,19.7,0.8,20c-0.5-0.3-0.9-0.7-1.2-1.2
					c-1.9-3.1-2.5-19.1-2-24.1C1269.6,360.1,1271.7,343.8,1271.5,338.8z"/>
				<path class="st10" d="M1301.6,241.8c0,0,7.6,1.7,10.1,2.3c0.4,0.1,0.8,0.4,0.9,0.8c0.7,1.9,2.6,7.6,1.2,16.1
					c-1.7,10.4-1.2,17.3-1.2,17.3l3.5,18.2c0,0,4.4,17.3,4,17.8c-0.4,0.5-10.1,7.9-13.2,6.8c-3-1-2-2.8-2-2.8s-2.5,12.6-13.4,12.4
					c-10.9-0.1-19.8-0.1-21.7-4.5c-1.9-4.4,0.5-23,2.4-30.3c1.9-7.3,6.5-22,6.5-22l-16-17.7l13.7-10.4c0,0,3.3-6.1,4.6-6.8
					c1.3-0.8,2-0.1,2-0.1L1301.6,241.8z"/>
				<g>
					
						<linearGradient id="SVGID_47_" gradientUnits="userSpaceOnUse" x1="2259.4517" y1="278.9328" x2="2273.9907" y2="278.9328" gradientTransform="matrix(-0.9983 5.790000e-02 5.790000e-02 0.9983 3559.4902 -91.694)">
						<stop  offset="0" style="stop-color:#5778FF"/>
						<stop  offset="7.257640e-02" style="stop-color:#5489FF"/>
						<stop  offset="0.2791" style="stop-color:#4EB3FF"/>
						<stop  offset="0.4801" style="stop-color:#49D4FF"/>
						<stop  offset="0.6715" style="stop-color:#45ECFF"/>
						<stop  offset="0.8493" style="stop-color:#43FAFF"/>
						<stop  offset="1" style="stop-color:#42FFFF"/>
					</linearGradient>
					<path class="st58" d="M1306.8,317.2c0,0.6,0.4,1.6,2.3,2.2c2.1,0.7,7.3-2.4,10.7-4.8c-1.7,1.4-10.1,7.5-12.9,6.6
						c-0.6-0.2-1-0.4-1.4-0.7C1306.3,319.1,1306.6,317.9,1306.8,317.2z"/>
					
						<linearGradient id="SVGID_48_" gradientUnits="userSpaceOnUse" x1="2280.0059" y1="283.6471" x2="2310.4231" y2="283.6471" gradientTransform="matrix(-0.9983 5.790000e-02 5.790000e-02 0.9983 3559.4902 -91.694)">
						<stop  offset="0" style="stop-color:#5778FF"/>
						<stop  offset="7.257640e-02" style="stop-color:#5489FF"/>
						<stop  offset="0.2791" style="stop-color:#4EB3FF"/>
						<stop  offset="0.4801" style="stop-color:#49D4FF"/>
						<stop  offset="0.6715" style="stop-color:#45ECFF"/>
						<stop  offset="0.8493" style="stop-color:#43FAFF"/>
						<stop  offset="1" style="stop-color:#42FFFF"/>
					</linearGradient>
					<path class="st59" d="M1270,324.9c2,4.7,11.4,4.6,22.9,4.7c2.9,0,5.3-0.8,7.2-2.1c-2,1.9-4.7,3.3-8.4,3.3
						c-10.9-0.1-19.8-0.1-21.7-4.5c-0.6-1.4-0.8-4.4-0.6-8C1269.2,321.3,1269.4,323.6,1270,324.9z"/>
				</g>
				<path class="st60" d="M1281.4,238.9c0,0-2.8,3.4,1.2,7.9c2.5,2.8,6.7,8.9,10.4,15.1c2.3,3.9,4.4,6,5.5,9.4c0,0,0.2-4,0.3-10.2
					c0.2-5.8,0.2-11.9,0-13.4C1298.3,244.6,1284.5,237.4,1281.4,238.9z"/>
				<path class="st61" d="M1291.8,249.1c0,0,1.4,0.9,1.9,0.8c0.5-0.1,2.1-1.6,2.1-1.6s4-0.1,4.4-1.8c0.4-1.7,0.7-3.4,1.1-4.3
					s2.1-5.1,2.1-6.8c0-1.7-0.1-4.8,0.7-6.4c0.7-1.6,1.7-17.9-14-17.4c-15.7,0.5-10.8,16.8-10.8,16.8s-1.1,0.5-0.5,2.6
					s0.8,2.3,1.2,3.4c0.4,1,0.5,1.7,1.5,2.6l0.3,1.9c0,0-0.7,3,1.2,5.8C1285.1,247.5,1291.8,249.1,1291.8,249.1z"/>
				<path class="st9" d="M1312.1,244.3c0,0,1.7,0.2,7.1,13.9c3,7.6,7.7,15.5,8.7,21.2c1,5.7,0.4,11.7-0.7,12.2
					c-1.1,0.4-20.6,7.7-26.7,10c-0.3,0.1-0.7-0.1-0.8-0.4l-1.7-9.4l12.1-4.7c0,0,2.3-2.8,4.5-3.9c0,0-2.4-4.5-2.3-5.7
					c0.2-1.2-0.2-13.9,1.2-19C1315.1,253.3,1312.1,244.3,1312.1,244.3z"/>
				<path class="st61" d="M1305.1,280.4c0,0,1.7-1.1,2.1-1.3c0.4-0.2,2.6-0.9,3.1-1.1c0.3-0.1,1.6,0,2.3,0c0.2,0,0.4,0.2,0.6,0.4
					c0.5,1,2,3.7,1.8,4.8c0,0-4,2.5-4.5,3.7l-0.6,0.1C1309.7,287.1,1307,281.3,1305.1,280.4z"/>
				<path class="st9" d="M1272.3,296c0.5-1.8,1.1-4,1.7-6.3l24.5,10.5c0,0-7.3,9-20.2,8.5c-3.5-0.2-6.1-1.4-8-2.5
					C1271,302.2,1271.7,298.5,1272.3,296z"/>
				<path class="st9" d="M1262.8,256.4c0,0,6.5,0.9,11.7,9.2c5.2,8.3,9,17.9,9,17.9l0.2,1.1c0.5,2.8,3.5,4.4,6.1,3.3
					c5.5-2.5,13.7-6.2,15.2-7.3c0,0,4.9,2.7,6.2,9.1c1.1,5.1,0.8,5.1,0.8,5.1s-21.8,10.2-30.2,10.1s-19.1-27.8-20.3-33.5
					C1260.4,265.5,1259.1,258,1262.8,256.4z"/>
				<path class="st62" d="M1262.8,256.4c0,0,6.5,0.9,11.7,9.2c5.2,8.3,9,17.9,9,17.9l0.2,1.1c0.5,2.8,3.5,4.4,6.1,3.3
					c5.5-2.5,13.7-6.2,15.2-7.3c0,0,4.9,2.7,6.2,9.1c1.1,5.1,0.8,5.1,0.8,5.1s-21.8,10.2-30.2,10.1s-19.1-27.8-20.3-33.5
					C1260.4,265.5,1259.1,258,1262.8,256.4z"/>
				<path class="st10" d="M1286.7,289c0,0-2.7,2.6-3.9,1.2c-1.2-1.4-0.8-1.6-0.8-1.6s-2.5,0-2.8-1.6c-0.3-1.5-1.5-0.7-1.6-2.5
					c-0.1-1.7,2-1.4,2-1.4L1286.7,289z"/>
				<path class="st61" d="M1290,287.7c0,0-0.8-0.7-1.7-1.5c-1-0.8-2.6-4.2-2.8-4.5c-0.3-0.3-3.6-2.8-5.1-2.9c-1.6,0-0.4,1.7,0,2
					c0.4,0.3,1.9,1,1.9,1s1.6,1.3,1.8,1.5c0.2,0.2-4.4-0.3-5.2,0.1c-0.7,0.4-0.6,1.6,0,1.9c0.5,0.3,0.9,0.3,0.9,0.3s-0.5,1.4,0.9,2
					c1.4,0.6,1.7,0.3,1.7,0.3s0.1,2.4,2.4,1.9L1290,287.7z"/>
				<path class="st63" d="M1304.5,220.7c0,0,2.1,6.5-3.3,4.7s-10.3-5-12-3.8c-1.3,0.9-1.2,3.7-1.1,4.9c0,0.4-0.1,0.9-0.3,1.2
					l-1.6,2.3c-0.2,0.3-0.3,0.6-0.3,0.9l-0.1,1.6c0,0.4-0.4,0.7-0.8,0.8l-0.4,0c-0.4,0-0.8-0.3-0.8-0.7l-0.4-2.4c0,0-1.3-3.2-4-1.9
					c0,0-1.8-2.4-1.2-7.6c0.6-5.2,2.9-10.5,13-11.4C1301.3,208.5,1304.5,220.7,1304.5,220.7z"/>
				<path class="st64" d="M1289.1,254.8l1.5-1.2c0,0,1.4,1.2,1.9,2.4c0.5,1.2,0,5.2,0,5.2l0.5,0.8l0.6-1l0.5-4.6
					c0,0-0.5-3.4-0.6-3.5c-0.1-0.1-2.9,0.3-2.9,0.3S1289.5,253.9,1289.1,254.8z"/>
				<path class="st64" d="M1296.3,250.2c0,0,1.6,0.1,2.3,0.7c0,0-1.7,0.1-2,0.1S1296.3,250.2,1296.3,250.2z"/>
				<path class="st9" d="M1293.3,250.6l-2.7,2.5c0,0,2.4,1.1,3.1,3.2c0,0,3,0.6,3.2-0.5c0.3-1.1,0-3.8,0.3-5
					S1293.3,250.6,1293.3,250.6z"/>
				<path class="st9" d="M1296.7,255.8c0,0,0.5,2.2,1.1,3.1c0.6,0.9,1.1,1.9,1.1,1.9l-0.1,13c0,0-4.8-9.9-5.8-11.9
					c0,0,0.2-4.8,0.6-5.7C1294,255.5,1296.7,255.8,1296.7,255.8z"/>
				<path class="st65" d="M1283.8,236.5c3.1,9.1,12,11.8,12,11.8s-1.6,1.5-2.1,1.6c-0.5,0.1-1.9-0.8-1.9-0.8s-6.8-1.6-8.7-4.5
					c-2-2.9-1.2-5.8-1.2-5.8l-0.3-1.9C1283.1,237.3,1283.8,236.5,1283.8,236.5z"/>
				<path class="st9" d="M1276.6,247.2c0,0,1.2,4.3,1.4,4.4c0.2,0.2,3.1-0.2,3.1-0.2l-1.4,2.7c0,0,14.9,16,18,24.6
					c0,0-7.1-10.9-19.5-23.9l1.8-2.7l-3,0.6L1276.6,247.2z"/>
				<path class="st9" d="M1301.1,243.4l0.8,0.9l-0.9,0.9l2.8,2.5c0,0,0.8,17.5-2.5,29.1c0,0,4.6-10.6,3.5-29.6l-3-2l1-1
					L1301.1,243.4z"/>
				<path class="st57" d="M1291.7,339.9c0,0,0,0-0.1,0.1l3.9-4.1c-1.8,2.5,0.3,14,0.5,16.7c0.2,2.6-2.1,8.1-2.9,14.5
					c-0.9,6.4,0.9,15.5,0.9,15.5c-1.1-0.6-2-1.7-2.3-3.4c-1.3-6-0.8-17.1,0.6-21.8C1293.7,352.7,1291.7,339.9,1291.7,339.9z"/>
				
					<linearGradient id="SVGID_49_" gradientUnits="userSpaceOnUse" x1="2266.0281" y1="245.0805" x2="2315.4993" y2="245.0805" gradientTransform="matrix(-0.9983 5.790000e-02 5.790000e-02 0.9983 3559.4902 -91.694)">
					<stop  offset="0" style="stop-color:#5778FF"/>
					<stop  offset="7.257640e-02" style="stop-color:#5489FF"/>
					<stop  offset="0.2791" style="stop-color:#4EB3FF"/>
					<stop  offset="0.4801" style="stop-color:#49D4FF"/>
					<stop  offset="0.6715" style="stop-color:#45ECFF"/>
					<stop  offset="0.8493" style="stop-color:#43FAFF"/>
					<stop  offset="1" style="stop-color:#42FFFF"/>
				</linearGradient>
				<path class="st66" d="M1281.9,304.7c-8.4-0.1-19.1-27.8-20.3-33.5c-0.2-1-0.4-2-0.6-3c0,0.1,2.2,6.1,4.3,11.4
					c2.1,5.3,13.4,21.5,19.1,22.5c5.2,0.9,23.8-7.8,27.4-9.5c0.3,1.9,0.2,2,0.2,2S1290.3,304.8,1281.9,304.7z"/>
				<path class="st67" d="M1284.6,233.3c-0.4,0-0.8-0.3-0.8-0.7l-0.4-2.4c0,0-1.3-3.2-4-1.9c0,0-1.7-2.3-1.2-7.2
					c3,4.5,9.6,6.5,9.6,6.5l-1.6,2.3c-0.2,0.3-0.3,0.6-0.3,0.9l-0.1,1.6c0,0.4-0.4,0.7-0.8,0.8L1284.6,233.3z"/>
			</g>
		</g>
		<g>
			
				<ellipse transform="matrix(0.9439 -0.3303 0.3303 0.9439 -154.5044 342.9732)" class="st6" cx="931.9" cy="626.1" rx="34.4" ry="10.6"/>
			<g>
				<g>
					<g>
						<polygon class="st53" points="919,594.7 919.2,589.1 920.5,585.7 921.4,588.5 						"/>
					</g>
					<g>
						<path class="st54" d="M978.4,595.8l0.2-5.6c0,0-4.7,4.7-4.7,4.8C973.9,595.2,978.4,595.8,978.4,595.8z"/>
					</g>
					<g>
						<g>
							<path class="st54" d="M948.3,612.3c-16.4-0.4-29.4-8.7-29.1-23.2c0.3-14.5,13.9-25.9,30.3-25.5c16.4,0.4,29.4,12.4,29.1,26.9
								C978.3,605,964.7,612.7,948.3,612.3z"/>
						</g>
						<g>
							
								<ellipse transform="matrix(2.393973e-02 -0.9997 0.9997 2.393973e-02 330.7182 1529.5908)" class="st54" cx="948.7" cy="595.4" rx="26.2" ry="29.7"/>
						</g>
						<g>
							<path class="st53" d="M928,576.5c-5.4,4.6-8.8,11-9,18.2c-0.3,14.5,12.7,26.5,29.1,26.9c8.1,0.2,15.5-2.5,21-7L928,576.5z"/>
						</g>
						<g>
							
								<ellipse transform="matrix(2.394011e-02 -0.9997 0.9997 2.394011e-02 330.7178 1529.5907)" class="st55" cx="948.7" cy="595.4" rx="25.1" ry="28.4"/>
						</g>
						<g>
							
								<ellipse transform="matrix(2.394201e-02 -0.9997 0.9997 2.394201e-02 330.716 1529.5895)" class="st56" cx="948.7" cy="595.4" rx="20.1" ry="22.8"/>
						</g>
						<g>
							<path class="st54" d="M971.5,596c0-0.5,0-0.9,0-1.4c-1,10.4-11.1,18.5-23.2,18.2c-12.1-0.3-21.7-8.8-22.3-19.3
								c0,0.5-0.1,0.9-0.1,1.4c-0.3,11.1,9.7,20.4,22.3,20.7C960.8,615.8,971.2,607.1,971.5,596z"/>
						</g>
						<g>
							<g>
								<path class="st54" d="M953.1,597.1l-4.7-4.3c-4.5,1-12.9,2.9-19.6,4.5c1.7,5,5.7,9.1,11,11.3L953.1,597.1z"/>
							</g>
							<g>
								<path class="st54" d="M945.7,610.2c0.7,0.1,1.5,0.1,2.3,0.2c5.5,0.1,10.5-1.7,14.3-4.7l-7.6-7.1L945.7,610.2z"/>
							</g>
							<g>
								<path class="st54" d="M943.4,588.2l-8.8-8.2c-3,2.6-5.6,5.4-6.3,9.2L943.4,588.2z"/>
							</g>
						</g>
						<g>
							<path class="st53" d="M948,577.7c12.6,0.3,22.6,9.5,22.3,20.7c-0.1,2.3-0.5,4.4-1.4,6.4c1.6-2.6,2.5-5.6,2.5-8.8
								c0.3-11.1-9.7-20.4-22.3-20.7c-10-0.2-18.7,5.3-21.9,13.2C931.1,581.9,939,577.5,948,577.7z"/>
						</g>
					</g>
					<g>
						<path class="st53" d="M919.2,589.1c-0.1,2.2-0.3,3.7,0.3,5.7c0.7-2.1,2.1-8.5,2.1-8.5l2.3-5.1l1.9-1.6l3.2-2.3l0.3-7.3
							C923.2,574.7,919.4,581.5,919.2,589.1z"/>
					</g>
				</g>
				<g>
					<g>
						<path class="st53" d="M976.7,588.3l0.1-1.5c0-0.2,0.2-0.4,0.4-0.4l0.1,0c0.2,0,0.4,0.2,0.4,0.4l-0.1,1.5
							c0,0.2-0.2,0.4-0.4,0.4l-0.1,0C976.8,588.7,976.7,588.5,976.7,588.3z"/>
					</g>
					<g>
						<path class="st53" d="M974.1,582.6l0.2-2.7c0-0.2,0.2-0.4,0.4-0.4l0.3,0c0.2,0,0.4,0.2,0.4,0.5l-0.2,2.7
							c0,0.2-0.2,0.4-0.4,0.4l-0.3,0C974.3,583,974.1,582.8,974.1,582.6z"/>
					</g>
					<g>
						<path class="st53" d="M970.5,577.6l0.2-2.6c0-0.3,0.2-0.5,0.5-0.5l0.5,0c0.3,0,0.5,0.2,0.5,0.5l-0.2,2.6
							c0,0.3-0.2,0.5-0.5,0.5l-0.5,0C970.7,578.1,970.5,577.9,970.5,577.6z"/>
					</g>
					<g>
						<path class="st53" d="M965.1,573.6l0.2-3.2c0-0.3,0.2-0.5,0.5-0.5l0.5,0c0.3,0,0.5,0.2,0.5,0.5l-0.2,3.2
							c0,0.3-0.2,0.5-0.5,0.5l-0.5,0C965.2,574.1,965,573.9,965.1,573.6z"/>
					</g>
					<g>
						<path class="st53" d="M959.6,570.9l0.2-3.6c0-0.3,0.2-0.5,0.5-0.5l0.5,0c0.3,0,0.5,0.2,0.5,0.5L961,571c0,0.3-0.2,0.5-0.5,0.5
							l-0.5,0C959.8,571.4,959.6,571.2,959.6,570.9z"/>
					</g>
					<g>
						<path class="st53" d="M954.1,569.3l0.2-3.5c0-0.3,0.2-0.5,0.5-0.5l0.5,0c0.3,0,0.5,0.2,0.5,0.5l-0.2,3.5
							c0,0.3-0.2,0.5-0.5,0.5l-0.5,0C954.3,569.8,954.1,569.6,954.1,569.3z"/>
					</g>
					<g>
						<path class="st53" d="M948.6,568.8l0.2-3.5c0-0.3,0.2-0.5,0.5-0.5l0.5,0c0.3,0,0.5,0.2,0.5,0.5l-0.2,3.5
							c0,0.3-0.2,0.5-0.5,0.5l-0.5,0C948.8,569.3,948.6,569.1,948.6,568.8z"/>
					</g>
					<g>
						<path class="st53" d="M943.1,568.9l0.2-3.3c0-0.3,0.2-0.5,0.5-0.5l0.5,0c0.3,0,0.5,0.2,0.5,0.5l-0.2,3.3
							c0,0.3-0.2,0.5-0.5,0.5l-0.5,0C943.3,569.4,943.1,569.2,943.1,568.9z"/>
					</g>
					<g>
						<path class="st53" d="M937.6,570.1l0.2-3.2c0-0.3,0.2-0.5,0.5-0.5l0.5,0c0.3,0,0.5,0.2,0.5,0.5l-0.2,3.2
							c0,0.3-0.2,0.5-0.5,0.5l-0.5,0C937.8,570.6,937.6,570.4,937.6,570.1z"/>
					</g>
					<g>
						<path class="st53" d="M932,572.8l0.2-3.5c0-0.3,0.2-0.5,0.5-0.5l0.5,0c0.3,0,0.5,0.2,0.5,0.5l-0.2,3.5c0,0.3-0.2,0.5-0.5,0.5
							l-0.5,0C932.2,573.3,932,573.1,932,572.8z"/>
					</g>
				</g>
			</g>
		</g>
		<g>
			
				<ellipse transform="matrix(0.9439 -0.3303 0.3303 0.9439 -115.8252 489.5919)" class="st6" cx="1382.7" cy="585.6" rx="34.4" ry="10.6"/>
			<g>
				<g>
					<g>
						<polygon class="st53" points="1369.7,554.2 1370,548.6 1371.3,545.2 1372.1,548 						"/>
					</g>
					<g>
						<path class="st54" d="M1429.2,555.3l0.2-5.6c0,0-4.7,4.7-4.7,4.8C1424.7,554.7,1429.2,555.3,1429.2,555.3z"/>
					</g>
					<g>
						<g>
							<path class="st54" d="M1399,571.8c-16.4-0.4-29.4-8.7-29.1-23.2c0.3-14.5,13.9-25.9,30.3-25.5c16.4,0.4,29.4,12.4,29.1,26.9
								C1429,564.5,1415.4,572.2,1399,571.8z"/>
						</g>
						<g>
							
								<ellipse transform="matrix(2.393973e-02 -0.9997 0.9997 2.393973e-02 811.1741 1940.6859)" class="st54" cx="1399.4" cy="554.9" rx="26.2" ry="29.7"/>
						</g>
						<g>
							<path class="st53" d="M1378.7,536c-5.4,4.6-8.8,11-9,18.2c-0.3,14.5,12.7,26.5,29.1,26.9c8.1,0.2,15.5-2.5,21-7L1378.7,536z"
								/>
						</g>
						<g>
							
								<ellipse transform="matrix(2.394019e-02 -0.9997 0.9997 2.394019e-02 811.1734 1940.6857)" class="st55" cx="1399.4" cy="554.9" rx="25.1" ry="28.4"/>
						</g>
						<g>
							
								<ellipse transform="matrix(2.393897e-02 -0.9997 0.9997 2.393897e-02 811.1752 1940.6864)" class="st56" cx="1399.4" cy="554.9" rx="20.1" ry="22.8"/>
						</g>
						<g>
							<path class="st54" d="M1422.2,555.5c0-0.5,0-0.9,0-1.4c-1,10.4-11.1,18.5-23.2,18.2c-12.1-0.3-21.7-8.8-22.3-19.3
								c0,0.5-0.1,0.9-0.1,1.4c-0.3,11.1,9.7,20.4,22.3,20.7C1411.5,575.3,1422,566.6,1422.2,555.5z"/>
						</g>
						<g>
							<g>
								<path class="st54" d="M1403.8,556.6l-4.7-4.3c-4.5,1-12.9,2.9-19.6,4.5c1.7,5,5.7,9.1,11,11.3L1403.8,556.6z"/>
							</g>
							<g>
								<path class="st54" d="M1396.5,569.7c0.7,0.1,1.5,0.1,2.3,0.2c5.5,0.1,10.5-1.7,14.3-4.7l-7.6-7.1L1396.5,569.7z"/>
							</g>
							<g>
								<path class="st54" d="M1394.1,547.7l-8.8-8.2c-3,2.6-5.6,5.4-6.3,9.2L1394.1,547.7z"/>
							</g>
						</g>
						<g>
							<path class="st53" d="M1398.7,537.2c12.6,0.3,22.6,9.5,22.3,20.7c-0.1,2.3-0.5,4.4-1.4,6.4c1.6-2.6,2.5-5.6,2.5-8.8
								c0.3-11.1-9.7-20.4-22.3-20.7c-10-0.2-18.7,5.3-21.9,13.2C1381.9,541.4,1389.8,537,1398.7,537.2z"/>
						</g>
					</g>
					<g>
						<path class="st53" d="M1370,548.6c-0.1,2.2-0.3,3.7,0.3,5.7c0.7-2.1,2.1-8.5,2.1-8.5l2.3-5.1l1.9-1.6l3.2-2.3l0.3-7.3
							C1374,534.2,1370.2,541,1370,548.6z"/>
					</g>
				</g>
				<g>
					<g>
						<path class="st53" d="M1427.5,547.8l0.1-1.5c0-0.2,0.2-0.4,0.4-0.4l0.1,0c0.2,0,0.4,0.2,0.4,0.4l-0.1,1.5
							c0,0.2-0.2,0.4-0.4,0.4l-0.1,0C1427.6,548.2,1427.4,548,1427.5,547.8z"/>
					</g>
					<g>
						<path class="st53" d="M1424.8,542.1l0.2-2.7c0-0.2,0.2-0.4,0.4-0.4l0.3,0c0.2,0,0.4,0.2,0.4,0.5l-0.2,2.7
							c0,0.2-0.2,0.4-0.4,0.4l-0.3,0C1425,542.5,1424.8,542.3,1424.8,542.1z"/>
					</g>
					<g>
						<path class="st53" d="M1421.2,537.1l0.2-2.6c0-0.3,0.2-0.5,0.5-0.5l0.5,0c0.3,0,0.5,0.2,0.5,0.5l-0.2,2.6
							c0,0.3-0.2,0.5-0.5,0.5l-0.5,0C1421.4,537.6,1421.2,537.4,1421.2,537.1z"/>
					</g>
					<g>
						<path class="st53" d="M1415.8,533.1l0.2-3.2c0-0.3,0.2-0.5,0.5-0.5l0.5,0c0.3,0,0.5,0.2,0.5,0.5l-0.2,3.2
							c0,0.3-0.2,0.5-0.5,0.5l-0.5,0C1416,533.6,1415.8,533.4,1415.8,533.1z"/>
					</g>
					<g>
						<path class="st53" d="M1410.4,530.4l0.2-3.6c0-0.3,0.2-0.5,0.5-0.5l0.5,0c0.3,0,0.5,0.2,0.5,0.5l-0.2,3.6
							c0,0.3-0.2,0.5-0.5,0.5l-0.5,0C1410.6,530.9,1410.4,530.7,1410.4,530.4z"/>
					</g>
					<g>
						<path class="st53" d="M1404.9,528.8l0.2-3.5c0-0.3,0.2-0.5,0.5-0.5l0.5,0c0.3,0,0.5,0.2,0.5,0.5l-0.2,3.5
							c0,0.3-0.2,0.5-0.5,0.5l-0.5,0C1405.1,529.3,1404.9,529.1,1404.9,528.8z"/>
					</g>
					<g>
						<path class="st53" d="M1399.4,528.3l0.2-3.5c0-0.3,0.2-0.5,0.5-0.5l0.5,0c0.3,0,0.5,0.2,0.5,0.5l-0.2,3.5
							c0,0.3-0.2,0.5-0.5,0.5l-0.5,0C1399.6,528.8,1399.4,528.5,1399.4,528.3z"/>
					</g>
					<g>
						<path class="st53" d="M1393.9,528.4l0.2-3.3c0-0.3,0.2-0.5,0.5-0.5l0.5,0c0.3,0,0.5,0.2,0.5,0.5l-0.2,3.3
							c0,0.3-0.2,0.5-0.5,0.5l-0.5,0C1394.1,528.9,1393.9,528.7,1393.9,528.4z"/>
					</g>
					<g>
						<path class="st53" d="M1388.3,529.6l0.2-3.2c0-0.3,0.2-0.5,0.5-0.5l0.5,0c0.3,0,0.5,0.2,0.5,0.5l-0.2,3.2
							c0,0.3-0.2,0.5-0.5,0.5l-0.5,0C1388.5,530.1,1388.3,529.9,1388.3,529.6z"/>
					</g>
					<g>
						<path class="st53" d="M1382.8,532.3l0.2-3.5c0-0.3,0.2-0.5,0.5-0.5l0.5,0c0.3,0,0.5,0.2,0.5,0.5l-0.2,3.5
							c0,0.3-0.2,0.5-0.5,0.5l-0.5,0C1383,532.8,1382.7,532.6,1382.8,532.3z"/>
					</g>
				</g>
			</g>
		</g>
		<polygon class="st6" points="1166.9,594.5 1105.1,630.1 1058.9,602.3 1119.7,567.3 		"/>
	</g>
</g>
</svg>
