<?xml version="1.0" encoding="utf-8"?>
<!-- Generator: Adobe Illustrator 21.0.0, SVG Export Plug-In . SVG Version: 6.00 Build 0)  -->
<svg version="1.1" id="Layer_1" xmlns="http://www.w3.org/2000/svg" xmlns:xlink="http://www.w3.org/1999/xlink" x="0px" y="0px"
	 viewBox="0 0 262 200" style="enable-background:new 0 0 262 200;" xml:space="preserve">
<style type="text/css">
	.st0{fill:#FFFFFF;}
</style>
<g>
	<g>
		<path class="st0" d="M255,152H7c-3.9,0-7-3.1-7-7V7c0-3.9,3.1-7,7-7h248c3.9,0,7,3.1,7,7v138C262,148.9,258.9,152,255,152z
			 M12,140h238V12H12V140z"/>
		<path class="st0" d="M131,119.5c-24,0-43.5-19.5-43.5-43.5S107,32.5,131,32.5S174.5,52,174.5,76S155,119.5,131,119.5z M131,44.5
			c-17.4,0-31.5,14.1-31.5,31.5s14.1,31.5,31.5,31.5s31.5-14.1,31.5-31.5S148.4,44.5,131,44.5z"/>
		<g>
			<path class="st0" d="M256,49.5c-24,0-43.5-19.5-43.5-43.5h12c0,17.4,14.1,31.5,31.5,31.5V49.5z"/>
			<path class="st0" d="M6,49.5v-12c17.4,0,31.5-14.1,31.5-31.5h12C49.5,30,30,49.5,6,49.5z"/>
			<path class="st0" d="M224.5,146h-12c0-24,19.5-43.5,43.5-43.5v12C238.6,114.5,224.5,128.6,224.5,146z"/>
			<path class="st0" d="M49.5,146h-12c0-17.4-14.1-31.5-31.5-31.5v-12C30,102.5,49.5,122,49.5,146z"/>
		</g>
		<g>
			<path class="st0" d="M218.2,82h-30c-3.3,0-6-2.7-6-6s2.7-6,6-6h30c3.3,0,6,2.7,6,6S221.5,82,218.2,82z"/>
			<path class="st0" d="M73.8,82h-30c-3.3,0-6-2.7-6-6s2.7-6,6-6h30c3.3,0,6,2.7,6,6S77.1,82,73.8,82z"/>
		</g>
		<path class="st0" d="M256,176H6c-3.3,0-6-2.7-6-6s2.7-6,6-6h250c3.3,0,6,2.7,6,6S259.3,176,256,176z"/>
		<path class="st0" d="M256,200H6c-3.3,0-6-2.7-6-6s2.7-6,6-6h250c3.3,0,6,2.7,6,6S259.3,200,256,200z"/>
	</g>
</g>
</svg>
