<?xml version="1.0" encoding="utf-8"?>
<!-- Generator: Adobe Illustrator 21.0.0, SVG Export Plug-In . SVG Version: 6.00 Build 0)  -->
<svg version="1.1" id="Capa_1" xmlns="http://www.w3.org/2000/svg" xmlns:xlink="http://www.w3.org/1999/xlink" x="0px" y="0px"
	 viewBox="0 0 486.2 486.2" style="enable-background:new 0 0 486.2 486.2;" xml:space="preserve">
<style type="text/css">
	.st0{fill:#43A8BA;}
</style>
<g>
	<path class="st0" d="M325.5,66.9c6.7-14.4,13.4-28.8,20.5-44.1C267.8-10.1,191.6-8.5,118.6,34.9C48.1,76.9,9.8,140.6,0,222.7
		c16.8,1.5,32.6,2.8,48.4,4.2C57,102.9,194.1,7.8,325.5,66.9z"/>
	<path class="st0" d="M482.7,201.7c-15.7,2.7-31.4,5.5-47.7,8.3c8.4,56.8-3.2,107.9-37.9,152.8c-34.5,44.6-80.6,69.1-137.1,75.4
		c1.4,16,2.7,31.7,4.1,47.3C382.3,481.3,509,362.5,482.7,201.7z"/>
	<path class="st0" d="M47.7,261c-15,1.3-30.7,2.7-46.4,4c3.6,99.1,90.1,210.6,220.5,221.2c1.4-16.1,2.8-31.7,4.1-47
		C124,422.2,64.9,363.1,47.7,261z"/>
	<path class="st0" d="M397.3,125.1c12.2,15.8,21.5,33,28.8,52.2c15.2-5.5,30.1-10.9,45.7-16.6c-18.1-48-47.5-86.2-89.2-116.2
		c-9.3,13.2-18.4,26.2-27.9,39.8C370.8,96,385.2,109.4,397.3,125.1z"/>
	<path class="st0" d="M397.3,243.1c0-85.2-69-154.2-154.2-154.2s-154.2,69-154.2,154.2s69,154.2,154.2,154.2
		S397.3,328.3,397.3,243.1z"/>
</g>
</svg>
