<?xml version="1.0" encoding="utf-8"?>
<!-- Generator: Adobe Illustrator 21.0.0, SVG Export Plug-In . SVG Version: 6.00 Build 0)  -->
<svg version="1.1" id="Capa_1" xmlns="http://www.w3.org/2000/svg" xmlns:xlink="http://www.w3.org/1999/xlink" x="0px" y="0px"
	 viewBox="0 0 512 512" style="enable-background:new 0 0 512 512;" xml:space="preserve">
<style type="text/css">
	.st0{fill:#CCCCCC;}
</style>
<path class="st0" d="M448.8,271H497c8.3,0,15-6.7,15-15V111.4c0-8.3-6.7-15-15-15H367.4V63.2C367.4,28.4,339,0,304.2,0
	S241,28.4,241,63.2v33.2H111.4c-8.3,0-15,6.7-15,15V241H63.2C28.4,241,0,269.4,0,304.2s28.4,63.2,63.2,63.2h33.2V497
	c0,8.3,6.7,15,15,15H256c8.3,0,15-6.7,15-15v-48.2c0-18.3,14.9-33.2,33.2-33.2s33.2,14.9,33.2,33.2V497c0,8.3,6.7,15,15,15H497
	c8.3,0,15-6.7,15-15V352.4c0-8.3-6.7-15-15-15h-48.2c-18.3,0-33.2-14.9-33.2-33.2C415.6,285.9,430.5,271,448.8,271z"/>
<path class="st0" d="M448.8,367.4H482V482H367.4v-33.2c0-34.8-28.4-63.2-63.2-63.2S241,414,241,448.8V482H126.4V352.4
	c0-8.3-6.7-15-15-15H63.2c-18.3,0-33.2-14.9-33.2-33.2S44.9,271,63.2,271h48.2c8.3,0,15-6.7,15-15V126.4H256c8.3,0,15-6.7,15-15
	V63.2c0-18.3,14.9-33.2,33.2-33.2s33.2,14.9,33.2,33.2v48.2c0,8.3,6.7,15,15,15H482V241h-33.2c-34.9,0-63.2,28.4-63.2,63.2
	S414,367.4,448.8,367.4z"/>
</svg>
