<?xml version="1.0" encoding="utf-8"?>
<!-- Generator: Adobe Illustrator 21.0.0, SVG Export Plug-In . SVG Version: 6.00 Build 0)  -->
<svg version="1.1" id="Слой_1" xmlns="http://www.w3.org/2000/svg" xmlns:xlink="http://www.w3.org/1999/xlink" x="0px" y="0px"
	 viewBox="0 0 393 393" style="enable-background:new 0 0 393 393;" xml:space="preserve">
<style type="text/css">
	.st0{fill:#999999;}
</style>
<path class="st0" d="M197.3,66.2l-56-56c-6.2-6.2-16.4-6.2-22.6,0l-56,56c-6.2,6.2-6.2,16.4,0,22.6c6.2,6.2,16.4,6.2,22.6,0
	L114,60.1v313.4c0,8.8,7.2,16,16,16s16-7.2,16-16V60.1l28.7,28.7c3.1,3.1,7.2,4.7,11.3,4.7s8.2-1.6,11.3-4.7
	C203.6,82.6,203.6,72.4,197.3,66.2L197.3,66.2z"/>
<path class="st0" d="M341.3,306.2c-6.2-6.2-16.4-6.2-22.6,0L290,334.9V21.5c0-8.8-7.2-16-16-16s-16,7.2-16,16v313.4l-28.7-28.7
	c-6.2-6.2-16.4-6.2-22.6,0c-6.2,6.2-6.2,16.4,0,22.6l56,56c3.1,3.1,7.2,4.7,11.3,4.7s8.2-1.6,11.3-4.7l56-56
	C347.6,322.6,347.6,312.4,341.3,306.2L341.3,306.2z"/>
</svg>
