<?xml version="1.0" encoding="iso-8859-1"?>
<!-- Generator: Adobe Illustrator 19.0.0, SVG Export Plug-In . SVG Version: 6.00 Build 0)  -->
<svg version="1.1" id="Capa_1" xmlns="http://www.w3.org/2000/svg" xmlns:xlink="http://www.w3.org/1999/xlink" x="0px" y="0px"
	 viewBox="0 0 511.993 511.993" style="enable-background:new 0 0 511.993 511.993;" xml:space="preserve">
<g>
	
		<linearGradient id="SVGID_1_" gradientUnits="userSpaceOnUse" x1="-42.9248" y1="606.7066" x2="16.9822" y2="606.7066" gradientTransform="matrix(8.5333 0 0 -8.5333 369.1334 5433.2266)">
		<stop  offset="0" style="stop-color:#00A2CC"/>
		<stop  offset="1" style="stop-color:#2B32B2"/>
	</linearGradient>
	<path style="fill:url(#SVGID_1_);" d="M341.333,170.773c-23.501,0-46.754,4.881-68.267,14.345V8.64c0-4.71-3.823-8.533-8.533-8.533
		H179.2c-4.71,0-8.533,3.823-8.533,8.533v34.133h-76.8c-4.71,0-8.533,3.823-8.533,8.533v42.667h-76.8
		c-4.71,0-8.533,3.823-8.533,8.533V341.44c0,4.71,3.823,8.533,8.533,8.533h162.569c4.77,94.072,84.907,166.468,178.978,161.69
		c94.072-4.77,166.468-84.907,161.69-178.978C507.17,241.924,432.213,170.714,341.333,170.773z M85.333,332.907H17.067V111.04
		h68.267V332.907z M170.667,332.907H102.4V59.84h68.267V332.907z M187.733,17.173H256v176.691
		c-29.594,17.195-53.376,42.854-68.267,73.677V17.173z M341.333,495.04c-84.77,0.068-153.557-68.599-153.626-153.37
		c-0.068-81.562,63.659-148.932,145.092-153.395V341.44c0,4.71,3.823,8.533,8.533,8.533h153.165
		C489.941,431.27,422.758,494.904,341.333,495.04z M349.867,332.907V188.275c77.978,4.412,140.22,66.654,144.631,144.632H349.867z"
		/>
	
		<linearGradient id="SVGID_2_" gradientUnits="userSpaceOnUse" x1="-42.9248" y1="624.8401" x2="16.9822" y2="624.8401" gradientTransform="matrix(8.5333 0 0 -8.5333 369.1334 5433.2266)">
		<stop  offset="0" style="stop-color:#00A2CC"/>
		<stop  offset="1" style="stop-color:#2B32B2"/>
	</linearGradient>
	<path style="fill:url(#SVGID_2_);" d="M347.366,96.474c-3.328-3.328-8.738-3.328-12.066,0l-42.667,42.667l12.066,12.066
		l36.634-36.634l28.1,28.1c3.328,3.328,8.738,3.328,12.066,0l62.234-62.234v39.134H460.8V59.84h-0.077
		c0.128-4.582-3.482-8.405-8.064-8.533c-0.128,0-0.256,0-0.393,0h-59.733v17.067h39.134l-56.201,56.201L347.366,96.474z"/>
	
		<linearGradient id="SVGID_3_" gradientUnits="userSpaceOnUse" x1="-42.9248" y1="590.6967" x2="16.9822" y2="590.6967" gradientTransform="matrix(8.5333 0 0 -8.5333 369.1334 5433.2266)">
		<stop  offset="0" style="stop-color:#00A2CC"/>
		<stop  offset="1" style="stop-color:#2B32B2"/>
	</linearGradient>
	<rect x="17.067" y="384.081" style="fill:url(#SVGID_3_);" width="136.533" height="17.067"/>
	
		<linearGradient id="SVGID_4_" gradientUnits="userSpaceOnUse" x1="-42.9248" y1="586.6967" x2="16.9822" y2="586.6967" gradientTransform="matrix(8.5333 0 0 -8.5333 369.1334 5433.2266)">
		<stop  offset="0" style="stop-color:#00A2CC"/>
		<stop  offset="1" style="stop-color:#2B32B2"/>
	</linearGradient>
	<rect x="17.067" y="418.214" style="fill:url(#SVGID_4_);" width="136.533" height="17.067"/>
	
		<linearGradient id="SVGID_5_" gradientUnits="userSpaceOnUse" x1="-42.9248" y1="582.6967" x2="16.9822" y2="582.6967" gradientTransform="matrix(8.5333 0 0 -8.5333 369.1334 5433.2266)">
		<stop  offset="0" style="stop-color:#00A2CC"/>
		<stop  offset="1" style="stop-color:#2B32B2"/>
	</linearGradient>
	<rect x="17.067" y="452.348" style="fill:url(#SVGID_5_);" width="136.533" height="17.067"/>
</g>
<g>
</g>
<g>
</g>
<g>
</g>
<g>
</g>
<g>
</g>
<g>
</g>
<g>
</g>
<g>
</g>
<g>
</g>
<g>
</g>
<g>
</g>
<g>
</g>
<g>
</g>
<g>
</g>
<g>
</g>
</svg>
