<?xml version="1.0" encoding="utf-8"?>
<!-- Generator: Adobe Illustrator 21.0.0, SVG Export Plug-In . SVG Version: 6.00 Build 0)  -->
<svg version="1.1" id="Layer_1" xmlns="http://www.w3.org/2000/svg" xmlns:xlink="http://www.w3.org/1999/xlink" x="0px" y="0px"
	 viewBox="0 0 262 213.3" style="enable-background:new 0 0 262 213.3;" xml:space="preserve">
<style type="text/css">
	.st0{fill:#FFFFFF;}
</style>
<g>
	<path class="st0" d="M244.6,189.3H17.4c-3.3,0-6-2.7-6-6c0-3.3,2.7-6,6-6h227.3c3.3,0,6,2.7,6,6C250.6,186.6,248,189.3,244.6,189.3
		z"/>
	<path class="st0" d="M244.6,72.5C244.6,72.5,244.6,72.5,244.6,72.5H17.4c-2.8,0-5.2-1.9-5.8-4.5c-0.7-2.7,0.6-5.5,3-6.8L128.2,0.7
		c1.8-0.9,3.9-0.9,5.6,0l113.3,60.4c2.1,0.9,3.5,3,3.5,5.5C250.6,69.9,248,72.5,244.6,72.5z M41.4,60.5h179.2L131,12.8L41.4,60.5z"
		/>
	<path class="st0" d="M256,213.3H6c-3.3,0-6-2.7-6-6c0-3.3,2.7-6,6-6h250c3.3,0,6,2.7,6,6C262,210.6,259.3,213.3,256,213.3z"/>
	<g>
		<path class="st0" d="M43.7,165.3c-3.3,0-6-2.7-6-6V90.5c0-3.3,2.7-6,6-6c3.3,0,6,2.7,6,6v68.7C49.7,162.6,47,165.3,43.7,165.3z"/>
		<path class="st0" d="M87.4,165.3c-3.3,0-6-2.7-6-6V90.5c0-3.3,2.7-6,6-6c3.3,0,6,2.7,6,6v68.7C93.4,162.6,90.7,165.3,87.4,165.3z"
			/>
		<path class="st0" d="M131,165.3c-3.3,0-6-2.7-6-6V90.5c0-3.3,2.7-6,6-6c3.3,0,6,2.7,6,6v68.7C137,162.6,134.3,165.3,131,165.3z"/>
		<path class="st0" d="M174.6,165.3c-3.3,0-6-2.7-6-6V90.5c0-3.3,2.7-6,6-6c3.3,0,6,2.7,6,6v68.7
			C180.6,162.6,177.9,165.3,174.6,165.3z"/>
		<path class="st0" d="M218.3,165.3c-3.3,0-6-2.7-6-6V90.5c0-3.3,2.7-6,6-6c3.3,0,6,2.7,6,6v68.7
			C224.3,162.6,221.6,165.3,218.3,165.3z"/>
		<path class="st0" d="M49.7,96.5h-12c-3.3,0-6-2.7-6-6c0-3.3,2.7-6,6-6h12c3.3,0,6,2.7,6,6C55.7,93.9,53,96.5,49.7,96.5z"/>
		<path class="st0" d="M93.4,96.5h-12c-3.3,0-6-2.7-6-6c0-3.3,2.7-6,6-6h12c3.3,0,6,2.7,6,6C99.4,93.9,96.7,96.5,93.4,96.5z"/>
		<path class="st0" d="M137,96.5h-12c-3.3,0-6-2.7-6-6c0-3.3,2.7-6,6-6h12c3.3,0,6,2.7,6,6C143,93.9,140.3,96.5,137,96.5z"/>
		<path class="st0" d="M180.6,96.5h-12c-3.3,0-6-2.7-6-6c0-3.3,2.7-6,6-6h12c3.3,0,6,2.7,6,6C186.6,93.9,183.9,96.5,180.6,96.5z"/>
		<path class="st0" d="M224.3,96.5h-12c-3.3,0-6-2.7-6-6c0-3.3,2.7-6,6-6h12c3.3,0,6,2.7,6,6C230.3,93.9,227.6,96.5,224.3,96.5z"/>
		<path class="st0" d="M49.7,165.3h-12c-3.3,0-6-2.7-6-6c0-3.3,2.7-6,6-6h12c3.3,0,6,2.7,6,6C55.7,162.6,53,165.3,49.7,165.3z"/>
		<path class="st0" d="M93.4,165.3h-12c-3.3,0-6-2.7-6-6c0-3.3,2.7-6,6-6h12c3.3,0,6,2.7,6,6C99.4,162.6,96.7,165.3,93.4,165.3z"/>
		<path class="st0" d="M137,165.3h-12c-3.3,0-6-2.7-6-6c0-3.3,2.7-6,6-6h12c3.3,0,6,2.7,6,6C143,162.6,140.3,165.3,137,165.3z"/>
		<path class="st0" d="M180.6,165.3h-12c-3.3,0-6-2.7-6-6c0-3.3,2.7-6,6-6h12c3.3,0,6,2.7,6,6C186.6,162.6,183.9,165.3,180.6,165.3z
			"/>
		<path class="st0" d="M224.3,165.3h-12c-3.3,0-6-2.7-6-6c0-3.3,2.7-6,6-6h12c3.3,0,6,2.7,6,6C230.3,162.6,227.6,165.3,224.3,165.3z
			"/>
	</g>
</g>
</svg>
