<?xml version="1.0" encoding="utf-8"?>
<!-- Generator: Adobe Illustrator 21.0.0, SVG Export Plug-In . SVG Version: 6.00 Build 0)  -->
<svg version="1.1" id="Слой_1" xmlns="http://www.w3.org/2000/svg" xmlns:xlink="http://www.w3.org/1999/xlink" x="0px" y="0px"
	 viewBox="0 0 279.9 279.9" style="enable-background:new 0 0 279.9 279.9;" xml:space="preserve">
<style type="text/css">
	.st0{fill:#FFFFFF;}
</style>
<g>
	<g>
		<g>
			<path class="st0" d="M187.1,80.6c-0.2-0.8-0.6-1.5-1.1-2.2c-1.1-1.4-2.6-2.3-4.3-2.5c-0.3,0-0.7-0.1-1-0.1H99.3
				c-0.3,0-0.7,0-1,0.1c-1.7,0.3-3.3,1.1-4.3,2.5c-0.5,0.6-0.9,1.4-1.1,2.1c-0.4,1.1-0.4,2.4-0.1,3.6c0,0,0,0,0,0.1l0.9,3.6h0
				L126.9,223l6.9,28.1c0.4,1.7,1.3,2.9,2.4,3.7c1.1,0.8,2.5,1.2,3.7,1.2c1.2,0,2.6-0.4,3.7-1.3c1.1-0.8,1.9-2,2.3-3.7l6.9-28.1
				l33.4-135.2l0.9-3.6c0,0,0-0.1,0-0.1C187.5,82.9,187.4,81.7,187.1,80.6z M139.9,225.6l-9.1-36.9L105.9,87.8h68L139.9,225.6z"/>
		</g>
		<g>
			<path class="st0" d="M93.6,87.8L93.6,87.8L126.9,223L93.6,87.8z M145.5,248.2l-5.6-22.6v0l-9.1-36.9L105.9,87.8l-1.1-4.6
				l-0.5-1.9c-0.1-0.6-0.4-1.2-0.7-1.7c-1.1-2-3.1-3.4-5.4-3.7c-0.3-0.1-0.6-0.1-1-0.1H15.9c-2.5,0-4.8,1.4-5.9,3.5
				c-0.3,0.7-0.5,1.4-0.6,2.1v0c-0.2,1.6,0.3,3.3,1.3,4.7l123.8,167.2c0.7,0.9,1.4,1.5,2.2,1.9c1.2,0.6,2.3,0.8,3,0.8h0.5
				c0.1,0,0.1,0,0.2,0c0.7,0,1.8-0.2,2.8-0.8l0.4-0.5l0.8-1C145.1,252.9,146.2,251,145.5,248.2z M26.8,87.8h66.7L126.9,223
				L26.8,87.8z M93.6,87.8L93.6,87.8L126.9,223L93.6,87.8z"/>
		</g>
		<g>
			<path class="st0" d="M270.5,81.5L270.5,81.5c-0.1-0.8-0.3-1.5-0.6-2.1c-1.1-2.2-3.4-3.5-5.9-3.5h-81.3c-0.3,0-0.6,0-1,0.1
				c-2.3,0.3-4.3,1.7-5.4,3.7c-0.3,0.5-0.5,1.1-0.7,1.7l-0.5,1.9l-1.1,4.6l-34,137.8v0l-5.6,22.6c-0.7,2.8,0.4,4.7,1.1,5.6l0.8,1
				l0.4,0.5c1.2,0.6,2.3,0.8,3,0.8h0.5c0.1,0,0.1,0,0.2,0c0.7,0,1.8-0.2,2.8-0.8c0.7-0.4,1.4-1,2.1-1.9L269.2,86.2
				C270.2,84.8,270.6,83.1,270.5,81.5z M152.9,223l33.4-135.2H253L152.9,223z"/>
		</g>
		<g>
			<path class="st0" d="M103.6,79.6c-0.2-0.6-0.4-1.2-0.8-1.7l-1.2-2.1L99,71.4h0L77.6,35.8l-4.9-8.2c-1.3-2.1-3.4-3.3-5.8-3.3
				c-0.7,0-1.3,0.1-2,0.3c0,0,0,0,0,0c-1,0.3-2,0.9-2.8,1.7L11.4,76.9c-1.3,1.3-2,2.9-2,4.6v0c0,0.8,0.2,1.6,0.5,2.4
				c1,2.4,3.3,3.9,6,3.9h81.3c0.3,0,0.7,0,1-0.1c0.9-0.1,1.8-0.4,2.5-0.9c1-0.6,1.8-1.4,2.3-2.4C103.9,83,104.1,81.3,103.6,79.6z
				 M29.4,75.8l36.4-36.4l21.8,36.4H29.4z"/>
		</g>
		<g>
			<path class="st0" d="M187.1,80.6c-0.2-1.2-0.6-2.3-1.4-3.3l-1.2-1.5l-3.6-4.5l-28.5-35.6l-7.2-9c-0.8-1-1.8-1.7-2.9-2.1
				c-0.8-0.3-1.6-0.5-2.4-0.5c-0.8,0-1.7,0.2-2.4,0.5c-1.1,0.4-2.1,1.1-2.9,2.1l-7.2,9l-15.2,19L99,71.3v0h0l-3.6,4.5l-1.2,1.5
				c-0.8,1-1.3,2.1-1.4,3.2c-0.2,1.2,0,2.5,0.6,3.7c0.5,1.1,1.3,1.9,2.3,2.5c0.8,0.5,1.7,0.9,2.7,1c0.3,0,0.7,0.1,1,0.1h81.3
				c0.4,0,0.7,0,1-0.1c1-0.1,1.9-0.5,2.7-1c1-0.6,1.7-1.5,2.2-2.5C187.1,83.1,187.3,81.8,187.1,80.6z M110.7,75.8l29.2-36.5
				l11.6,14.4l17.6,22H110.7z"/>
		</g>
		<g>
			<path class="st0" d="M144.9,27.4c-0.6-1.2-1.4-2.1-2.5-2.7c-0.7-0.4-1.5-0.7-2.4-0.8c-0.3-0.1-0.7-0.1-1-0.1H68
				c-1.1,0-2.2,0.3-3.1,0.8c0,0,0,0,0,0c-1.1,0.6-2,1.4-2.6,2.5c-1.2,2.1-1.1,4.5,0.1,6.7l3.4,5.7l21.8,36.4l4.9,8.2
				c0,0,0,0.1,0.1,0.1c0.7,1.2,1.7,2,2.9,2.6c0.9,0.4,1.8,0.6,2.8,0.6c0.8,0,1.6-0.1,2.4-0.5c1.1-0.4,2.1-1.1,2.8-2.1l1.2-1.5l6-7.4
				l29.2-36.5v0l4.1-5.1C145.6,32.3,145.9,29.6,144.9,27.4z M112.2,54.8L99,71.3L77.6,35.8h49.8L112.2,54.8z M77.6,35.8L99,71.4h0v0
				L77.6,35.8z"/>
		</g>
		<g>
			<path class="st0" d="M217.6,27.1c-0.6-1.1-1.5-2-2.6-2.5c0,0,0,0,0,0c-0.9-0.5-2-0.8-3.1-0.8h-70.9c-0.3,0-0.7,0-1,0.1
				c-0.9,0.1-1.7,0.4-2.4,0.8c-1.1,0.6-2,1.6-2.5,2.7c-1.1,2.2-0.8,4.9,0.9,6.9l4.1,5.1v0l11.6,14.4l17.6,22h0l5.9,7.4l1.2,1.5
				c0.8,1,1.8,1.7,2.9,2.1c0.8,0.3,1.5,0.4,2.4,0.4c1,0,1.9-0.2,2.8-0.6c1.2-0.5,2.2-1.4,2.9-2.6c0,0,0,0,0-0.1l4.9-8.2L214,39.4
				l3.4-5.7C218.7,31.6,218.8,29.1,217.6,27.1z M180.9,71.4l-28.5-35.6h49.8L180.9,71.4z"/>
		</g>
		<g>
			<path class="st0" d="M268.5,76.9l-50.7-50.7c-0.8-0.8-1.8-1.4-2.8-1.7c0,0,0,0,0,0c-0.6-0.2-1.3-0.3-2-0.3
				c-2.4,0-4.6,1.2-5.8,3.3l-4.9,8.2l-21.4,35.6l-2.7,4.5l-1.2,2c-0.3,0.6-0.6,1.2-0.8,1.8c-0.5,1.7-0.3,3.4,0.6,4.9
				c0.6,1,1.4,1.8,2.3,2.4c0.7,0.4,1.6,0.7,2.5,0.8c0.3,0,0.6,0.1,1,0.1h81.3c2.7,0,5-1.5,6-3.9c0.3-0.8,0.5-1.6,0.5-2.4v0
				C270.4,79.8,269.8,78.2,268.5,76.9z M192.2,75.8L214,39.4l36.4,36.4H192.2z"/>
		</g>
	</g>
</g>
</svg>
