<?xml version="1.0" encoding="utf-8"?>
<!-- Generator: Adobe Illustrator 21.0.0, SVG Export Plug-In . SVG Version: 6.00 Build 0)  -->
<svg version="1.1" id="Capa_1" xmlns="http://www.w3.org/2000/svg" xmlns:xlink="http://www.w3.org/1999/xlink" x="0px" y="0px"
	 viewBox="0 0 45.1 45.1" style="enable-background:new 0 0 45.1 45.1;" xml:space="preserve">
<style type="text/css">
	.st0{fill:#4349BA;}
</style>
<path class="st0" d="M22.6,0C10.1,0,0,10.1,0,22.6s10.1,22.6,22.6,22.6C35,45.1,45.1,35,45.1,22.6S35,0,22.6,0z M31.1,19.1L30,21.4
	H14.9c-0.1,0.4-0.1,0.8-0.1,1.2s0.1,0.8,0.1,1.2h16.3l-1.1,2.3H15.5c1.4,3.7,5,6.3,9.2,6.3c2.9,0,5.7-1.3,7.5-3.6l0.5-0.7v4.6
	l-0.1,0.1c-2.3,1.8-5.1,2.8-8,2.8c-5.9,0-11-4-12.5-9.5H7l1.1-2.3h3.6c-0.1-0.4-0.1-0.8-0.1-1.2s0.1-0.8,0.1-1.2H7l1.1-2.3h4
	c1.5-5.5,6.5-9.5,12.5-9.5c3.4,0,6.6,1.3,9,3.6l0.2,0.2l-1.4,3.2l-0.3-0.4c-1.9-2.2-4.6-3.4-7.4-3.4c-4.2,0-7.8,2.6-9.2,6.3
	C15.5,19.1,31.1,19.1,31.1,19.1z"/>
</svg>
