<?xml version="1.0" encoding="utf-8"?>
<!-- Generator: Adobe Illustrator 21.0.0, SVG Export Plug-In . SVG Version: 6.00 Build 0)  -->
<svg version="1.1" id="Capa_1" xmlns="http://www.w3.org/2000/svg" xmlns:xlink="http://www.w3.org/1999/xlink" x="0px" y="0px"
	 viewBox="0 0 45.1 45.1" style="enable-background:new 0 0 45.1 45.1;" xml:space="preserve">
<style type="text/css">
	.st0{fill:#4349BA;}
</style>
<g>
	<path class="st0" d="M26.5,23.7h-5.8h-0.2v6.7h0.2h5.8c0.9,0,1.7-0.4,2.3-1c0.6-0.7,0.9-1.5,0.9-2.3c0-0.9-0.3-1.8-0.9-2.4
		C28.2,24,27.4,23.7,26.5,23.7z"/>
	<path class="st0" d="M28.7,17.7c0-1.6-1.3-2.9-2.9-2.9h-5.3v5.8h5.3C27.4,20.6,28.7,19.3,28.7,17.7z"/>
	<path class="st0" d="M22.6,0C10.1,0,0,10.1,0,22.6s10.1,22.6,22.6,22.6C35,45.1,45.1,35,45.1,22.6S35,0,22.6,0z M32.8,31.5
		c-1.2,1.2-2.7,1.9-4.5,1.9h-2.6v3.4h-2.5v-3.4h-2.7v3.4H18v-3.4h-5.4v-3h3.1V14.8h-3.1v-3H18V8.4h2.5v3.4h2.7V8.4h2.5v3.4h1.6
		c3.3,0,5.9,2.6,5.9,5.9c0,0.7-0.1,1.2-0.3,1.8c-0.1,0.5-0.3,0.9-0.8,1.5c-0.3,0.3-0.9,0.8-1.3,0.8c1.1-0.1,2.1,0.5,2.5,1
		c1.1,1.2,1.4,2.6,1.4,4.2C34.7,28.8,34,30.3,32.8,31.5z"/>
</g>
</svg>
