<?xml version="1.0" encoding="utf-8"?>
<!-- Generator: Adobe Illustrator 21.0.0, SVG Export Plug-In . SVG Version: 6.00 Build 0)  -->
<svg version="1.1" id="Слой_1" xmlns="http://www.w3.org/2000/svg" xmlns:xlink="http://www.w3.org/1999/xlink" x="0px" y="0px"
	 viewBox="0 0 393 393" style="enable-background:new 0 0 393 393;" xml:space="preserve">
<style type="text/css">
	.st0{fill:#999999;}
</style>
<g>
	<path class="st0" d="M363.3,10.6H30.1c-5.9,0-11.3,3.3-14,8.5c-2.7,5.3-2.2,11.7,1.2,16.5l122.1,172c0,0.1,0.1,0.1,0.1,0.2
		c4.4,6,6.8,13.2,6.8,20.7v140.2c0,4.2,1.6,8.1,4.5,11.1c2.9,2.9,6.9,4.6,11.1,4.6c2.1,0,4.2-0.4,6.1-1.2l68.6-26.2
		c6.1-1.9,10.2-7.7,10.2-14.7V228.5c0-7.5,2.4-14.7,6.8-20.7c0-0.1,0.1-0.1,0.1-0.2L376,35.6c3.5-4.8,4-11.2,1.2-16.5
		C374.6,13.9,369.2,10.6,363.3,10.6z M238.5,196.5c-6.8,9.3-10.5,20.4-10.5,31.9V340l-62.6,23.9V228.5c0-11.5-3.7-22.7-10.5-31.9
		L36.3,29.6H357L238.5,196.5z"/>
	<path class="st0" d="M162,388.9c-5.3,0-10.5-2.2-14.3-5.9c-3.8-3.8-5.9-8.9-5.8-14.3V228.5c0-6.5-2.1-12.8-6-18l-0.1-0.1
		c0,0-0.1-0.1-0.1-0.2L13.7,38.2C9.2,32,8.6,23.9,12.1,17.1C15.6,10.3,22.5,6.1,30,6.1c0,0,0,0,0,0h333.2c0,0,0,0,0,0
		c7.6,0,14.5,4.2,17.9,10.9c3.5,6.8,2.9,15-1.6,21.2L257.4,210.5c-3.8,5.2-6,11.6-6,18v113.8c0,8.8-5.3,16.4-13.3,18.9l-68.4,26.1
		C167.3,388.4,164.7,388.9,162,388.9z M143.2,205.1c5,6.8,7.7,14.9,7.7,23.4v140.2c0,3,1.1,5.8,3.2,7.9c2.1,2.1,4.9,3.3,7.9,3.3
		c1.5,0,3-0.3,4.4-0.9l0.1,0l68.9-26.3c4.3-1.3,7-5.4,7-10.4V228.5c0-8.4,2.8-16.7,7.7-23.4l0.1-0.1L372.3,33
		c2.5-3.5,2.9-8,0.9-11.9c-1.9-3.7-5.7-6.1-9.9-6.1c0,0,0,0,0,0H30.1c0,0,0,0,0,0c-4.2,0-8,2.3-9.9,6.1c-2,3.8-1.6,8.3,0.9,11.8
		L143.2,205.1z M160.9,370.4V228.5c0-10.6-3.4-20.7-9.7-29.3L27.6,25.1h338.1L242.1,199.2c-6.3,8.5-9.6,18.7-9.7,29.3v114.6
		L160.9,370.4z M45,34.1l113.5,159.8c7.4,10,11.3,22,11.4,34.5v128.9l53.6-20.4V228.5c0-12.5,4-24.5,11.4-34.6L348.3,34.1H45z"/>
</g>
</svg>
