<?xml version="1.0" encoding="utf-8"?>
<!-- Generator: Adobe Illustrator 21.0.0, SVG Export Plug-In . SVG Version: 6.00 Build 0)  -->
<svg version="1.1" id="Слой_1" xmlns="http://www.w3.org/2000/svg" xmlns:xlink="http://www.w3.org/1999/xlink" x="0px" y="0px"
	 viewBox="0 0 337.5 66.2" style="enable-background:new 0 0 337.5 66.2;" xml:space="preserve">
<style type="text/css">
	.st0{fill:#4349BA;}
	.st1{fill:#0AE5D5;}
</style>
<g>
	<g>
		<path class="st0" d="M92.6,65.1H81.1c-0.6,0-1-0.3-1-0.9V22.4c0-0.6,0.3-0.9,1-0.9h11.5c0.6,0,1,0.3,1,0.9v41.8
			C93.6,64.8,93.3,65.1,92.6,65.1z"/>
		<path class="st0" d="M143.6,65.1h-11.5c-0.6,0-1-0.3-1-1V37.5c0-2.6-0.6-4.7-1.8-6.2c-1.2-1.5-3-2.2-5.4-2.2
			c-2.3,0-4.1,0.8-5.4,2.3c-1.3,1.5-1.9,3.6-1.9,6.1v26.6c0,0.6-0.3,1-1,1h-11.5c-0.6,0-1-0.3-1-1V19.7c0-0.6,0.3-1,1-1h11.5
			c0.6,0,1,0.3,1,1V23h0.1c2.6-3.5,6.5-5.3,12-5.3c5,0,8.9,1.6,11.7,4.7c2.7,3.2,4.1,7.3,4.1,12.5v29.2
			C144.5,64.8,144.2,65.1,143.6,65.1z"/>
		<path class="st0" d="M179.5,66.2c-5.7,0-9.8-1.8-12.2-5.4h-0.1v3.4c0,0.6-0.3,1-1,1h-11.5c-0.6,0-1-0.3-1-1V1c0-0.6,0.3-1,1-1
			h11.5c0.6,0,1,0.3,1,1v22.1h0.1c2.4-3.6,6.4-5.4,12.2-5.4c8,0,13.3,3.7,15.7,11.1c1.1,3.4,1.6,7.8,1.6,13.1
			c0,5.3-0.5,9.7-1.6,13.1C192.7,62.5,187.5,66.2,179.5,66.2z M175.1,54.9c3.7,0,6.1-1.7,7.2-5c0.6-1.9,0.9-4.5,0.9-7.9
			c0-3.4-0.3-6.1-0.9-7.9c-1-3.3-3.4-5-7.2-5c-3.7,0-6.1,1.7-7.1,5c-0.6,1.9-0.9,4.5-0.9,7.9c0,3.4,0.3,6.1,0.9,7.9
			C169.1,53.2,171.5,54.9,175.1,54.9z"/>
		<path class="st0" d="M242,65.1h-10.6c-0.6,0-1-0.3-1-1v-3.1h-0.1c-2.6,3.4-6.9,5.1-12.7,5.1c-4.4,0-8.1-1.2-11-3.6
			c-2.9-2.4-4.4-5.9-4.4-10.6c0-5,1.7-8.7,5.2-11.2s8.1-3.7,14.1-3.7h8.2c0.4,0,0.6-0.2,0.6-0.6v-1.7c0-2.2-0.7-3.8-2.1-4.8
			c-1.4-1-3.8-1.5-7.4-1.5c-4.2,0-7.7,1-10.3,3c-0.5,0.4-0.9,0.3-1.2-0.2l-4.3-7.6c-0.3-0.6-0.2-1,0.3-1.3
			c4.3-3.1,10.1-4.6,17.2-4.6c7.5,0,12.8,1.3,15.9,4c3.1,2.6,4.7,6.9,4.7,12.8v29.7C242.9,64.8,242.6,65.1,242,65.1z M221.6,56.1
			c5.7,0,8.6-2.1,8.6-6.4v-3.2c0-0.4-0.2-0.6-0.6-0.6h-6.5c-5.5,0-8.2,1.8-8.2,5.3C214.9,54.5,217.1,56.1,221.6,56.1z"/>
		<path class="st0" d="M287.8,65.1h-36.2c-0.6,0-1-0.3-1-1v-8.6c0-0.4,0.1-0.7,0.3-1L273,30v-0.2h-20.1c-0.6,0-1-0.3-1-1v-9.1
			c0-0.6,0.3-1,1-1h34.9c0.6,0,1,0.3,1,1v9.1c0,0.3-0.1,0.6-0.3,1l-21.8,24.1v0.2h21.2c0.6,0,1,0.3,1,1v9.1
			C288.8,64.8,288.5,65.1,287.8,65.1z"/>
		<path class="st0" d="M316.6,66.2c-5.2,0-9.6-1.1-13.2-3.4c-3.5-2.3-6-5.6-7.3-9.8c-1.1-3.3-1.6-6.9-1.6-11c0-4.3,0.5-8,1.5-11.1
			c1.3-4.1,3.8-7.4,7.3-9.7c3.5-2.3,7.7-3.4,12.6-3.4c5,0,9.3,1.1,12.8,3.4c3.5,2.3,5.9,5.5,7.2,9.6c1,3.3,1.5,8,1.5,14.3
			c0,0.6-0.4,1-1.1,1h-28.1c-0.4,0-0.6,0.2-0.6,0.6c0.1,1,0.3,1.8,0.6,2.6c1.3,4.1,4.5,6.1,9.6,6.1c4.1,0,7.7-1.4,10.6-4.1
			c0.6-0.4,1-0.4,1.3,0l6.3,5.9c0.5,0.4,0.5,0.9,0.1,1.3C331.5,63.6,324.9,66.2,316.6,66.2z M308.4,37.1h15.3c0.4,0,0.6-0.2,0.6-0.6
			c0-1.2-0.2-2.4-0.5-3.4c-1.1-3.4-3.7-5.1-7.8-5.1c-4,0-6.6,1.7-7.8,5.1c-0.3,1.1-0.5,2.2-0.5,3.4C307.8,36.9,308,37.1,308.4,37.1z
			"/>
	</g>
	<path class="st0" d="M17.2,21.8H0.6c-0.3,0-0.6-0.3-0.6-0.6V4.6C0,4.3,0.3,4,0.6,4h16.6c0.3,0,0.6,0.3,0.6,0.6v16.6
		C17.8,21.5,17.5,21.8,17.2,21.8z"/>
	<path class="st0" d="M39,21.8H22.5c-0.4,0-0.7-0.3-0.7-0.7V4.7c0-0.4,0.3-0.7,0.7-0.7H39c0.4,0,0.7,0.3,0.7,0.7v16.4
		C39.6,21.5,39.3,21.8,39,21.8z"/>
	<path class="st0" d="M60.5,21.8H44c-0.4,0-0.7-0.3-0.7-0.7V4.7C43.3,4.3,43.6,4,44,4h16.4c0.4,0,0.7,0.3,0.7,0.7v16.4
		C61.1,21.5,60.8,21.8,60.5,21.8z"/>
	<path class="st0" d="M92.9,17.1H81.2c-0.4,0-0.7-0.3-0.7-0.7V4.7c0-0.4,0.3-0.7,0.7-0.7h11.7c0.4,0,0.7,0.3,0.7,0.7v11.7
		C93.6,16.8,93.3,17.1,92.9,17.1z"/>
	<path class="st0" d="M60.5,43.6H44c-0.4,0-0.6-0.3-0.6-0.6V26.4c0-0.4,0.3-0.6,0.6-0.6h16.5c0.4,0,0.6,0.3,0.6,0.6v16.5
		C61.1,43.3,60.9,43.6,60.5,43.6z"/>
	<path class="st1" d="M39.1,43.6H22.4c-0.3,0-0.6-0.3-0.6-0.6V26.4c0-0.3,0.3-0.6,0.6-0.6h16.6c0.3,0,0.6,0.3,0.6,0.6V43
		C39.6,43.3,39.4,43.6,39.1,43.6z"/>
	<path class="st0" d="M17.2,43.6H0.6c-0.3,0-0.6-0.3-0.6-0.6V26.4c0-0.3,0.3-0.6,0.6-0.6h16.5c0.3,0,0.6,0.3,0.6,0.6v16.5
		C17.8,43.3,17.5,43.6,17.2,43.6z"/>
	<path class="st0" d="M61.1,65.1H43.3V47.3h17.1c0.4,0,0.7,0.3,0.7,0.7V65.1z"/>
	<path class="st0" d="M38.9,65.1H22.5c-0.4,0-0.7-0.3-0.7-0.7V48c0-0.4,0.3-0.7,0.7-0.7h16.4c0.4,0,0.7,0.3,0.7,0.7v16.4
		C39.6,64.8,39.3,65.1,38.9,65.1z"/>
	<path class="st0" d="M17.2,65.1H0.6c-0.4,0-0.6-0.3-0.6-0.6V47.9c0-0.4,0.3-0.6,0.6-0.6h16.5c0.4,0,0.6,0.3,0.6,0.6v16.5
		C17.8,64.8,17.5,65.1,17.2,65.1z"/>
</g>
</svg>
