<svg xmlns="http://www.w3.org/2000/svg" viewBox="0 0 493.41 494.5" fill="#4349ba"><title>Ресурс 1</title><g id="Слой_2" data-name="Слой 2"><g id="Layer_1" data-name="Layer 1"><path d="M210.56,48.45a165.67,165.67,0,0,0-17.83,213.23L8.06,446.35A27.52,27.52,0,1,0,47,485.27l30.1-30.1,39.33,39.33,24.32-24.33L101.4,430.85l26.47-26.47,71.48,71.48,29.18-29.19-71.48-71.48,74.71-74.71a165.6,165.6,0,0,0,213.11-252C380.28-16.15,275.15-16.15,210.56,48.45ZM406,243.85a110.65,110.65,0,1,1,32.41-78.24A110.79,110.79,0,0,1,406,243.85Z"/></g></g></svg>