<svg xmlns="http://www.w3.org/2000/svg" fill="#4349ba" viewBox="0 0 486.2 486.19"><title>Ресурс 2</title><g id="Слой_2" data-name="Слой 2"><g id="Layer_1" data-name="Layer 1"><path d="M325.5,66.89c6.7-14.4,13.4-28.8,20.5-44.1-78.2-32.9-154.4-31.3-227.4,12.1C48.1,76.89,9.8,140.59,0,222.69c16.8,1.5,32.6,2.8,48.4,4.2C57,102.89,194.1,7.79,325.5,66.89Z"/><path d="M482.7,201.69c-15.7,2.7-31.4,5.5-47.7,8.3,8.4,56.8-3.2,107.9-37.9,152.8-34.5,44.6-80.6,69.1-137.1,75.4,1.4,16,2.7,31.7,4.1,47.3C382.3,481.29,509,362.49,482.7,201.69Z"/><path d="M47.7,261c-15,1.3-30.7,2.7-46.4,4,3.6,99.1,90.1,210.6,220.5,221.2,1.4-16.1,2.8-31.7,4.1-47C124,422.19,64.9,363.09,47.7,261Z"/><path d="M397.3,125.09a200.8,200.8,0,0,1,28.8,52.2c15.2-5.5,30.1-10.9,45.7-16.6-18.1-48-47.5-86.2-89.2-116.2-9.3,13.2-18.4,26.2-27.9,39.8A206.13,206.13,0,0,1,397.3,125.09Z"/><path d="M397.3,243.09a154.2,154.2,0,1,0-154.2,154.2A154.15,154.15,0,0,0,397.3,243.09Zm-109.9,60.8a49.52,49.52,0,0,1-25.7,16.5c-4.5,1.2-6.5,3.6-6.2,8.2s0,9.1,0,13.7c0,4.1-2.1,6.2-6.1,6.3-2.6.1-5.2.1-7.8.1-2.3,0-4.6,0-6.9-.1-4.3-.1-6.3-2.5-6.4-6.7,0-3.3-.1-6.7-.1-10-.1-7.3-.3-7.6-7.4-8.8-9-1.4-17.9-3.5-26.2-7.5-6.5-3.2-7.2-4.8-5.3-11.6,1.4-5.1,2.8-10.1,4.4-15.2,1.2-3.7,2.2-5.3,4.2-5.3a10.42,10.42,0,0,1,4.6,1.6,84.63,84.63,0,0,0,29,8.7,45.33,45.33,0,0,0,5.2.3,35.23,35.23,0,0,0,13.9-2.8c11.3-4.9,13.1-18.1,3.5-26a47.31,47.31,0,0,0-10.8-6.4c-9.9-4.4-20.3-7.7-29.7-13.3-15.2-9.1-24.9-21.6-23.8-40.2,1.3-21,13.1-34,32.3-41,7.9-2.9,8-2.8,8-11.1v-8.4c.2-6.2,1.2-7.3,7.4-7.5h7.2c11.8,0,11.8.5,11.9,13.2,0,9.4,0,9.4,9.4,10.9a82.72,82.72,0,0,1,20.6,6.1c3.6,1.6,5,4.2,3.9,8-1.7,5.7-3.2,11.5-5,17.1-1.1,3.5-2.2,5-4.2,5a10.53,10.53,0,0,1-4.3-1.4,65.55,65.55,0,0,0-28.7-6.6c-1.3,0-2.6,0-3.9.1a26,26,0,0,0-8.7,1.8c-9.9,4.3-11.5,15.2-3.1,21.9a56.54,56.54,0,0,0,14.2,8c8.7,3.6,17.5,7.1,25.8,11.7C298.9,248.09,306,281.29,287.4,303.89Z"/><circle cx="243.9" cy="245.09" r="134.3"/></g></g></svg>