<svg xmlns="http://www.w3.org/2000/svg" fill="#4349ba" viewBox="0 0 365.02 481.06"><title>Ресурс 3</title><g id="Слой_2" data-name="Слой 2"><g id="Layer_1" data-name="Layer 1"><path d="M249.61,147.59a411.42,411.42,0,0,0-67.1-5.36C98.32,142.22,0,166.41,0,234.57V388.7c0,18.74,8.71,53.37,67,74.75,31,11.35,72,17.6,115.5,17.6,84.2,0,182.51-24.19,182.51-92.35V234.57c0-33.3-23.49-56.08-57.31-70.69m-.8,224.83c0,10.24-42.33,34.25-124.41,34.25s-124.4-24-124.4-34.25V234.57c0-10.24,42.33-34.24,124.4-34.24,36.34,0,71.15,5.12,95.51,14,21.2,7.77,28.9,16.34,28.9,20.2Z"/><path d="M221.13,239.72H140A18.16,18.16,0,0,0,140,276h81.1a18.16,18.16,0,0,0,0-36.32Z"/><path d="M110.59,168.48V130a71.92,71.92,0,1,1,143.84,0v60.1h58.1V130a130,130,0,1,0-260.05,0v51.22"/></g></g></svg>