<svg xmlns="http://www.w3.org/2000/svg" fill="#4349ba" viewBox="0 0 495.44 492.25"><title>Ресурс 4</title><g id="Слой_2" data-name="Слой 2"><g id="Layer_1" data-name="Layer 1"><path d="M188,492.25c129.84,0,188-42,188-83.56V372.1c75.29-11.29,119.51-39.86,119.51-78.53v-210C495.44,42,437.32,0,307.48,0s-188,42-188,83.56v36.15c-82,12-119.51,45.58-119.51,79v210C0,450.28,58.12,492.25,188,492.25Zm0-55.09c-80.82,0-126.1-20.93-132.88-30.44V365.61c30.62,13.13,74.47,21.64,132.88,21.64s102.26-8.51,132.88-21.64v41.12C314.06,416.23,268.78,437.16,188,437.16ZM55.09,260.61c30.62,13.13,74.47,21.64,132.88,21.64s102.26-8.51,132.88-21.64v41.12c-6.78,9.51-52.06,30.44-132.88,30.44S61.87,311.23,55.09,301.72Zm385.26-74c-4,5.24-23.92,17.34-64.43,24.64V198.69c0-11.74-4.63-23.5-14.19-34.34,32.27-3.51,58.34-10.17,78.62-18.87ZM375.92,316.27V267.09c25.1-3.77,46.73-9.45,64.43-16.8v41.33C436.35,296.87,416.43,309,375.92,316.27ZM307.48,55.09c75.56,0,120.14,18.32,131.17,28.47C427.62,93.71,383,112,307.48,112S187.34,93.71,176.31,83.56C187.34,73.4,231.92,55.09,307.48,55.09ZM188,170.22c75.56,0,120.14,18.32,131.17,28.47-11,10.15-55.62,28.47-131.17,28.47S67.82,208.84,56.8,198.69C67.82,188.53,112.41,170.22,188,170.22Z"/></g></g></svg>