<svg xmlns="http://www.w3.org/2000/svg" fill="#4349ba" viewBox="0 0 484.21 488.77"><title>Ресурс 5</title><g id="Слой_2" data-name="Слой 2"><g id="Layer_1" data-name="Layer 1"><path d="M443.15,248.84,293.41,421.49l-64.72-66.13-38.85,38L275.2,480.6a27.17,27.17,0,0,0,19.42,8.17h.82a27.17,27.17,0,0,0,19.72-9.36L484.21,284.46Z"/><path d="M149.5,434.4H54.36v-380H333.52v190a27.18,27.18,0,1,0,54.36,0V27.18A27.18,27.18,0,0,0,360.7,0H27.18A27.18,27.18,0,0,0,0,27.18v434.4a27.18,27.18,0,0,0,27.18,27.18H149.5a27.18,27.18,0,0,0,0-54.36Z"/><rect x="111.55" y="119.48" width="164.79" height="40.77"/><rect x="111.55" y="197.2" width="164.79" height="40.77"/><rect x="111.55" y="274.93" width="116.18" height="40.77"/></g></g></svg>